<svg width="357" height="391" viewBox="0 0 357 391" fill="none" xmlns="http://www.w3.org/2000/svg">
<path d="M203.426 47.4694C204.242 46.6779 204.864 45.7091 205.245 44.6381C205.626 43.5671 205.754 42.4228 205.621 41.294C205.488 40.1651 205.096 39.0822 204.477 38.1293C203.857 37.1763 203.026 36.379 202.049 35.7993C198.647 33.6922 195.047 34.2596 191.275 34.422C188.358 34.5466 169.23 34.798 163.509 37.982C161.978 38.9692 160.897 40.5191 160.5 42.2969C160.102 44.0746 160.42 45.9374 161.384 47.4827C140.778 49.6072 120.658 55.0831 101.817 63.6941C79.8981 74.0821 60.4141 88.9719 44.6343 107.393C9.75521 147.036 -8.81242 197.608 5.59001 249.281C7.47219 256.063 10.0335 262.638 13.2351 268.906C17.1533 276.56 30.3498 271.242 27.3171 262.972C18.0634 237.747 14.0628 219.431 18.7665 192.853C24.8607 158.448 44.572 128.613 69.9771 104.621C93.3195 82.5754 122.981 68.618 157.562 64.208C188.398 60.2765 219.582 64.8266 238.915 72.1335C277.498 86.7117 309.053 118.825 322.352 145.28C336.485 173.369 339.654 195.701 340.35 206.205C340.726 211.855 340.933 232.238 330.68 272.51C327.788 283.858 322.935 293.096 317.386 303.622C312.304 313.188 306.608 322.414 300.333 331.244C297.265 335.142 294.373 339.16 291.124 342.916C288.163 346.338 291.932 352.09 296.184 349.475C316.1 337.238 330.004 316.338 339.142 295.201C349.334 272.299 355.289 247.739 356.719 222.713C360.411 142.504 299.51 57.7711 203.426 47.4694Z" fill="#9A7ED9"/>
<path d="M243.425 363.237C230.72 364.031 222.835 371.434 194.508 373.941C142.508 378.542 86.1909 360.186 48.0811 318.131C44.9096 315.07 42.2061 311.559 40.0577 307.71C38.5559 304.537 34.1526 306.909 34.7177 309.957C36.6446 320.243 42.4763 329.223 49.2448 337.024C72.0755 363.326 100.357 377.857 134.295 385.689C169.809 393.884 204.501 391.846 233.237 382.514C238.735 381.1 243.862 378.511 248.264 374.927C252.581 371.066 249.286 362.872 243.425 363.237Z" fill="#9A7ED9"/>
<path d="M84.853 115.283C81.3931 112.662 76.8809 108.95 72.3686 109.002C71.5792 109.02 70.8041 109.215 70.101 109.575C69.3978 109.934 68.7848 110.447 68.3075 111.076C67.8302 111.705 67.5009 112.433 67.3442 113.207C67.1875 113.981 67.2074 114.78 67.4024 115.545C68.0762 117.873 69.3267 119.993 71.038 121.708C75.4699 126.95 80.4296 131.722 85.8387 135.948C87.2682 136.77 88.9275 137.101 90.5629 136.891C92.1984 136.68 93.7198 135.94 94.8944 134.783C96.0787 133.622 96.838 132.097 97.0499 130.453C97.2618 128.808 96.914 127.141 96.0626 125.718C92.8221 121.742 89.0503 118.231 84.853 115.283Z" fill="#9A7ED9"/>
<path d="M179.249 106.541C179.633 107.473 180.213 108.312 180.949 109.001C181.686 109.69 182.561 110.214 183.516 110.536C184.472 110.858 185.485 110.972 186.489 110.87C187.492 110.768 188.462 110.451 189.332 109.943C195.028 106.49 193.048 95.6049 191.31 89.1969C189.975 84.3019 185.835 71.3969 178.612 77.4778C175.929 79.7384 176.134 83.6366 176.387 86.8228C177.246 98.3906 177.696 103.083 179.249 106.541Z" fill="#9A7ED9"/>
<path d="M63.8478 196.27C64.8561 196.257 65.85 196.028 66.7624 195.599C67.6748 195.169 68.4847 194.55 69.1373 193.781C69.79 193.012 70.2704 192.112 70.546 191.142C70.8217 190.172 70.8864 189.155 70.7356 188.158C69.6319 181.589 58.786 179.406 52.1894 178.653C47.1476 178.084 33.626 177.162 36.6072 186.121C37.7161 189.449 41.414 190.7 44.4683 191.642C55.5345 195.119 60.0609 196.435 63.8478 196.27Z" fill="#9A7ED9"/>
<path d="M294.081 232.701C298.609 232.385 320.505 232.814 322.022 232.514C327.153 231.504 328.273 223.376 323.518 221.082C321.982 220.341 297.67 220.741 292.704 222.506C291.507 222.856 290.474 223.622 289.792 224.667C289.111 225.711 288.825 226.965 288.986 228.202C289.143 229.443 289.747 230.584 290.685 231.412C291.623 232.24 292.83 232.698 294.081 232.701Z" fill="#9A7ED9"/>
<path d="M268.279 151.014C272.213 148.751 292.093 139.563 293.327 138.63C297.5 135.478 294.952 127.679 289.673 127.694C287.969 127.699 266.278 138.69 262.583 142.448C261.66 143.286 261.066 144.427 260.91 145.664C260.753 146.902 261.044 148.154 261.73 149.196C262.414 150.243 263.456 151.006 264.662 151.34C265.867 151.675 267.153 151.559 268.279 151.014Z" fill="#9A7ED9"/>
<path d="M300.36 296.62C303.395 295.343 306.062 292.362 304.83 288.744C303.021 283.433 284.211 278.616 279.859 278.622C274.296 278.633 273.907 285.965 278.615 287.791C281.774 289.026 296.008 298.449 300.36 296.62Z" fill="#9A7ED9"/>
<path d="M173.208 345.317C173.041 350.345 172.422 356.982 175.135 361.388C177.644 365.468 184.836 366.336 187.096 361.388C189.521 356.081 188.226 350.129 187.412 344.533C186.733 339.861 186.106 334.501 183.578 330.411C181.91 327.708 177.126 327.12 175.613 330.411C173.836 335.173 173.019 340.238 173.208 345.317Z" fill="#9A7ED9"/>
<path d="M101.632 341.016C104.271 338.528 117.685 328.52 117.527 323.992C117.533 323.118 117.307 322.257 116.871 321.498C116.436 320.739 115.807 320.11 115.049 319.674C106.258 315.849 98.1098 326.613 93.286 332.674C92.2093 333.787 91.6132 335.279 91.6262 336.827C91.6392 338.375 92.2602 339.856 93.3554 340.951C94.4505 342.045 95.932 342.666 97.4804 342.678C99.0287 342.69 100.52 342.093 101.632 341.016Z" fill="#9A7ED9"/>
<path d="M48.4546 231.381C52.4596 229.528 50.7086 224.105 47.3421 222.85C41.0925 222.089 34.7854 221.914 28.5031 222.325C27.1429 222.701 25.967 223.561 25.1966 224.743C24.4262 225.925 24.1144 227.348 24.3201 228.744C24.5199 230.132 25.2066 231.403 26.2574 232.331C27.3082 233.258 28.6546 233.782 30.0561 233.808C36.2457 233.512 42.3999 232.7 48.4546 231.381Z" fill="#9A7ED9"/>
<path d="M156.436 26.9504C166.647 33.4029 189.867 28.7904 203.911 27.4532C213.576 26.5321 214.998 13.3467 213.868 9.94468C212.855 6.37348 210.522 3.32122 207.342 1.40735C203.731 -0.492797 183.04 1.40735 179.839 1.57645C172.18 1.9992 163.322 1.11365 156.436 4.86278C147.71 9.59535 148.591 21.9819 156.436 26.9504Z" fill="#9A7ED9"/>
</svg>
