<svg width="108" height="127" viewBox="0 0 108 127" fill="none" xmlns="http://www.w3.org/2000/svg">
<path fill-rule="evenodd" clip-rule="evenodd" d="M17.5732 16.7495C17.7606 17.8794 18.8172 18.6337 19.9457 18.4595C33.2869 16.6286 44.3427 18.8075 52.8348 24.8462C61.103 30.7273 66.7964 40.32 69.7902 53.2901C70.4763 56.1448 70.9356 61.3827 70.6373 66.9546C66.416 68.4181 62.4845 70.9289 59.342 73.8177C54.7022 78.0854 52.0842 83.21 52.0756 86.6863C52.0714 88.6116 52.6871 90.2419 53.83 91.5671C55.2948 93.2608 57.9566 94.6406 62.405 94.3113C68.5534 93.8418 72.8379 89.8975 75.4052 83.9918C76.752 80.8852 77.5851 77.2024 78.0416 73.4126C80.7962 73.291 83.5491 74.0652 85.9754 76.2758C91.1389 80.9174 91.9855 88.5503 91.0341 96.1123C90.2175 102.659 88.3073 111.817 83.4955 116.695C81.8614 118.354 79.882 119.36 80.31 122C80.9474 126.067 84.8778 125.201 87.1258 122.926C91.9523 118.036 94.8135 109.995 96.5719 103.522C99.8174 91.6167 99.272 78.3854 91.1304 70.6855C87.2995 67.0951 82.9101 65.6119 78.4997 65.5841C78.5297 59.7697 77.8643 54.4564 77.0733 51.4568C73.0449 36.7718 65.9631 26.1488 56.1996 19.8678C46.4492 13.5883 34.0254 11.5716 19.2833 14.3769C18.1533 14.5644 17.3858 15.6195 17.5732 16.7495ZM69.0844 77.1542C68.54 79.1291 67.826 80.9389 66.8874 82.4707C65.6908 84.4164 64.0924 85.8646 61.7742 86.0326C61.3837 86.058 60.8817 86.125 60.4912 86.1503C60.774 85.3779 61.3735 83.8903 62.1264 82.847C63.8176 80.526 66.3574 78.1481 69.2906 76.3469C69.2332 76.6351 69.1655 76.8953 69.0844 77.1542Z" fill="#4D2C5E"/>
<path fill-rule="evenodd" clip-rule="evenodd" d="M60.1418 86.166C60.0438 85.9547 59.9282 85.7816 59.8465 85.9203C59.7473 86.0973 59.8755 86.1511 60.1418 86.166Z" fill="#4D2C5E"/>
<path fill-rule="evenodd" clip-rule="evenodd" d="M24.8437 16.4267C26.8518 15.2762 28.9136 13.9976 30.7019 12.6498C33.4809 10.538 35.6293 8.31914 36.2736 6.03386C36.7195 4.98463 36.2204 3.76799 35.1697 3.33528C34.1205 2.88934 32.9039 3.38854 32.4712 4.43917C32.1929 4.91778 31.7011 5.26669 31.1758 5.67891C29.9482 6.65838 28.2657 7.38884 26.4439 8.17138C24.1178 9.16776 21.5811 10.008 19.3248 10.8513C17.2782 11.6099 15.471 12.3807 14.1657 13.0844C12.109 14.1897 11.0244 15.5856 10.6001 16.5569C10.4926 16.8129 9.93987 21.3815 13.9831 22.3464C15.4313 22.6877 19.1442 23.3634 19.328 23.3963C21.6366 23.6954 25.8926 24.2951 29.435 25.5679C30.556 25.968 31.6227 26.3756 32.4595 26.9327C32.4482 27.0385 32.437 27.1443 32.4389 27.2515C32.4128 28.8803 33.7026 30.2078 35.3301 30.2471C36.191 30.3253 37.709 29.8849 38.359 29.4325C39.6164 28.5498 39.8586 27.2783 39.3312 25.6976C38.6103 23.548 36.6702 21.6699 34.0957 20.0989C31.3813 18.4594 27.8318 17.2527 24.8437 16.4267ZM18.1735 19.9167C17.7354 20.1376 17.4852 20.3517 17.6876 20.5872C17.9135 20.852 18.0708 20.2535 18.1735 19.9167Z" fill="#4D2C5E"/>
</svg>
