<svg width="60" height="60" viewBox="0 0 60 60" fill="none" xmlns="http://www.w3.org/2000/svg">
<path d="M10 35.5625H12.8125L14.25 31.4375H20.75L22.25 35.5625H25L18.9375 19.4375H16.0625L10 35.5625ZM15.0625 29.125L17.4375 22.4375H17.5625L19.9375 29.125H15.0625ZM35 24.75V20.5C36.375 19.9167 37.7812 19.4792 39.2188 19.1875C40.6562 18.8958 42.1667 18.75 43.75 18.75C44.8333 18.75 45.8958 18.8333 46.9375 19C47.9792 19.1667 49 19.375 50 19.625V23.625C49 23.25 47.9896 22.9688 46.9688 22.7812C45.9479 22.5938 44.875 22.5 43.75 22.5C42.1667 22.5 40.6458 22.6979 39.1875 23.0938C37.7292 23.4896 36.3333 24.0417 35 24.75ZM35 38.5V34.25C36.375 33.6667 37.7812 33.2292 39.2188 32.9375C40.6562 32.6458 42.1667 32.5 43.75 32.5C44.8333 32.5 45.8958 32.5833 46.9375 32.75C47.9792 32.9167 49 33.125 50 33.375V37.375C49 37 47.9896 36.7188 46.9688 36.5312C45.9479 36.3438 44.875 36.25 43.75 36.25C42.1667 36.25 40.6458 36.4375 39.1875 36.8125C37.7292 37.1875 36.3333 37.75 35 38.5ZM35 31.625V27.375C36.375 26.7917 37.7812 26.3542 39.2188 26.0625C40.6562 25.7708 42.1667 25.625 43.75 25.625C44.8333 25.625 45.8958 25.7083 46.9375 25.875C47.9792 26.0417 49 26.25 50 26.5V30.5C49 30.125 47.9896 29.8438 46.9688 29.6562C45.9479 29.4688 44.875 29.375 43.75 29.375C42.1667 29.375 40.6458 29.5729 39.1875 29.9688C37.7292 30.3646 36.3333 30.9167 35 31.625ZM16.25 40C18.2083 40 20.1146 40.2188 21.9688 40.6562C23.8229 41.0938 25.6667 41.75 27.5 42.625V18C25.7917 17 23.9792 16.25 22.0625 15.75C20.1458 15.25 18.2083 15 16.25 15C14.75 15 13.2604 15.1458 11.7812 15.4375C10.3021 15.7292 8.875 16.1667 7.5 16.75V41.5C8.95833 41 10.4062 40.625 11.8438 40.375C13.2812 40.125 14.75 40 16.25 40ZM32.5 42.625C34.3333 41.75 36.1771 41.0938 38.0312 40.6562C39.8854 40.2188 41.7917 40 43.75 40C45.25 40 46.7188 40.125 48.1562 40.375C49.5938 40.625 51.0417 41 52.5 41.5V16.75C51.125 16.1667 49.6979 15.7292 48.2188 15.4375C46.7396 15.1458 45.25 15 43.75 15C41.7917 15 39.8542 15.25 37.9375 15.75C36.0208 16.25 34.2083 17 32.5 18V42.625ZM30 50C28 48.4167 25.8333 47.1875 23.5 46.3125C21.1667 45.4375 18.75 45 16.25 45C14.5 45 12.7812 45.2292 11.0938 45.6875C9.40625 46.1458 7.79167 46.7917 6.25 47.625C5.375 48.0833 4.53125 48.0625 3.71875 47.5625C2.90625 47.0625 2.5 46.3333 2.5 45.375V15.25C2.5 14.7917 2.61458 14.3542 2.84375 13.9375C3.07292 13.5208 3.41667 13.2083 3.875 13C5.79167 12 7.79167 11.25 9.875 10.75C11.9583 10.25 14.0833 10 16.25 10C18.6667 10 21.0312 10.3125 23.3438 10.9375C25.6562 11.5625 27.875 12.5 30 13.75C32.125 12.5 34.3438 11.5625 36.6562 10.9375C38.9688 10.3125 41.3333 10 43.75 10C45.9167 10 48.0417 10.25 50.125 10.75C52.2083 11.25 54.2083 12 56.125 13C56.5833 13.2083 56.9271 13.5208 57.1562 13.9375C57.3854 14.3542 57.5 14.7917 57.5 15.25V45.375C57.5 46.3333 57.0938 47.0625 56.2812 47.5625C55.4688 48.0625 54.625 48.0833 53.75 47.625C52.2083 46.7917 50.5938 46.1458 48.9062 45.6875C47.2188 45.2292 45.5 45 43.75 45C41.25 45 38.8333 45.4375 36.5 46.3125C34.1667 47.1875 32 48.4167 30 50Z" fill="#9A7ED9"/>
</svg>
