<svg width="63" height="63" viewBox="0 0 63 63" fill="none" xmlns="http://www.w3.org/2000/svg">
<path d="M10.5 36.75V31.5H28.875V36.75H10.5ZM10.5 26.25V21H39.375V26.25H10.5ZM10.5 15.75V10.5H39.375V15.75H10.5ZM34.125 52.5V44.4281L48.6281 29.9906C49.0219 29.5969 49.4594 29.3125 49.9406 29.1375C50.4219 28.9625 50.9031 28.875 51.3844 28.875C51.9094 28.875 52.4125 28.9734 52.8937 29.1703C53.375 29.3672 53.8125 29.6625 54.2062 30.0562L56.6344 32.4844C56.9844 32.8781 57.2578 33.3156 57.4547 33.7969C57.6516 34.2781 57.75 34.7594 57.75 35.2406C57.75 35.7219 57.6625 36.2141 57.4875 36.7172C57.3125 37.2203 57.0281 37.6687 56.6344 38.0625L42.1969 52.5H34.125ZM38.0625 48.5625H40.5562L48.4969 40.5562L47.3156 39.3094L46.0687 38.1281L38.0625 46.0687V48.5625ZM47.3156 39.3094L46.0687 38.1281L48.4969 40.5562L47.3156 39.3094Z" fill="#9A7ED9"/>
</svg>
