<svg width="165" height="148" viewBox="0 0 165 148" fill="none" xmlns="http://www.w3.org/2000/svg">
<path fill-rule="evenodd" clip-rule="evenodd" d="M46.2597 134.362C47.4307 133.652 47.7988 132.145 47.1043 130.969C39.148 116.974 36.6574 103.734 39.5895 91.6269C42.4461 79.838 50.5658 69.2588 63.633 60.1766C66.4971 58.1475 72.1071 55.3118 78.4243 53.1688C81.9232 57.2046 86.4558 60.4536 91.0577 62.6589C97.855 65.9142 104.706 66.5445 108.568 65.0105C110.707 64.1602 112.243 62.753 113.207 60.8959C114.436 58.5178 114.786 54.9506 112.445 50.1592C109.194 43.5431 102.913 40.5387 95.2182 40.3114C91.1718 40.1959 86.7141 40.9066 82.3048 42.0826C80.9467 39.0791 80.5836 35.6796 81.96 32.0048C84.8193 24.2124 92.9158 19.8835 101.732 17.5816C109.361 15.5812 120.375 13.6348 127.926 16.8098C130.493 17.8873 132.489 19.6375 135.229 17.9901C139.46 15.4768 136.754 11.4986 133.23 10.0136C125.659 6.82758 115.463 7.22211 107.498 8.14468C92.8418 9.82859 78.3975 16.3091 73.4658 28.7651C71.1816 34.6116 71.4843 40.1424 73.4119 45.0502C66.9446 47.5988 61.3424 50.6965 58.3641 52.9065C43.8528 63.8987 35.2059 76.4763 32.5695 90.1027C29.9289 103.714 33.2069 118.4 42.8669 133.517C43.5766 134.688 45.0887 135.072 46.2597 134.362ZM90.4352 50.3635C92.869 50.0908 95.1949 50.0798 97.312 50.4415C100.003 50.9057 102.32 52.0369 103.536 54.5354C103.738 54.9576 104.035 55.485 104.236 55.9073C103.254 55.9364 101.336 55.9314 99.8437 55.559C96.5165 54.7124 92.7492 52.9491 89.4476 50.4931C89.7929 50.4288 90.1119 50.3885 90.4352 50.3635Z" fill="#97CC64"/>
<path fill-rule="evenodd" clip-rule="evenodd" d="M104.409 56.288C104.219 56.4904 104.078 56.6951 104.268 56.7242C104.508 56.7557 104.511 56.5897 104.409 56.288Z" fill="#97CC64"/>
<path fill-rule="evenodd" clip-rule="evenodd" d="M42.6733 126.435C40.5045 124.717 38.1697 122.997 35.8796 121.61C32.3017 119.463 28.8847 118.064 26.0621 118.363C24.6994 118.334 23.5706 119.428 23.5568 120.787C23.5277 122.149 24.6221 123.278 25.9804 123.292C26.6352 123.388 27.2409 123.779 27.9317 124.179C29.5639 125.107 31.1219 126.65 32.7994 128.325C34.9382 130.464 36.9973 132.907 38.9352 135.037C40.6861 136.972 42.344 138.636 43.7047 139.772C45.8448 141.564 47.8759 142.148 49.1424 142.188C49.4743 142.193 54.7908 140.778 54.0665 135.862C53.8023 134.103 52.9036 129.682 52.8586 129.463C52.1654 126.768 50.9413 121.777 50.7811 117.28C50.7274 115.858 50.7063 114.493 50.9531 113.317C51.0755 113.283 51.1979 113.248 51.316 113.198C53.1356 112.504 54.0364 110.483 53.3574 108.659C53.0619 107.669 51.899 106.179 51.1082 105.659C49.5701 104.655 48.0512 104.951 46.5308 106.238C44.4649 107.993 43.2418 110.98 42.6411 114.535C42.0266 118.276 42.2633 122.752 42.6733 126.435ZM49.5089 132.29C49.9486 132.678 50.2974 132.86 50.4689 132.531C50.6625 132.163 49.9283 132.254 49.5089 132.29Z" fill="#97CC64"/>
</svg>
