<svg width="58" height="58" viewBox="0 0 58 58" fill="none" xmlns="http://www.w3.org/2000/svg">
<path d="M41.0833 53.1667C38.5861 53.1667 36.542 52.5424 34.951 51.2937C33.3601 50.0451 32.1417 48.2125 31.2958 45.7958C30.6111 43.7819 29.9566 42.3722 29.3323 41.5667C28.708 40.7611 27.2681 39.4722 25.0125 37.7C22.5153 35.6861 20.5417 33.4104 19.0917 30.8729C17.6417 28.3354 16.9167 25.2944 16.9167 21.75C16.9167 16.9569 18.5378 12.9392 21.7802 9.69687C25.0226 6.45451 29.0403 4.83333 33.8333 4.83333C38.6264 4.83333 42.6441 6.45451 45.8865 9.69687C49.1288 12.9392 50.75 16.9569 50.75 21.75H45.9167C45.9167 18.3264 44.7587 15.4566 42.4427 13.1406C40.1267 10.8246 37.2569 9.66666 33.8333 9.66666C30.4097 9.66666 27.5399 10.8246 25.224 13.1406C22.908 15.4566 21.75 18.3264 21.75 21.75C21.75 24.4889 22.2937 26.825 23.3813 28.7583C24.4688 30.6917 26.0194 32.4236 28.0333 33.9542C30.1278 35.4847 31.759 36.975 32.9271 38.425C34.0951 39.875 34.9611 41.4458 35.525 43.1375C36.0889 44.9097 36.7635 46.2187 37.549 47.0646C38.3344 47.9104 39.5125 48.3333 41.0833 48.3333C42.4125 48.3333 43.5503 47.8601 44.4969 46.9135C45.4434 45.967 45.9167 44.8292 45.9167 43.5H50.75C50.75 46.1583 49.8035 48.434 47.9104 50.3271C46.0174 52.2201 43.7417 53.1667 41.0833 53.1667ZM14.9833 40.4792C12.6069 38.0625 10.724 35.2531 9.33437 32.051C7.94479 28.849 7.25 25.4153 7.25 21.75C7.25 18.0444 7.94479 14.5806 9.33437 11.3583C10.724 8.13611 12.6069 5.31666 14.9833 2.89999L18.4875 6.28333C16.4736 8.29722 14.9028 10.6233 13.775 13.2615C12.6472 15.8996 12.0833 18.7292 12.0833 21.75C12.0833 24.7306 12.6472 27.5299 13.775 30.1479C14.9028 32.766 16.4736 35.0819 18.4875 37.0958L14.9833 40.4792ZM33.8333 27.7917C32.1417 27.7917 30.7118 27.1976 29.5437 26.0094C28.3757 24.8212 27.7917 23.4014 27.7917 21.75C27.7917 20.0583 28.3757 18.6285 29.5437 17.4604C30.7118 16.2924 32.1417 15.7083 33.8333 15.7083C35.525 15.7083 36.9549 16.2924 38.1229 17.4604C39.291 18.6285 39.875 20.0583 39.875 21.75C39.875 23.4014 39.291 24.8212 38.1229 26.0094C36.9549 27.1976 35.525 27.7917 33.8333 27.7917Z" fill="#9A7ED9"/>
</svg>
