<svg width="64" height="64" viewBox="0 0 64 64" fill="none" xmlns="http://www.w3.org/2000/svg">
<path d="M32.0002 37.3333C29.7779 37.3333 27.8891 36.5556 26.3335 35C24.7779 33.4444 24.0002 31.5556 24.0002 29.3333V13.3333C24.0002 11.1111 24.7779 9.22222 26.3335 7.66667C27.8891 6.11111 29.7779 5.33333 32.0002 5.33333C34.2224 5.33333 36.1113 6.11111 37.6668 7.66667C39.2224 9.22222 40.0002 11.1111 40.0002 13.3333V29.3333C40.0002 31.5556 39.2224 33.4444 37.6668 35C36.1113 36.5556 34.2224 37.3333 32.0002 37.3333ZM29.3335 56V47.8C24.7113 47.1778 20.8891 45.1111 17.8668 41.6C14.8446 38.0889 13.3335 34 13.3335 29.3333H18.6668C18.6668 33.0222 19.9668 36.1667 22.5668 38.7667C25.1668 41.3667 28.3113 42.6667 32.0002 42.6667C35.6891 42.6667 38.8335 41.3667 41.4335 38.7667C44.0335 36.1667 45.3335 33.0222 45.3335 29.3333H50.6668C50.6668 34 49.1557 38.0889 46.1335 41.6C43.1113 45.1111 39.2891 47.1778 34.6668 47.8V56H29.3335ZM32.0002 32C32.7557 32 33.389 31.7444 33.9002 31.2333C34.4113 30.7222 34.6668 30.0889 34.6668 29.3333V13.3333C34.6668 12.5778 34.4113 11.9444 33.9002 11.4333C33.389 10.9222 32.7557 10.6667 32.0002 10.6667C31.2446 10.6667 30.6113 10.9222 30.1002 11.4333C29.5891 11.9444 29.3335 12.5778 29.3335 13.3333V29.3333C29.3335 30.0889 29.5891 30.7222 30.1002 31.2333C30.6113 31.7444 31.2446 32 32.0002 32Z" fill="#9A7ED9"/>
</svg>
