<svg width="35" height="26" viewBox="0 0 35 26" fill="none" xmlns="http://www.w3.org/2000/svg">
<path fill-rule="evenodd" clip-rule="evenodd" d="M22.4611 24.745C26.0219 23.2259 29.3391 21.2006 32.3076 18.733C33.4891 17.7107 35.1384 16.7858 34.9907 14.5952C34.5723 9.16735 20.7134 -2.68623 16.7502 0.550992C14.8793 2.08441 19.0149 8.19375 20.6641 9.80019C17.981 10.0679 2.42358 11.5527 0.478901 12.2342C0.334698 12.3025 0.220234 12.4199 0.156494 12.5649C0.0927544 12.7099 0.0840149 12.8728 0.131878 13.0236C0.179741 13.1745 0.280994 13.3032 0.417076 13.3862C0.553158 13.4692 0.714939 13.5009 0.872757 13.4755C3.16206 12.7697 20.7626 11.8204 22.2888 11.6014C23.815 11.3823 23.7412 9.72717 22.4365 8.70489C20.6604 6.89019 19.3223 4.70179 18.5225 2.30347C19.0904 2.34605 19.6434 2.50345 20.1472 2.76593C24.1596 4.46973 34.4492 13.0618 32.0368 15.6661C28.2511 19.1068 23.8746 21.8516 19.1133 23.7714C20.4426 20.6315 24.0365 17.8324 24.0365 16.6154C23.9831 16.3298 23.826 16.0733 23.5949 15.894C23.3638 15.7148 23.0744 15.6251 22.7811 15.6418C19.6549 15.9582 24.9473 16.3233 0.626595 13.8163C0.450768 13.8479 0.29174 13.9395 0.177231 14.0752C0.0627251 14.2109 0 14.382 0 14.5587C0 14.7354 0.0627251 14.9065 0.177231 15.0421C0.29174 15.1778 0.450768 15.2694 0.626595 15.301C0.454285 15.301 15.9378 18.2218 20.7872 17.735C19.3841 19.3902 16.9471 21.7268 16.8733 24.4042C16.8733 25.5725 17.7102 26.3514 19.6303 25.8403C20.5945 25.5297 21.5397 25.1639 22.4611 24.745Z" fill="black"/>
</svg>
