<svg width="24" height="24" viewBox="0 0 24 24" fill="none" xmlns="http://www.w3.org/2000/svg">
<g clip-path="url(#clip0_607_997)">
<path fill-rule="evenodd" clip-rule="evenodd" d="M18.1693 9.432C14.3405 8.73939 10.4361 8.56249 6.56035 8.906C2.45935 9.322 0.649349 10.03 0.259349 13.462C-0.426651 19.538 -0.104651 22.866 5.67035 23.03C10.0003 23.385 14.3533 23.345 18.6753 22.91C22.6713 22.292 24.0783 21.244 23.9973 16.876C23.8913 12.04 22.3764 10.193 18.1693 9.432ZM22.9383 16.884C22.9163 22.085 21.1143 22.189 5.70835 21.71C2.00735 21.598 1.60935 20.183 1.43335 18.58C1.26935 17.118 1.24735 12.455 2.31235 11.435C4.28035 9.526 13.3163 9.695 17.8923 10.198C21.7853 10.626 22.9613 12.613 22.9383 16.884Z" fill="black"/>
<path fill-rule="evenodd" clip-rule="evenodd" d="M6.18929 12.736C6.57429 12.91 6.99129 13.001 7.41329 13.004C7.82629 13.007 8.61329 12.949 8.92129 12.615C8.9948 12.5355 9.03564 12.4313 9.03564 12.323C9.03564 12.2147 8.9948 12.1105 8.92129 12.031C8.40529 11.472 6.80829 11.563 6.19729 11.895C5.62529 12.205 5.80529 12.562 6.19029 12.735L6.18929 12.736Z" fill="black"/>
<path fill-rule="evenodd" clip-rule="evenodd" d="M3.98073 15.836C4.36473 16.011 4.78173 16.103 5.20373 16.106C5.61873 16.109 6.41373 16.046 6.73273 15.727C6.7724 15.6873 6.80387 15.6403 6.82534 15.5884C6.84681 15.5366 6.85787 15.4811 6.85787 15.425C6.85787 15.3689 6.84681 15.3134 6.82534 15.2616C6.80387 15.2097 6.7724 15.1627 6.73273 15.123C6.22873 14.619 4.77873 14.683 4.16873 14.913C3.41073 15.199 3.59673 15.661 3.98073 15.836Z" fill="black"/>
<path fill-rule="evenodd" clip-rule="evenodd" d="M11.8057 13.011C12.2107 13.019 12.9857 12.971 13.3047 12.671C13.3871 12.5935 13.4354 12.4865 13.4389 12.3734C13.4425 12.2604 13.4011 12.1505 13.3237 12.068C13.0177 11.741 12.2307 11.661 11.8207 11.661C11.4167 11.661 10.6537 11.733 10.3597 12.068C10.2934 12.1433 10.2571 12.2404 10.2578 12.3408C10.2586 12.4411 10.2963 12.5377 10.3637 12.612C10.6567 12.936 11.4077 13.004 11.8057 13.012V13.011Z" fill="black"/>
<path fill-rule="evenodd" clip-rule="evenodd" d="M9.59483 16.11C9.99883 16.117 10.7748 16.072 11.0938 15.772C11.1763 15.6943 11.2246 15.5871 11.2281 15.4739C11.2317 15.3607 11.1902 15.2507 11.1128 15.168C10.8068 14.842 10.0198 14.762 9.60983 14.762C9.20583 14.762 8.44283 14.834 8.14883 15.169C8.08261 15.2441 8.04633 15.3409 8.04688 15.4411C8.04743 15.5412 8.08479 15.6376 8.15183 15.712C8.44583 16.036 9.19683 16.102 9.59483 16.11Z" fill="black"/>
<path fill-rule="evenodd" clip-rule="evenodd" d="M18.819 16.353C19.222 16.361 19.986 16.316 20.297 16.005C20.3733 15.9285 20.4179 15.8259 20.4216 15.7179C20.4253 15.6099 20.3879 15.5045 20.317 15.423C20.022 15.082 19.244 15.005 18.835 15.005C18.429 15.005 17.663 15.08 17.365 15.41C17.2964 15.4855 17.2589 15.584 17.2598 15.686C17.2607 15.7879 17.3001 15.8858 17.37 15.96C17.669 16.276 18.419 16.346 18.819 16.353Z" fill="black"/>
<path fill-rule="evenodd" clip-rule="evenodd" d="M16.1916 13.27C16.5836 13.3 17.3336 13.285 17.6586 13.01C17.7015 12.9738 17.7367 12.9294 17.7624 12.8796C17.7881 12.8297 17.8037 12.7753 17.8084 12.7194C17.813 12.6635 17.8066 12.6072 17.7895 12.5538C17.7724 12.5003 17.7449 12.4508 17.7086 12.408C17.4286 12.078 16.6786 11.947 16.2796 11.924C15.8856 11.903 15.1456 11.945 14.8376 12.245C14.7638 12.3168 14.7201 12.414 14.7153 12.5169C14.7105 12.6197 14.7449 12.7206 14.8116 12.799C15.0846 13.12 15.8036 13.241 16.1916 13.27Z" fill="black"/>
<path fill-rule="evenodd" clip-rule="evenodd" d="M13.9792 16.298C14.3722 16.328 15.1232 16.313 15.4482 16.038C15.5345 15.9647 15.5882 15.8602 15.5975 15.7473C15.6069 15.6345 15.5712 15.5226 15.4982 15.436C15.2182 15.106 14.4682 14.974 14.0692 14.952C13.6752 14.93 12.9352 14.973 12.6262 15.272C12.5519 15.3434 12.5077 15.4405 12.5025 15.5435C12.4973 15.6464 12.5315 15.7474 12.5982 15.826C12.8712 16.148 13.5922 16.268 13.9802 16.298H13.9792Z" fill="black"/>
<path fill-rule="evenodd" clip-rule="evenodd" d="M7.39835 19.412C10.4003 19.752 13.4303 19.761 16.4343 19.44C16.5477 19.44 16.6565 19.395 16.7366 19.3148C16.8168 19.2346 16.8618 19.1259 16.8618 19.0125C16.8618 18.8991 16.8168 18.7904 16.7366 18.7102C16.6565 18.63 16.5477 18.585 16.4343 18.585C13.4288 18.2305 10.3916 18.2359 7.38735 18.601C7.28324 18.6073 7.18555 18.6534 7.11453 18.7298C7.0435 18.8062 7.0046 18.907 7.00589 19.0113C7.00718 19.1156 7.04855 19.2154 7.12143 19.29C7.19431 19.3646 7.29311 19.4083 7.39735 19.412H7.39835Z" fill="black"/>
<path fill-rule="evenodd" clip-rule="evenodd" d="M8.43819 5.452C9.75956 4.49463 11.0077 3.44004 12.1722 2.297C15.9282 5.563 15.8982 5.724 16.2762 5.357C16.316 5.31733 16.3476 5.27019 16.3692 5.21828C16.3907 5.16637 16.4018 5.11071 16.4018 5.0545C16.4018 4.99829 16.3907 4.94264 16.3692 4.89072C16.3476 4.83881 16.316 4.79167 16.2762 4.752C15.1733 3.34407 13.9314 2.05087 12.5692 0.892C11.8492 0.29 11.2302 1.32 7.88919 4.85C7.81402 4.92408 7.77048 5.02441 7.76772 5.12991C7.76495 5.23541 7.80318 5.33788 7.87436 5.41579C7.94555 5.49371 8.04416 5.54101 8.14948 5.54776C8.2548 5.55451 8.35764 5.52019 8.43819 5.452Z" fill="black"/>
</g>
<defs>
<clipPath id="clip0_607_997">
<rect width="24" height="24" fill="white"/>
</clipPath>
</defs>
</svg>
