<svg width="24" height="24" viewBox="0 0 24 24" fill="none" xmlns="http://www.w3.org/2000/svg">
<g clip-path="url(#clip0_607_1008)">
<path fill-rule="evenodd" clip-rule="evenodd" d="M22.9986 0.679999C22.4656 0.277674 21.8047 0.0822651 21.1386 0.129999C20.8969 0.156725 20.6607 0.220822 20.4386 0.319999C20.144 0.4844 19.8717 0.686058 19.6286 0.919999C19.5956 0.951722 19.5694 0.989771 19.5515 1.03187C19.5336 1.07397 19.5244 1.11925 19.5244 1.165C19.5244 1.21075 19.5336 1.25603 19.5515 1.29813C19.5694 1.34023 19.5956 1.37828 19.6286 1.41C19.6595 1.44269 19.6967 1.46873 19.7379 1.48653C19.7792 1.50432 19.8237 1.5135 19.8686 1.5135C19.9136 1.5135 19.958 1.50432 19.9993 1.48653C20.0406 1.46873 20.0778 1.44269 20.1086 1.41C20.2733 1.25853 20.4506 1.12137 20.6386 0.999999C20.8175 0.902368 21.0153 0.844388 21.2186 0.829999C21.6859 0.829086 22.1388 0.991837 22.4986 1.29C22.6808 1.40524 22.8341 1.56072 22.9468 1.74448C23.0595 1.92824 23.1285 2.13538 23.1486 2.35C23.1522 2.69684 23.0734 3.03958 22.9186 3.35C22.7573 3.66727 22.5519 3.96017 22.3086 4.22L21.0986 5.58C20.7986 5.26 20.4886 4.94 20.1586 4.64C19.9986 4.49 19.8286 4.36 19.6686 4.22L19.3386 4L18.4986 3.51L18.3386 3.39L18.6086 3L19.2886 2.15C19.3126 2.11729 19.3294 2.07992 19.338 2.0403C19.3466 2.00068 19.3468 1.9597 19.3386 1.92C19.3386 1.77 19.1886 1.54 18.8886 1.72C18.5986 1.5 18.3486 1.24 18.0686 1.02C17.8984 0.892258 17.7138 0.784862 17.5186 0.699999C17.3602 0.633986 17.1903 0.599999 17.0186 0.599999C16.847 0.599999 16.677 0.633986 16.5186 0.699999C16.2116 0.850866 15.9285 1.04631 15.6786 1.28C15.3488 1.57309 15.0382 1.88707 14.7486 2.22C14.3484 2.7248 13.9778 3.25235 13.6386 3.8C13.5745 3.86542 13.5386 3.95339 13.5386 4.045C13.5386 4.13661 13.5745 4.22457 13.6386 4.29C13.7023 4.35351 13.7886 4.38917 13.8786 4.38917C13.9686 4.38917 14.0549 4.35351 14.1186 4.29C14.4186 3.98 14.7286 3.7 15.0286 3.42C15.4759 2.99717 15.9466 2.59988 16.4386 2.23C16.5786 2.11 16.7486 1.96 16.9286 1.83C17.1086 1.7 17.0886 1.67 17.1986 1.69C17.3286 1.70921 17.456 1.74274 17.5786 1.79C17.8586 1.92 18.1286 2.09 18.4086 2.23L18.0586 2.64C16.6686 4.27 13.6186 7.84 12.3686 9.46C12.0852 9.78666 11.8648 10.163 11.7186 10.57C11.7186 10.85 11.5886 12.86 11.6086 13.68C11.5969 13.7797 11.5969 13.8803 11.6086 13.98C11.4553 14.0735 11.3083 14.1771 11.1686 14.29C11.0812 14.3658 11.0008 14.4495 10.9286 14.54C10.8596 14.6293 10.7961 14.7229 10.7386 14.82C10.1886 15.72 10.3086 15.82 10.3186 15.82C10.3325 15.8965 10.3755 15.9646 10.4386 16.01C10.4961 16.0633 10.5703 16.0951 10.6486 16.1C10.6486 16.1 10.7986 16.19 11.5886 15.49C11.6783 15.4203 11.759 15.3397 11.8286 15.25C11.9048 15.1675 11.9719 15.0769 12.0286 14.98C12.1056 14.8486 12.1725 14.7115 12.2286 14.57C12.4501 14.6108 12.6771 14.6108 12.8986 14.57C13.7625 14.3698 14.6113 14.1091 15.4386 13.79C15.6036 13.7257 15.7485 13.6187 15.8586 13.48C16.1086 13.21 16.5986 12.64 17.2086 11.89C18.9686 9.73 21.7786 6.12 22.9086 4.81C23.1996 4.47936 23.442 4.10898 23.6286 3.71C23.8496 3.29621 23.9759 2.83854 23.9986 2.37C23.967 2.03196 23.8609 1.70511 23.688 1.41291C23.5151 1.12072 23.2797 0.870425 22.9986 0.679999ZM15.2386 12.53L15.0486 12.73C14.3177 13.0328 13.5614 13.2704 12.7886 13.44V10.71C12.8786 10.71 12.1686 11.2 17.8786 3.92L18.0086 4.05L18.5486 4.7C18.8102 5.01795 19.109 5.30333 19.4386 5.55C19.7971 5.78838 20.1713 6.00221 20.5586 6.19C19.7086 7.19 18.7286 8.33 17.8286 9.41C16.7286 10.76 15.7286 12 15.2386 12.53Z" fill="black"/>
<path fill-rule="evenodd" clip-rule="evenodd" d="M18.6295 17.53L17.9295 15.93C17.9212 15.8863 17.9036 15.8449 17.8779 15.8086C17.8522 15.7723 17.819 15.7419 17.7805 15.7196C17.742 15.6973 17.6992 15.6835 17.6549 15.6792C17.6106 15.6749 17.5659 15.6802 17.5239 15.6947C17.4818 15.7092 17.4434 15.7325 17.4111 15.7632C17.3789 15.7939 17.3537 15.8312 17.3371 15.8725C17.3206 15.9138 17.3131 15.9581 17.3153 16.0026C17.3174 16.047 17.3291 16.0905 17.3495 16.13L18.0395 17.83C18.5795 18.91 19.0395 19.46 19.2595 19.9C19.4008 20.119 19.451 20.3845 19.3995 20.64C19.3995 20.69 19.2995 20.7 19.1995 20.76C18.8506 20.9452 18.4815 21.0895 18.0995 21.19C15.7717 21.8013 13.3967 22.2161 10.9995 22.43C8.62863 22.7299 6.23513 22.8102 3.84949 22.67C3.51196 22.6417 3.17743 22.5848 2.84949 22.5C2.75295 22.4639 2.65934 22.4205 2.56949 22.37C2.4523 22.1602 2.34875 21.9431 2.25949 21.72C2.16248 21.5121 2.0887 21.2941 2.03949 21.07C1.55521 18.3091 1.24791 15.5201 1.11949 12.72C0.912284 10.0307 0.912284 7.32935 1.11949 4.64C2.04949 4.42 3.30949 4.21 4.71949 4.03C6.60949 3.79 8.71949 3.62 10.7195 3.55C10.765 3.55002 10.81 3.54091 10.852 3.5232C10.8939 3.50549 10.9318 3.47955 10.9635 3.44691C10.9952 3.41427 11.0201 3.3756 11.0365 3.33319C11.053 3.29077 11.0608 3.24548 11.0595 3.2C11.0569 3.10892 11.0189 3.02244 10.9535 2.95895C10.8882 2.89546 10.8006 2.85996 10.7095 2.86C8.70949 2.86 6.57949 3.02 4.65949 3.21C3.31549 3.33583 1.97991 3.5395 0.659494 3.82C0.573045 3.84206 0.494876 3.88878 0.434508 3.95447C0.374141 4.02017 0.33418 4.102 0.319494 4.19C-0.0174804 7.04044 -0.0944643 9.91562 0.0894941 12.78C0.197879 15.6375 0.501924 18.4841 0.999494 21.3C1.05864 21.5441 1.1321 21.7845 1.21949 22.02C1.35467 22.3419 1.50826 22.6557 1.67949 22.96C1.8969 23.2098 2.16383 23.4116 2.46336 23.5528C2.76289 23.6939 3.08848 23.7713 3.41949 23.78C5.39845 23.9491 7.38983 23.9056 9.35949 23.65C12.6772 23.3714 15.9501 22.7 19.1095 21.65C19.7895 21.36 20.1095 21.01 20.1795 20.74C20.2397 20.4526 20.2154 20.1539 20.1095 19.88C19.8695 19.39 19.3395 18.88 18.6295 17.53Z" fill="black"/>
<path fill-rule="evenodd" clip-rule="evenodd" d="M9.66959 11.63C9.63944 11.5342 9.57436 11.4533 9.48729 11.4033C9.40022 11.3532 9.29752 11.3378 9.19959 11.36C9.11959 11.36 9.19959 11.28 8.84959 11.36C8.07959 11.45 6.84959 11.66 5.78959 11.81C5.46959 11.86 5.15959 11.9 4.87959 11.96C4.22959 12.08 3.73959 12.22 3.54959 12.24C3.48563 12.2522 3.42794 12.2864 3.38645 12.3366C3.34496 12.3868 3.32227 12.4499 3.32227 12.515C3.32227 12.5801 3.34496 12.6432 3.38645 12.6934C3.42794 12.7436 3.48563 12.7777 3.54959 12.79C4.04883 12.8692 4.55426 12.9027 5.05959 12.89C5.50959 12.89 6.05959 12.83 6.52959 12.78C7.31702 12.7044 8.09869 12.5774 8.86959 12.4C9.59959 12.16 9.72959 11.85 9.66959 11.63Z" fill="black"/>
<path fill-rule="evenodd" clip-rule="evenodd" d="M5.4486 7.77C4.77104 7.91946 4.10316 8.10981 3.4486 8.34C3.37668 8.35893 3.31478 8.40478 3.27569 8.46805C3.23661 8.53133 3.22333 8.60721 3.2386 8.68C3.25742 8.75145 3.30372 8.81257 3.36741 8.85004C3.43109 8.8875 3.50701 8.89827 3.5786 8.88C4.4686 8.74 5.3286 8.71 6.2286 8.64C7.4686 8.53 8.7586 8.4 10.2286 8.21C10.6086 8.16 11.0086 8.13 11.4086 8.04C11.5365 8.04422 11.6644 8.03076 11.7886 8C11.8486 8 11.8686 7.93 11.9286 7.89C12.0261 7.87283 12.1131 7.81829 12.171 7.73798C12.2289 7.65767 12.2531 7.55793 12.2386 7.46C12.1786 7 11.3786 7 11.2986 7C9.5886 7.12 8.1386 7.33 6.7886 7.51C6.3286 7.61 5.8886 7.67 5.4486 7.77Z" fill="black"/>
<path fill-rule="evenodd" clip-rule="evenodd" d="M8.80856 15.84C8.67856 15.84 8.51856 15.84 8.33856 15.89L7.03856 16.09C6.35856 16.2 5.63856 16.31 5.08856 16.45C4.78372 16.527 4.48328 16.6205 4.18856 16.73H4.12856C4.07965 16.7153 4.02748 16.7153 3.97856 16.73C3.97856 16.73 3.84856 17.22 4.25856 17.26C4.42856 17.26 4.75856 17.32 5.25856 17.32C5.92775 17.2984 6.59534 17.2417 7.25856 17.15C7.74856 17.09 8.25856 17.02 8.58856 16.95C8.73085 16.9271 8.87124 16.8937 9.00856 16.85C9.17959 16.7788 9.33823 16.6809 9.47856 16.56C9.57017 16.511 9.63913 16.4283 9.67086 16.3294C9.70259 16.2305 9.69459 16.1231 9.64856 16.03C9.55856 16 9.51856 15.86 8.80856 15.84Z" fill="black"/>
</g>
<defs>
<clipPath id="clip0_607_1008">
<rect width="24" height="24" fill="white"/>
</clipPath>
</defs>
</svg>
