<svg width="55" height="39" viewBox="0 0 55 39" fill="none" xmlns="http://www.w3.org/2000/svg">
<path d="M26 13.3462C24.3884 12.5852 20.1066 10.3918 19.6046 10.1235C19.4061 10.0236 19.1768 9.98265 18.9502 10.0067C18.7236 10.0308 18.5116 10.1186 18.3452 10.2573C16.2301 11.4213 14.1653 12.6298 12 13.7038C12.1011 13.6592 18.4965 17.5525 19 18C19 18 26 13.3902 26 13.3462ZM22.5251 14.1067C21.5705 14.2121 20.5606 14.1519 19.6046 14.1959C19.6548 14.1959 19.9066 16.3893 19.3529 16.5238C18.9498 16.6136 18.5969 15.8526 18.5467 15.5842C18.4463 15.1367 18.3954 14.644 18.3452 14.1966C17.1309 14.2561 15.913 14.181 14.7197 13.9728C14.4679 13.9289 14.4679 13.5254 15.0718 13.4808C16.1297 13.3469 17.1367 13.1671 18.1946 13.1232C18.1272 12.7232 18.1101 12.3179 18.1436 11.9146C18.1946 11.601 18.4965 11.0197 18.9498 11.1529C19.5035 11.2874 19.5537 13.0779 19.5035 13.0779C20.6618 13.0268 22.1439 12.8328 22.9784 13.0779C23.583 13.3463 23.5852 13.9903 22.5251 14.1067Z" fill="#9A7ED9"/>
<path d="M54.8215 13.5998C53.5087 12.9738 29.3466 3.31257 26.0772 2.07975C26.0772 2.07975 25.8332 1.93797 25.6866 2.03249C25.1987 2.22221 24.7108 2.45918 24.2229 2.69616C24.4017 3.01271 24.5075 3.3633 24.5328 3.72357C24.5581 4.08383 24.5024 4.44514 24.3695 4.78238C24.303 4.90458 24.2052 5.00806 24.0855 5.0828C23.9659 5.15755 23.8283 5.20105 23.6863 5.20907C23.149 5.20907 22.9051 4.82963 22.8564 4.35568C22.8437 4.04696 22.7777 3.7425 22.6611 3.45503C21.1974 4.1187 19.6843 4.82963 18.2192 5.4933C18.4852 5.91485 18.6674 6.38111 18.7564 6.8679C18.778 7.05156 18.7305 7.23659 18.6227 7.3889C18.5148 7.54121 18.354 7.65054 18.1698 7.69675C17.9855 7.74295 17.7903 7.72291 17.62 7.64032C17.4498 7.55774 17.316 7.41818 17.2434 7.24734C17.1073 6.8858 16.9095 6.54913 16.6581 6.25149L11.8263 8.6692C12.3036 9.00618 12.6481 9.49138 12.8028 10.0445C12.8171 10.1684 12.8007 10.2939 12.755 10.4104C12.7093 10.527 12.6357 10.6313 12.5402 10.7147C12.4447 10.798 12.3301 10.8581 12.206 10.8898C12.0818 10.9216 11.9517 10.9241 11.8263 10.8972C11.5209 10.7729 11.2644 10.5569 11.0944 10.2808C10.9971 10.1856 10.2646 9.47465 10.1186 9.5219C9.728 9.71162 5.77537 11.8451 4.16499 12.7457C4.11463 12.7753 4.07299 12.817 4.04409 12.8668C4.01519 12.9166 4 12.9728 4 13.03C4 13.0871 4.01519 13.1433 4.04409 13.1931C4.07299 13.2429 4.11463 13.2846 4.16499 13.3142C4.43926 13.4889 32.8205 31.2635 32.9573 30.997C33.5918 30.5703 53.747 15.3052 54.8695 14.2169C54.9144 14.1765 54.9494 14.1268 54.9718 14.0714C54.9942 14.016 55.0035 13.9565 54.9988 13.8971C54.9942 13.8378 54.9759 13.7803 54.9452 13.7288C54.9145 13.6773 54.8722 13.6332 54.8215 13.5998ZM35.009 14.1683C35.8156 13.4895 38.2601 11.9129 39.451 11.0862C39.6949 10.9444 40.3295 10.8965 40.1342 11.3232C39.9389 11.7972 39.3043 12.0348 38.8651 12.2718C37.7022 13.0753 36.4968 13.819 35.2537 14.4998C35.1056 14.6422 34.813 14.3107 35.0076 14.1683H35.009ZM32.4708 13.5046C32.9044 14.4416 32.9911 20.6653 32.8614 21.9906C32.7147 23.1754 29.3473 22.0851 28.9088 21.9426C28.4392 21.8594 28.02 21.6051 27.7369 21.2317C27.7181 21.1732 27.7174 21.1106 27.7348 21.0517C27.7522 20.9928 27.7871 20.9401 27.8349 20.9002C28.4695 20.568 31.7389 21.3741 31.7389 21.3741C31.7389 18.9434 31.354 13.7183 31.3483 13.6471C31.1523 12.9834 32.2282 12.982 32.4701 13.5046H32.4708ZM31.4456 7.67267C29.9218 8.84272 28.2685 9.84428 26.5165 10.6588C26.2239 10.754 26.0285 10.4219 26.2725 10.2801C27.8342 9.14178 29.5419 8.19388 31.1037 7.10351C31.1809 7.06569 31.2701 7.05792 31.3531 7.08177C31.436 7.10563 31.5065 7.15933 31.5501 7.23191C31.5937 7.30449 31.6072 7.3905 31.5878 7.4724C31.5684 7.5543 31.5175 7.62592 31.4456 7.67267ZM24.8081 9.23698C26.1089 8.24556 27.4789 7.34276 28.9081 6.53504C29.1027 6.39258 29.4933 6.15561 29.6886 6.43984C29.7399 6.50288 29.7635 6.58302 29.7544 6.66289C29.7453 6.74276 29.7042 6.81593 29.6399 6.86654C28.1833 7.92898 26.6124 8.83492 24.9547 9.56847C24.7594 9.66504 24.6135 9.33287 24.8081 9.23835V9.23698ZM19.3917 19.0996C18.8438 19.015 18.3248 18.8036 17.8786 18.4832C17.5367 18.2935 11.1438 14.0745 11.3391 13.932C12.6005 12.9793 18.6013 9.34315 18.8544 9.23904C19.2937 9.09658 24.3202 11.8937 25.9305 12.7471C26.2239 12.9368 26.6631 13.1265 26.6631 13.5053C26.6631 13.8375 26.3698 14.0745 26.1258 14.2642C25.394 14.832 20.9619 18.0668 19.3917 19.0989V19.0996ZM38.961 20.2845C37.7623 21.5577 34.7834 23.8645 33.3486 25.0726C32.7024 25.6304 31.9993 26.1226 31.2503 26.5417C31.1523 26.5897 22.9537 21.9912 22.4172 21.4694C22.3429 21.4707 22.2701 21.4498 22.2085 21.4095C22.1469 21.3692 22.0996 21.3115 22.073 21.2441C22.0463 21.1768 22.0417 21.1032 22.0596 21.0332C22.0775 20.9632 22.1172 20.9003 22.1732 20.8529C23.3443 19.8571 26.9071 17.0127 27.5409 16.586C28.0964 16.1052 28.7214 15.706 29.396 15.4011C29.9793 15.4955 30.5312 15.7229 31.0063 16.0648C31.3476 16.4442 30.7624 16.6812 30.4691 16.5387C30.1278 16.3963 29.396 15.9696 29.396 15.9696C28.9567 16.3963 24.0276 20.2845 22.9537 21.1844C23.5396 21.5166 29.7372 25.1192 31.2503 25.8301C32.1288 25.0719 38.0338 20.1893 38.1797 20.0468C36.7028 19.3195 35.269 18.5123 33.8852 17.6291C33.6906 17.4866 33.8852 17.2024 34.1298 17.2497C35.8862 17.7716 37.4479 18.814 39.0583 19.6674C39.3516 19.8098 39.2049 20.1893 38.961 20.2838V20.2845ZM42.279 12.5101C42.2304 12.5574 42.2304 12.6047 42.1817 12.6519C40.5711 13.8859 38.875 15.0107 37.1052 16.0182C36.8613 16.1127 36.6166 15.8285 36.8119 15.6388C37.8371 14.8326 38.9109 14.1217 40.0334 13.3635C40.6679 12.9368 41.2532 12.5101 41.8877 12.0834C42.2304 11.8458 42.4743 12.2245 42.279 12.5095V12.5101Z" fill="#9A7ED9"/>
<path d="M54.6849 22.0613C51.6508 24.9085 38.3884 34.8376 35.176 37.0196C34.7843 37.2728 34.4122 37.553 34.0625 37.8578C33.7233 38.1379 33.3847 38.4638 33.0455 38.7439C33.0184 38.77 33.0023 38.8048 33.0002 38.8417C32.9981 38.8786 33.0102 38.9149 33.0342 38.9437C33.0582 38.9725 33.0923 38.9918 33.1302 38.9979C33.168 39.004 33.2068 38.9965 33.2393 38.9768C33.9609 38.6016 34.6562 38.1812 35.3207 37.7185C35.4026 37.6606 39.227 34.907 42.3408 32.5459C45.7897 29.9518 51.5424 25.7002 54.9304 22.2943C55.1206 22.1542 54.8814 21.8768 54.6849 22.0613Z" fill="#9A7ED9"/>
<path d="M28.9642 35.9597C26.8503 34.6139 7.24664 22.5722 6.39644 22.1026C5.70267 21.7022 4.98397 21.3412 4.2442 21.0215C4.04466 20.9278 3.89429 21.1626 4.09455 21.3038C4.29481 21.4449 4.49506 21.6329 4.6946 21.7734C4.97379 21.9625 5.24124 22.1665 5.49564 22.3842C6.24016 22.9234 7.02624 23.4099 7.84741 23.84C36.115 40.8984 32.3419 38.7911 32.7171 38.9655C32.9174 39.1067 33.1169 38.7782 32.9174 38.637C31.6659 37.6971 30.3075 36.8155 28.9642 35.9597Z" fill="#9A7ED9"/>
<path d="M10.7993 9.14727C11.0328 9.34657 11.4533 10.0968 11.7799 9.99643C11.8227 9.98452 11.8624 9.96244 11.8961 9.93184C11.9298 9.90123 11.9567 9.8629 11.9746 9.81968C11.9926 9.77646 12.0012 9.72946 11.9999 9.68218C11.9985 9.6349 11.9872 9.58855 11.9668 9.54658C11.608 8.91487 11.126 8.37351 10.5536 7.95951C9.98126 7.54552 9.33209 7.26865 8.6505 7.14783C4.24085 6.09432 -0.263952 10.855 0.0120723 15.5962C0.0764486 16.4608 0.282025 17.3066 0.619462 18.0953C0.859437 18.6105 1.17322 19.0824 1.54944 19.494C1.71312 19.7297 1.94187 19.9045 2.2034 19.9936C2.43691 20.0435 2.85735 19.7936 2.57728 19.494C-2.89462 13.9274 5.28826 4.32306 10.7993 9.14727Z" fill="#191919"/>
<path d="M9.48315 6.15392C10.698 5.22819 12.2025 4.71517 13.7582 4.69623C15.409 4.69623 16.9571 5.34952 17.4935 6.83941C17.5054 6.87258 17.5248 6.90282 17.5504 6.92797C17.5761 6.95312 17.6072 6.97255 17.6417 6.98486C17.6761 6.99718 17.713 7.00208 17.7496 6.9992C17.7863 6.99632 17.8218 6.98574 17.8537 6.96822C18.0787 6.88214 17.9889 6.62516 17.9434 6.45363C17.502 4.35131 13.4493 2.9574 10.0235 4.99656C9.70812 5.21082 9.39343 5.42507 9.07808 5.68206C9.02851 5.73724 9.00087 5.80727 9.00002 5.87989C8.99917 5.95251 9.02514 6.02311 9.07341 6.07933C9.12168 6.13556 9.18916 6.17384 9.26407 6.18747C9.33897 6.20111 9.41652 6.18923 9.48315 6.15392Z" fill="#191919"/>
<path d="M16.4877 2.01775C17.0675 1.55644 17.7166 1.20602 18.4065 0.981758C19.7344 0.585768 21.5203 0.635714 22.575 1.72237C23.4523 2.51078 23.1579 3.25282 23.3537 3.74655C23.445 3.99342 23.674 4.0926 23.8573 3.89496C23.9691 3.63239 24.0165 3.3432 23.9949 3.05518C23.9236 2.42531 23.6666 1.83678 23.2618 1.37632C21.4137 -0.847644 17.4941 -0.0763547 16.0721 1.57325C15.8717 1.73735 16.1145 2.21824 16.4877 2.01775Z" fill="#191919"/>
</svg>
