<svg width="50" height="35" viewBox="0 0 50 35" fill="none" xmlns="http://www.w3.org/2000/svg">
<path d="M49.4221 11.8999C48.2358 11.3207 26.4031 2.38126 23.4488 1.24054C23.4488 1.24054 23.2284 1.10936 23.0959 1.19681C22.655 1.37235 22.2141 1.59162 21.7733 1.81089C21.9349 2.1038 22.0305 2.4282 22.0533 2.76154C22.0762 3.09489 22.0259 3.4292 21.9058 3.74125C21.8457 3.85432 21.7573 3.95006 21.6492 4.01923C21.541 4.08839 21.4168 4.12863 21.2884 4.13606C20.803 4.13606 20.5825 3.78497 20.5386 3.34643C20.5271 3.06077 20.4674 2.77907 20.3621 2.51307C19.0395 3.12716 17.6723 3.78497 16.3484 4.39906C16.5887 4.78911 16.7534 5.22053 16.8338 5.67096C16.8533 5.84089 16.8104 6.01209 16.713 6.15303C16.6155 6.29396 16.4702 6.39512 16.3037 6.43787C16.1372 6.48063 15.9608 6.46208 15.807 6.38567C15.6532 6.30925 15.5323 6.18012 15.4666 6.02205C15.3437 5.68752 15.1649 5.376 14.9378 5.1006L10.5718 7.33768C11.0031 7.64948 11.3144 8.09843 11.4542 8.61021C11.467 8.72489 11.4522 8.84098 11.411 8.94882C11.3697 9.05667 11.3031 9.15317 11.2169 9.23032C11.1306 9.30746 11.0271 9.36302 10.9149 9.39239C10.8027 9.42177 10.6851 9.4241 10.5718 9.3992C10.2958 9.28418 10.0641 9.08431 9.91049 8.82885C9.82257 8.74076 9.16062 8.08294 9.02875 8.12667C8.67579 8.30221 5.10422 10.2763 3.64908 11.1096C3.60358 11.137 3.56596 11.1756 3.53984 11.2217C3.51372 11.2678 3.5 11.3197 3.5 11.3726C3.5 11.4255 3.51372 11.4775 3.53984 11.5236C3.56596 11.5697 3.60358 11.6083 3.64908 11.6356C3.89691 11.7972 29.5421 28.2439 29.6657 27.9973C30.239 27.6025 48.4511 13.4779 49.4654 12.4709C49.506 12.4335 49.5376 12.3875 49.5579 12.3363C49.5781 12.285 49.5865 12.2299 49.5823 12.175C49.5781 12.1201 49.5616 12.0669 49.5338 12.0192C49.5061 11.9716 49.4679 11.9308 49.4221 11.8999Z" fill="#9A7ED9"/>
<path d="M49.2549 15.4267C44.3555 20.0291 30.9717 29.6906 29.7999 30.8498C28.6604 30.0699 10.8267 18.5025 9.16167 17.4196C7.58405 16.4232 5.87538 15.6001 4.29776 14.603C4.1224 14.5167 3.99072 14.7332 4.16608 14.8628C5.30562 15.5995 6.35715 16.4658 7.54037 17.2024C13.8027 21.2346 29.477 31.0495 29.9316 31.4989C30.0189 31.5852 36.7232 26.3871 38.1691 25.2604C41.2915 22.8488 46.4979 18.8962 49.5645 15.7297C49.6493 15.5137 49.4303 15.2972 49.2549 15.4267Z" fill="#9A7ED9"/>
<path d="M49.2993 19.3068C46.564 21.9446 34.6077 31.1437 31.7117 33.1653C31.3586 33.3998 31.0231 33.6594 30.7079 33.9418C30.402 34.2013 30.0969 34.5032 29.791 34.7627C29.7666 34.7869 29.7521 34.8192 29.7502 34.8533C29.7483 34.8875 29.7592 34.9211 29.7808 34.9478C29.8025 34.9745 29.8333 34.9924 29.8674 34.9981C29.9015 35.0037 29.9365 34.9968 29.9657 34.9785C30.6163 34.6309 31.2431 34.2414 31.8422 33.8127C31.916 33.7591 35.3637 31.2079 38.1709 29.0204C41.2801 26.6171 46.4663 22.6782 49.5206 19.5226C49.6921 19.3929 49.4765 19.1359 49.2993 19.3068Z" fill="#9A7ED9"/>
<path d="M25.6759 32.1426C23.8475 30.8778 6.89147 19.5608 6.1561 19.1195C5.55603 18.7432 4.93439 18.4039 4.29453 18.1034C4.12194 18.0154 3.99188 18.2361 4.16509 18.3688C4.3383 18.5014 4.51152 18.6781 4.6841 18.8101C4.92558 18.9878 5.15691 19.1795 5.37695 19.3842C6.02093 19.8909 6.70084 20.3482 7.4111 20.7523C31.8609 36.784 28.5974 34.8036 28.922 34.9675C29.0952 35.1002 29.2678 34.7915 29.0952 34.6588C28.0128 33.7754 26.8378 32.9469 25.6759 32.1426Z" fill="#9A7ED9"/>
<path d="M9.97436 8.24744C10.19 8.41735 10.5784 9.05697 10.88 8.9714C10.9196 8.96124 10.9563 8.94242 10.9874 8.91633C11.0185 8.89024 11.0433 8.85756 11.0599 8.82071C11.0765 8.78386 11.0845 8.74379 11.0832 8.70348C11.082 8.66317 11.0715 8.62365 11.0527 8.58787C10.7213 8.0493 10.2761 7.58775 9.74745 7.23479C9.21881 6.88184 8.61922 6.64579 7.9897 6.54279C3.9169 5.6446 -0.243789 9.70338 0.0111501 13.7455C0.0706088 14.4827 0.260481 15.2038 0.572142 15.8762C0.793785 16.3155 1.0836 16.7178 1.43108 17.0686C1.58225 17.2696 1.79353 17.4187 2.03508 17.4947C2.25075 17.5371 2.63908 17.3241 2.3804 17.0686C-2.67351 12.3228 4.8843 4.13448 9.97436 8.24744Z" fill="#191919"/>
<path d="M8.05305 5.01084C9.23411 4.11082 10.6968 3.61206 12.2093 3.59364C13.8143 3.59364 15.3194 4.22878 15.8409 5.67729C15.8524 5.70953 15.8713 5.73893 15.8962 5.76338C15.9212 5.78783 15.9514 5.80673 15.9849 5.8187C16.0184 5.83067 16.0543 5.83543 16.0899 5.83264C16.1256 5.82984 16.1601 5.81955 16.1911 5.80251C16.4098 5.71883 16.3226 5.46898 16.2783 5.30222C15.8491 3.2583 11.909 1.90311 8.57835 3.88562C8.27176 4.09393 7.96581 4.30224 7.65923 4.55208C7.61103 4.60573 7.58416 4.67381 7.58333 4.74442C7.5825 4.81502 7.60776 4.88366 7.65469 4.93832C7.70161 4.99299 7.76722 5.0302 7.84004 5.04346C7.91286 5.05671 7.98826 5.04517 8.05305 5.01084Z" fill="#191919"/>
<path d="M14.4623 1.76553C15.0119 1.36189 15.6272 1.05526 16.2811 0.859038C17.5399 0.512547 19.2328 0.55625 20.2325 1.50707C21.0642 2.19693 20.7851 2.84621 20.9707 3.27824C21.0573 3.49425 21.2743 3.58103 21.448 3.40809C21.5541 3.17834 21.599 2.9253 21.5785 2.67328C21.511 2.12214 21.2673 1.60718 20.8836 1.20428C19.1318 -0.741689 15.4162 -0.0668103 14.0684 1.37659C13.8783 1.52018 14.1085 1.94096 14.4623 1.76553Z" fill="#191919"/>
</svg>
