<svg width="323" height="323" viewBox="0 0 323 323" fill="none" xmlns="http://www.w3.org/2000/svg">
<path d="M227.271 210.748C227.384 210.734 227.492 210.697 227.59 210.641C227.688 210.584 227.774 210.508 227.843 210.418C227.911 210.328 227.961 210.225 227.989 210.115C228.017 210.005 228.023 209.891 228.006 209.779C227.245 204.893 230.328 199.228 235.567 199.155C236.614 199.141 237.32 199.092 237.305 197.815C236.992 169.68 236.821 138.383 236.583 109.313C236.575 108.402 236.583 106.008 235.201 106.17C228.631 106.939 223.705 102.273 223.229 95.8856C223.08 93.8846 223.544 93.6617 221.614 93.665C183.195 93.7215 138.377 93.5115 101.162 95.246C99.3615 95.33 98.4071 95.1314 98.2197 97.163C97.8499 101.163 94.6796 106.706 90.3062 107.228C88.2842 107.47 88.7203 107.389 88.7445 109.489C89.0788 137.624 89.7765 170.232 90.1173 198.005C90.1366 199.546 94.9461 198.309 97.8886 203.411C100.831 208.512 97.2087 212.017 100.172 211.97C128.189 211.599 159.297 211.342 187.544 211.184C187.822 211.184 188.089 211.073 188.286 210.876C188.483 210.679 188.593 210.412 188.593 210.134C188.593 209.855 188.483 209.588 188.286 209.392C188.089 209.195 187.822 209.084 187.544 209.084C161.211 209.231 125.129 209.63 101.207 210.132C102.065 204.393 97.9775 197.479 92.0633 196.889C91.6434 170.024 91.2041 137.251 90.7326 108.961C93.2997 108.202 95.5801 106.69 97.2788 104.621C98.9775 102.552 100.016 100.021 100.261 97.3552C140.798 96.3071 180.514 94.9876 221.173 95.6466C220.944 102.801 227.678 108.604 234.602 108.216C235.167 137.879 235.585 167.385 235.115 197.057C233.758 197.213 232.445 197.635 231.251 198.298C230.057 198.962 229.005 199.854 228.156 200.924C227.307 201.993 226.676 203.22 226.301 204.534C225.926 205.847 225.813 207.222 225.969 208.579C226.039 209.183 226.38 208.698 222.87 209.123C221.255 209.438 221.539 210.37 222.723 210.652C224.23 210.863 225.757 210.894 227.271 210.748Z" fill="white"/>
<path d="M188.471 218.635C153.801 218.931 117.352 218.855 82.8286 219.682C82.1696 175.775 80.7404 132.005 80.5256 86.3476C80.5256 85.3527 78.9429 85.2058 78.9429 86.2539C78.9429 130.245 80.4303 175.048 80.7662 218.792C80.784 221.097 81.6771 221.602 83.5828 221.578C117.52 221.161 154.22 220.808 188.648 220.646C189.963 220.64 189.774 218.624 188.471 218.635Z" fill="white"/>
<path d="M244.35 85.0587C244.291 83.0577 243.481 82.6749 241.552 82.7121C189.872 83.7198 136.38 83.6133 84.9443 84.1656C84.0124 84.1753 83.9494 85.842 84.9443 85.842C136.917 85.8145 190.617 84.4272 242.505 84.7938C243.972 128.953 243.888 175.017 244.605 218.287C237.735 218.464 229.22 218.593 222.893 219.083C222.055 219.147 221.846 220.586 222.788 220.643C227.03 220.896 239.422 220.375 244.438 220.223C246.596 220.158 246.842 219.386 246.816 217.689C246.134 173.417 245.629 129.163 244.35 85.0587Z" fill="white"/>
<path d="M132.994 113.108C134.409 112.971 134.514 108.977 133.078 108.667C128.149 107.604 115.723 108.234 110.329 108.667C108.779 108.793 108.674 113.673 110.234 113.549C117.798 112.976 126.049 113.788 132.994 113.108Z" fill="white"/>
<path d="M214.262 108.102C210.083 107.404 193.135 107.719 189.911 108.615C188.863 108.906 189.265 112.426 190.005 112.753C190.528 112.982 213.482 112.583 214.096 112.333C215.062 111.939 215.533 108.315 214.262 108.102Z" fill="white"/>
<path d="M160.865 173.272C145.523 173.987 126.907 174.021 110.098 175.105C108.841 175.185 108.631 177.261 109.993 177.314C125.894 177.945 144.945 176.229 161.096 175.67C162.719 175.613 162.479 173.196 160.865 173.272Z" fill="white"/>
<path d="M161.881 158.084C150.056 157.036 120.734 157.732 108.674 159.132C107.47 159.271 107.721 161.277 108.926 161.232C126.222 160.497 144.662 160.329 161.839 160.424C161.993 160.427 162.145 160.4 162.288 160.344C162.431 160.287 162.561 160.204 162.671 160.097C162.782 159.991 162.87 159.864 162.931 159.723C162.992 159.582 163.025 159.431 163.028 159.278C163.031 159.124 163.003 158.972 162.947 158.829C162.891 158.687 162.807 158.556 162.701 158.446C162.594 158.336 162.467 158.247 162.327 158.186C162.186 158.125 162.035 158.092 161.881 158.089V158.084Z" fill="white"/>
<path d="M161.339 165.709C160.614 165.602 115.62 166.537 109.733 167.228C109.495 167.264 109.278 167.387 109.125 167.574C108.973 167.761 108.895 167.998 108.908 168.239C108.922 168.48 109.024 168.708 109.196 168.877C109.368 169.046 109.597 169.146 109.838 169.155C119.265 169.365 154.078 169.2 161.455 167.847C162.568 167.637 162.371 165.86 161.339 165.709Z" fill="white"/>
<path d="M118.278 199.897C118.574 201.038 119.599 201.321 120.153 200.263C121.428 197.831 122.959 195.542 124.72 193.435C124.793 194.911 124.882 196.389 125.024 197.854C125.05 198.13 125.186 198.385 125.4 198.562C125.615 198.739 125.891 198.823 126.167 198.797C127.228 198.695 126.881 197.623 129.72 194.607C129.811 195.565 130.004 196.51 130.297 197.426C130.386 197.594 130.52 197.735 130.683 197.833C130.846 197.931 131.033 197.983 131.224 197.983C131.414 197.983 131.601 197.931 131.765 197.833C131.928 197.735 132.061 197.594 132.151 197.426C132.742 195.758 133.774 194.281 135.135 193.151C135.261 194.042 136.104 197.881 137.786 197.246C142.727 195.398 147.89 194.204 153.141 193.693C153.312 193.677 153.47 193.593 153.579 193.46C153.689 193.327 153.741 193.156 153.724 192.984C153.707 192.813 153.623 192.655 153.49 192.546C153.357 192.437 153.186 192.385 153.015 192.401C147.842 192.379 142.707 193.276 137.849 195.052C137.245 193.945 136.986 192.683 137.104 191.427C137.115 191.254 137.082 191.08 137.009 190.923C136.936 190.765 136.825 190.628 136.686 190.524C136.546 190.42 136.383 190.352 136.211 190.327C136.039 190.302 135.864 190.32 135.701 190.379C134.01 191.279 132.57 192.586 131.511 194.183C131.436 193.68 131.401 193.171 131.406 192.663C131.406 191.941 130.576 191.266 129.93 191.836C128.875 192.77 127.887 193.778 126.976 194.853C126.817 193.441 126.737 192.021 126.736 190.601C126.736 189.552 125.34 189.488 124.756 190.087C122.938 191.961 121.315 194.014 119.911 196.214C120.072 193.26 123.338 182.067 118.507 184.242C115.104 185.773 111.112 196.602 110.862 200.299C110.799 201.231 111.75 201.503 112.065 200.518C113.357 196.507 116.056 189.835 118.958 186.755C118.927 190.848 117.088 195.265 118.278 199.897Z" fill="white"/>
<path d="M186.486 164.326C185.092 165.668 187.24 173.659 186.324 174.518C185.409 175.378 178.364 177.283 178.311 179.756C178.257 182.228 184.658 184.866 185.308 186.584C185.959 188.302 181.213 195.833 182.166 197.98C183.118 200.126 192.221 198.033 193.561 199.028C194.901 200.023 195.467 206.444 197.353 206.904C199.239 207.364 204.905 201.877 206.78 201.928C208.655 201.98 212.875 207.301 214.603 206.872C216.331 206.442 216.186 198.117 217.432 197.363C218.679 196.608 225.591 197.141 226.722 195.801C227.852 194.46 223.392 188.009 224.354 186.229C225.317 184.449 230.22 180.899 229.895 178.813C229.571 176.726 224.093 175.796 223.172 174.402C222.252 173.008 224.219 164.4 222.688 163.217C221.157 162.033 213.606 164.509 211.617 163.54C209.627 162.571 207.426 157.143 204.945 157.349C203.007 157.511 200.189 163.937 197.498 164.535C194.808 165.132 187.889 162.976 186.486 164.326ZM204.089 167.364C212.938 166.97 219.109 172.036 220.05 180.751C222.231 200.914 190.216 204.207 189.163 183.086C188.685 173.638 194.633 167.786 204.083 167.364H204.089Z" fill="#97CC64"/>
<path d="M119.107 137.671C119.107 138.33 110.486 144.615 110.727 145.683C110.967 146.75 128.417 145.844 128.711 144.856C128.859 139.778 128.61 134.696 127.967 129.657C127.608 128.688 108.067 129.575 108.13 130.318C108.193 131.06 119.107 137.01 119.107 137.671Z" fill="#97CC64"/>
<path d="M220.139 144.94C220.462 143.788 211.497 138.749 211.497 137.834C211.497 136.918 219.668 133.643 219.228 132.596C218.789 131.55 202.891 129.366 202.469 131.109C202.222 135.65 202.348 140.204 202.846 144.725C203.296 145.536 219.818 146.103 220.139 144.94Z" fill="#97CC64"/>
<path d="M219.317 199.719C218.269 199.272 218.348 208.779 215.672 209.742C212.996 210.704 207.66 205.344 206.247 205.48C204.834 205.615 198.979 210.99 195.772 209.9C193.673 209.188 192.096 201.447 191.634 201.583C191.173 201.718 191.991 225.257 192.526 234.671C192.534 234.832 192.583 234.989 192.668 235.126C192.754 235.264 192.873 235.377 193.015 235.454C193.157 235.532 193.316 235.572 193.478 235.571C193.64 235.569 193.799 235.526 193.939 235.446C195.129 234.768 206.809 227.991 206.948 228.114C209.115 230.028 217.492 233.08 220.146 233.968C220.382 234.049 220.641 234.033 220.865 233.923C221.089 233.814 221.261 233.62 221.342 233.384C221.423 233.153 221.515 234.454 220.26 218.939C219.878 214.278 220.18 200.089 219.317 199.719Z" fill="#97CC64"/>
<path d="M198.017 141.388C199.411 139.744 199.066 124.316 198.017 123.216C196.969 122.117 134.012 121.666 132.61 123.216C131.562 124.263 131.919 138.749 133.406 140.508C134.894 142.267 196.616 143.044 198.017 141.388ZM144.433 128.757C155.955 128.155 174.346 128.841 186.8 128.919C187.983 128.927 188.812 134.533 185.931 134.513C173.592 134.426 155.83 135.368 144.443 133.727C143.196 133.56 143.196 128.822 144.433 128.757Z" fill="#97CC64"/>
<path d="M50.3123 131.994C45.0241 135.121 41.1911 140.217 39.6533 146.166C38.4404 150.928 39.2285 153.504 44.0832 149.851C48.6973 146.38 54.5807 140.125 56.2119 134.654C58.25 127.842 53.7797 129.928 50.3123 131.994Z" fill="#97CC64"/>
<path d="M48.0078 151.434C44.2384 155.321 40.4173 164.316 40.5497 169.638C40.6838 175.116 42.9722 176.148 46.6044 171.145C50.1564 166.251 52.3763 160.519 53.0466 154.51C53.6845 148.772 53.2679 146.009 48.0078 151.434Z" fill="#97CC64"/>
<path d="M63.4471 111.244C60.3044 111.16 55.8793 113.444 52.9723 116.01C48.363 120.074 45.0022 125.642 46.6883 126.882C48.7442 128.394 55.3738 124.705 59.0576 121.739C63.1661 118.433 65.9617 111.311 63.4471 111.244Z" fill="#97CC64"/>
<path d="M14.2287 125.96C14.2093 134.151 17.8334 144.371 24.169 149.83C32.4459 156.962 31.4155 149.407 29.7618 143.296C27.6914 135.632 25.2543 127.745 20.5353 121.299C15.1816 113.982 14.24 121.551 14.2287 125.96Z" fill="#97CC64"/>
<path d="M40.9694 116.816C41.2302 112.032 40.6341 107.24 39.209 102.666C37.783 98.0967 35.4073 93.8622 32.925 100.949C31.2303 105.584 30.4409 110.501 30.5994 115.434C31.3149 130.977 39.9568 135.545 40.9694 116.816Z" fill="#97CC64"/>
<path d="M299.744 142.29C301.842 139.622 303.374 136.555 304.248 133.276C305.121 129.997 305.317 126.574 304.824 123.216C303.606 114.925 301.461 114.495 296.392 120.902C292.859 125.485 290.802 131.033 290.495 136.812C289.961 144.866 291.682 152.485 299.744 142.29Z" fill="#97CC64"/>
<path d="M289.583 117.351C291.249 111.541 290.879 105.336 288.535 99.765C287.197 96.1878 284.336 92.2601 282.314 97.9885C279.823 105.062 280.398 115.053 284.91 121.23C286.713 123.709 289.237 118.409 289.583 117.351Z" fill="#97CC64"/>
<path d="M255.268 74.8892C260.086 74.9699 263.2 76.8272 264.312 83.0062C264.618 84.7035 266.22 84.8295 266.412 82.7445C266.845 77.9496 268.371 74.4612 274.225 74.0607C276.058 73.9363 277.368 72.0339 273.838 72.029C266.286 72.0177 266.086 64.5919 265.375 59.8277C265.214 58.7796 263.729 58.224 263.689 60.2363C263.571 66.018 262.286 73.0239 255.509 73.0239C253.634 73.0239 253.372 74.8569 255.268 74.8892ZM264.797 67.0548C265.624 70.4366 267.363 71.7157 270.411 72.9932C269.058 73.5262 267.865 74.3989 266.948 75.527C266.03 76.6552 265.419 78.0007 265.173 79.4338C264.651 78.147 263.855 76.9892 262.841 76.041C261.826 75.0928 260.617 74.3768 259.298 73.9428C260.623 73.2212 261.789 72.2399 262.727 71.0576C263.665 69.8753 264.354 68.5161 264.755 67.0613L264.797 67.0548Z" fill="#97CC64"/>
<path d="M55.5074 193.315C56.38 186.861 56.0642 180.301 54.5756 173.96C53.0235 167.379 50.018 174.696 49.3381 176.83C47.4307 182.045 47.1098 187.708 48.416 193.106C50.8126 201.738 54.2461 202.692 55.5074 193.315Z" fill="#97CC64"/>
<path d="M60.4515 193.989C60.2593 202.254 60.1398 207.301 64.489 214.519C70.2836 224.122 73.147 222.166 72.8692 212.707C72.6863 205.613 70.5639 198.705 66.7322 192.732C63.1469 187.193 60.6243 186.542 60.4515 193.989Z" fill="#97CC64"/>
<path d="M256.808 111.401C259.246 116.283 264.135 119.213 269.157 120.828C273.342 122.173 279.242 124.408 274.325 117.339C267.794 107.966 251.869 101.511 256.808 111.401Z" fill="#97CC64"/>
<path d="M263.156 237.447C258.473 235.299 250.587 235.443 245.403 236.011C229.062 237.804 236.717 242.45 244.354 245.94C249.882 248.534 256.085 249.324 262.087 248.201C272.478 246.142 272.383 241.678 263.156 237.447Z" fill="#97CC64"/>
<path d="M253.09 205.04C253.151 221.903 261.746 220.812 263.616 203.635C264.107 199.207 263.679 194.725 262.36 190.47C260.136 183.341 257.166 188.613 255.604 192.23C253.894 196.282 253.038 200.643 253.09 205.04Z" fill="#97CC64"/>
<path d="M270.55 127.94C267.159 126.101 263.032 125.269 264.79 130.768C265.678 133.262 267.065 135.549 268.866 137.49C270.667 139.431 272.844 140.986 275.264 142.059C282.114 145.379 284.26 144.368 280.24 137.375C277.944 133.395 274.59 130.13 270.55 127.94Z" fill="#97CC64"/>
<path d="M266.456 176.435C265.952 181.28 266.57 190.386 268.822 194.685C270.75 198.362 274.687 201.211 275.84 195.355C276.994 189.499 275.84 181.739 273.996 176.062C271.191 167.427 267.363 167.688 266.456 176.435Z" fill="#97CC64"/>
<path d="M282.993 167.301C282.011 160.925 279.202 154.97 274.907 150.156C265.598 139.828 267.82 164.583 279.381 171.229C283.904 173.83 283.52 170.596 282.993 167.301Z" fill="#97CC64"/>
<path d="M307.388 151.046C300.181 155.518 294.708 162.306 291.865 170.297C289.69 177.033 291.528 177.152 297.518 174.486C304.947 171.175 312.629 163.543 314.37 155.413C316.277 146.48 313.18 147.288 307.388 151.046Z" fill="#97CC64"/>
<path d="M289.382 211.953C282.575 212.418 275.009 215.591 269.587 218.792C257.959 225.651 266.215 227.828 274.949 227.245C281.414 226.816 287.632 224.6 292.912 220.845C300.863 215.183 299.71 211.242 289.382 211.953Z" fill="#97CC64"/>
<path d="M301.711 181.944C295.812 184.498 290.502 188.242 286.115 192.942C277.285 202.422 280.345 204.551 292.336 201.227C299.47 199.249 307.532 193.898 310.321 186.836C314.302 176.754 308.11 179.166 301.711 181.944Z" fill="#97CC64"/>
<path d="M39.3253 195.948C34.6145 190.087 28.386 185.631 21.318 183.065C15.6752 181.019 11.192 179.911 15.0195 188.309C16.7138 192.027 19.2234 195.317 22.3622 197.933C25.501 200.549 29.1884 202.425 33.1511 203.422C43.4887 206 46.0275 204.285 39.3253 195.948Z" fill="#97CC64"/>
<path d="M54.2298 228.816C64.5045 228.14 65.6317 226.158 56.6281 220.625C49.9671 216.548 42.3656 214.262 34.5607 213.987C29.1247 213.789 24.2247 214.407 29.8159 220.953C35.407 227.498 46.1645 229.346 54.2298 228.816Z" fill="#97CC64"/>
<path d="M16.6704 107.903C16.8319 108.898 18.4469 110.002 18.6391 107.903C19.0025 103.777 19.9166 99.8409 25.6773 99.3241C27.1857 99.19 28.1919 97.982 25.8663 97.785C20.4625 97.3279 19.7632 92.6412 18.7603 86.9128C18.5406 85.6563 16.9757 86.2523 16.9159 87.2067C16.6058 92.1906 15.5125 96.7918 10.0134 97.2714C7.12256 97.5234 7.73949 98.9074 10.0134 99.1997C15.5044 99.9006 16.0164 103.996 16.6704 107.903ZM17.7654 92.4426C17.9485 93.7783 18.4768 95.0432 19.2982 96.1124C20.1195 97.1815 21.2055 98.018 22.4489 98.5392C21.3512 98.9603 20.3491 99.5972 19.5017 100.412C18.6542 101.227 17.9787 102.204 17.5151 103.284C17.3853 102.151 16.9519 101.074 16.2605 100.167C15.5692 99.2596 14.6456 98.5561 13.5874 98.1306C14.6277 97.5087 15.5332 96.6852 16.2507 95.7084C16.9682 94.7316 17.4832 93.6212 17.7654 92.4426Z" fill="#97CC64"/>
<path d="M289.048 148.856C287.293 133.045 281.319 116.209 271.588 103.504C271.871 101.619 267.987 95.1961 266.047 93.2501C262.595 89.7891 256.023 85.4464 252.913 86.4202C249.802 87.3941 255.074 96.4704 259.407 100.267C262.429 102.661 266.053 104.176 269.88 104.645C278.073 116.469 283.576 129.944 286.001 144.123C288.42 158.198 287.259 172.656 282.625 186.166C274.465 209.507 254.306 230.136 228.295 236.756C210.327 241.328 191.423 238.666 173.296 243.292C171.811 243.67 172.616 245.901 174.083 245.532C201.921 238.524 229.978 248.702 260.337 222.563C270.846 213.611 278.971 202.192 283.981 189.328C288.992 176.464 290.733 162.558 289.048 148.856Z" fill="#97CC64"/>
<path d="M25.9712 176.184C33.6021 179.791 34.3692 177.08 31.0714 169.9C28.1902 163.611 23.1127 155.557 17.0047 151.988C9.5079 147.611 8.99594 150.29 10.7837 157.462C11.7733 161.512 13.6487 165.291 16.275 168.529C18.9012 171.766 22.2128 174.38 25.9712 176.184Z" fill="#97CC64"/>
<path d="M82.9289 236.42C74.2499 233.266 64.1368 234.32 55.3399 236.943C46.2959 239.64 46.2571 242.405 54.8554 246.568C63.0338 250.533 76.1572 249.847 84.4761 246.36C93.6703 242.502 93.6913 240.333 82.9289 236.42Z" fill="#97CC64"/>
<path d="M115.294 253.104C108.214 253.127 108.588 251.764 107.703 245.931C107.409 244.004 106.129 244.065 105.901 245.931C105.495 249.27 104.686 252.943 100.424 252.938C98.5171 252.938 97.9486 254.125 99.8995 254.613C104.218 255.693 104.869 258.542 105.504 263.129C105.649 264.177 107.075 264.582 107.295 263.402C107.955 259.882 108.186 254.551 115.15 254.666C116.897 254.695 117.012 253.099 115.294 253.104ZM106.537 259.232C106.339 258.185 105.72 254.979 102.984 254.064C104.523 253.97 106.282 251.329 106.607 250.262C106.671 251.212 107.057 252.113 107.7 252.815C108.344 253.517 109.207 253.98 110.148 254.127C109.186 254.631 108.356 255.357 107.729 256.245C107.101 257.132 106.693 258.156 106.537 259.232Z" fill="#97CC64"/>
<path d="M147.135 241.119C128.281 238.355 108.602 239.802 90.3239 233.558C41.2925 216.81 20.5106 157.75 51.6527 110.238C60.9631 106.674 68.9784 90.1799 66.3896 87.1534C63.8007 84.1269 56.4105 92.386 53.8943 96.2668C51.4045 100.113 49.9606 104.543 49.705 109.117C31.8479 134.415 28.2626 172.425 47.1581 202.232C55.5155 215.422 67.4578 225.958 81.5867 232.607C98.9851 240.787 118.393 240.651 137.151 242.327C155.313 243.942 175.226 248.041 187.427 262.773C188.396 263.947 189.432 262.539 188.474 261.38C178.144 248.871 163.923 243.584 147.135 241.119Z" fill="#97CC64"/>
<path d="M156.363 247.658C152.224 248.461 148.321 250.191 144.945 252.717C142.258 254.703 137.921 259.005 137.032 262.26C136.815 263.046 137.577 263.773 138.08 262.961C140.163 259.622 142.934 256.766 146.208 254.582C149.365 252.26 152.994 250.661 156.838 249.898C157.121 249.822 157.364 249.64 157.517 249.39C157.669 249.14 157.721 248.841 157.66 248.554C157.599 248.267 157.431 248.015 157.19 247.848C156.949 247.682 156.653 247.614 156.363 247.658Z" fill="#97CC64"/>
</svg>
