<svg width="279" height="236" viewBox="0 0 279 236" fill="none" xmlns="http://www.w3.org/2000/svg">
<path d="M185.981 61.8734C184.865 62.1924 148.851 87.9182 145.872 90.1783C142.892 92.4384 137.029 100.421 137.791 101.15C138.972 102.28 149.065 98.6254 150.416 97.8423C151.767 97.0592 189.404 70.4833 191.248 69.2089C193.092 67.9344 187.106 61.556 185.981 61.8734Z" fill="#9A7ED9"/>
<path d="M119.559 144.292C103.6 145.207 88.9814 132.489 66.1793 125.353C56.6093 127.02 38.4789 126.098 35.8743 120.19C1.78592 125.24 -26.9687 146.826 -31.4347 161.341C-35.7141 175.228 -15.9313 202.675 -6.43631 211.641C-2.24465 187.803 3.58348 162.421 12.8425 140.025C13.3114 138.89 14.3593 139.585 14.0036 140.682C3.85952 171.923 -3.3267 204.049 -7.4603 236.634C10.5632 247.291 67.9832 249.779 86.5873 245.22C86.7388 237.355 87.8489 210.955 88.8729 190.528C80.8804 189.89 72.907 188.958 64.9974 187.657C63.7341 187.449 64.2908 186.114 65.5285 186.28C80.4035 188.277 110.508 191.775 127.893 187.012C138.579 184.084 160.517 172.817 177.976 119.703C172.926 115.915 164.34 112.645 155.882 111.728C153.572 118.384 127.411 143.84 119.559 144.292Z" fill="#9A7ED9"/>
<path d="M110.975 31.9384C119.665 38.0233 127.459 45.2972 134.129 53.5475C135.187 54.8028 136.362 53.8155 137.16 52.7899C147.76 39.092 153.429 31.0532 167.599 19.2949C168.715 18.373 167.452 17.0236 166.26 17.8594C156.548 24.6445 141.616 38.9437 135.241 49.0432C128.43 41.6641 120.65 35.2427 112.113 29.9543C110.478 28.9558 109.388 30.8826 110.975 31.9384Z" fill="#9A7ED9"/>
<path d="M120.519 30.4359C123.27 30.7549 143.243 29.9112 146.358 29.8554C147.912 29.8267 148.026 27.3448 146.447 27.4055C143.304 27.5251 123.16 27.9908 120.337 28.4916C119.181 28.6958 119.484 30.3131 120.519 30.4359Z" fill="#9A7ED9"/>
<path d="M113.929 91.1767C112.543 90.5515 111.404 92.4384 112.667 93.2215C119.734 97.626 126.484 102.52 132.868 107.867C134.794 109.476 137.165 106.411 135.26 104.787C128.823 99.2726 121.642 94.691 113.929 91.1767Z" fill="#9A7ED9"/>
<path d="M155 59.0072C155.069 53.0595 154.488 46.6843 154.456 40.6998C154.456 39.1846 152.348 39.4382 152.36 40.9519C152.412 47.2904 152.466 53.6241 152.52 59.9531C147.76 59.9531 126.285 60.5353 121.385 61.4556C120.869 56.015 120.621 50.5314 119.821 45.1196C119.78 44.9053 119.662 44.7136 119.488 44.5812C119.315 44.4488 119.099 44.3851 118.881 44.4023C118.664 44.4195 118.46 44.5164 118.31 44.6744C118.16 44.8324 118.073 45.0403 118.066 45.2584C118.32 50.5729 118.545 56.0023 118.951 61.3168C119.168 64.1447 119.178 63.9565 121.968 63.754C131.627 63.0506 141.462 62.478 151.145 62.3902C153.939 62.3631 154.959 62.5545 155 59.0072Z" fill="#9A7ED9"/>
<path d="M142.993 80.7359C137.651 80.8045 131.828 80.8874 126.516 81.4919C120.974 82.1299 121.364 82.5957 121.757 87.5912C121.847 88.9047 122.016 90.2117 122.261 91.5053C122.29 91.7477 122.407 91.9709 122.59 92.1329C122.772 92.2949 123.008 92.3843 123.252 92.3843C123.496 92.3843 123.732 92.2949 123.915 92.1329C124.097 91.9709 124.214 91.7477 124.243 91.5053C124.243 90.5962 123.802 84.4219 123.924 84.2704C124.047 84.1189 140.819 82.9418 142.61 82.8189C144.154 82.7121 144.532 80.7151 142.993 80.7359Z" fill="#9A7ED9"/>
<path d="M125.114 105.165C125.06 104.923 124.92 104.709 124.72 104.563C124.52 104.416 124.274 104.347 124.027 104.369C123.78 104.391 123.549 104.501 123.378 104.68C123.206 104.859 123.106 105.094 123.095 105.342C123.165 108.648 123.405 111.949 123.814 115.231C123.791 115.541 123.892 115.848 124.094 116.085C124.297 116.321 124.585 116.467 124.896 116.491C125.055 116.504 137.274 116.19 146.211 115.344C148.497 115.129 147.108 113.083 145.769 113.186C139.456 113.665 132.387 113.918 126.049 114.107C125.797 111.036 125.581 108.108 125.114 105.165Z" fill="#9A7ED9"/>
<path d="M70.8764 76.1391C67.7964 75.9509 65.9654 79.7502 67.6194 80.0915C68.4775 80.2685 68.755 78.1217 70.7376 78.1344C71.0022 78.1528 71.2633 78.0654 71.4634 77.8913C71.6635 77.7172 71.7863 77.4707 71.8047 77.2061C71.8231 76.9415 71.7356 76.6805 71.5615 76.4804C71.3874 76.2802 71.141 76.1575 70.8764 76.1391Z" fill="#191919"/>
<path d="M75.1811 72.7306C74.7217 71.8055 73.9051 72.5583 74.1204 73.4371C75.4746 78.8458 77.0106 81.8587 78.1606 87.8687C78.7794 91.1002 75.8271 89.1303 75.7362 91.6568C75.6781 93.5287 75.4883 95.3941 75.1683 97.2393C73.8881 97.0145 72.7169 96.3757 71.8348 95.421C71.267 94.6762 70.2828 95.3461 70.7502 96.3429C71.1694 97.1182 71.7692 97.7811 72.4988 98.2756C73.2284 98.77 74.0664 99.0815 74.9419 99.1836C73.9195 107.318 69.6209 107.784 62.7449 106.361C61.4816 106.101 60.2168 105.651 58.8308 105.465C58.1609 105.375 56.4383 106.728 60.9393 107.99C60.9393 110.175 61.4178 121.324 62.0383 123.369C62.3015 124.227 63.6556 124.125 63.5791 123.153C63.1803 118.102 63.0224 113.381 62.9411 108.444C76.6581 111.248 76.438 102.852 77.5353 92.0955C80.3633 91.6903 80.4909 89.3505 80.0602 87.1079C79.0953 82.1158 77.4538 77.2788 75.1811 72.7306Z" fill="#191919"/>
<path d="M36.3593 49.5887C32.6908 36.3183 18.4809 22.5821 -0.644747 32.5573C-19.7704 42.5324 -17.2327 69.3746 -6.945 80.7358C-0.482056 87.8703 5.68102 96.2903 4.73359 102.83C3.78616 109.369 13.8522 103.688 8.60944 82.2622C4.41938 65.1415 18.1029 50.9014 28.8085 57.6051C30.7715 54.4607 33.3377 51.7361 36.3593 49.5887Z" fill="#191919"/>
<path d="M55.4478 81.1776C58.3044 82.8731 76.06 68.5484 74.9674 65.2563C66.1949 38.8479 33.5708 45.6969 28.3408 64.5864C22.4728 85.7824 39.9428 102.407 41.0545 102.262C42.6703 102.05 47.7535 98.7896 49.6404 92.4383C50.4714 92.9247 51.4169 93.1811 52.3798 93.1811C53.3427 93.1811 54.2882 92.9247 55.1192 92.4383C56.2038 91.8211 55.4207 90.5897 54.2739 91.0028C51.4794 91.9997 48.4665 89.7396 48.7695 84.9179C48.7764 84.1409 48.9885 83.3796 49.3844 82.711C49.7802 82.0423 50.3458 81.4902 51.0237 81.1106C51.7016 80.7309 52.4679 80.5371 53.2448 80.5489C54.0217 80.5607 54.7817 80.7776 55.4478 81.1776Z" fill="#191919"/>
<path d="M40.1585 104.723C39.1227 109.502 38.5686 114.372 38.5045 119.261C38.5245 119.464 38.6156 119.653 38.7618 119.795C38.9079 119.936 39.0996 120.021 39.3027 120.035C39.5058 120.049 39.7071 119.99 39.8708 119.869C40.0345 119.748 40.1501 119.573 40.1968 119.375C41.1634 114.722 41.3133 109.704 42.1666 104.868C42.3692 103.713 40.3754 103.6 40.1585 104.723Z" fill="#191919"/>
<path d="M72.7665 82.5765C72.0391 80.0468 69.6435 79.9368 70.5829 83.4984C71.4378 86.7235 73.5337 85.237 72.7665 82.5765Z" fill="#191919"/>
<path d="M150.745 82.2368C151.505 81.4712 157.125 81.0341 157.55 80.8986C158.519 80.5796 158.295 79.1552 157.487 78.841C155.858 78.203 151.25 79.1185 149.709 79.9575C148.169 80.7965 147.91 83.6085 146.54 86.5608C145.837 88.0761 144.894 89.4701 144.28 91.0172C143.982 91.7717 144.893 92.2932 145.543 91.7749C148.649 89.3281 150.706 82.275 150.745 82.2368Z" fill="#191919"/>
<path d="M146.969 95.4561C146.757 95.4456 146.548 95.5107 146.379 95.6399C146.21 95.769 146.093 95.9538 146.047 96.1614C146.002 96.369 146.032 96.5859 146.131 96.7736C146.231 96.9614 146.394 97.1077 146.591 97.1867C157.579 101.212 156.904 108.538 158.434 110.278C158.764 110.655 160.925 111.459 160.391 108.364C159.313 102.122 153.344 95.9585 146.969 95.4561Z" fill="#191919"/>
<path d="M169.468 88.0824C173.74 98.4946 173.95 101.064 173.673 112.326C173.641 113.59 175.534 114.097 175.869 112.805C177.81 105.328 175.537 93.3459 171.058 87.0361C170.398 86.1046 169.074 87.1238 169.468 88.0824Z" fill="#191919"/>
<path d="M162.474 91.4033C162.223 94.2328 160.437 94.2105 158.686 94.7368C156.497 95.394 157.738 95.9985 158.686 96.2266C159.414 96.4321 160.183 96.4509 160.921 96.2814C161.659 96.1118 162.342 95.7593 162.908 95.2563C163.474 94.7533 163.904 94.116 164.159 93.4031C164.414 92.6902 164.486 91.9246 164.367 91.1768C164.102 89.9295 162.581 90.1927 162.474 91.4033Z" fill="#191919"/>
<path d="M240.839 52.0371C243.264 51.9031 242.556 48.1899 240.157 48.3255C222.824 49.308 205.194 48.2617 188.393 49.3112C186.479 49.4293 186.815 52.3274 188.552 52.5299C198.57 53.6975 231.056 52.5906 240.839 52.0371Z" fill="#191919"/>
<path d="M269.019 28.8824C248.367 28.1998 204.82 28.4039 185.629 30.4232C184.063 30.5827 183.634 33.4649 185.516 33.4537C207.484 33.3165 243.7 31.8443 269.373 32.6562C271.823 32.7359 271.419 28.9622 269.019 28.8824Z" fill="#191919"/>
<path d="M266.457 81.7073C241.444 83.7808 211.466 81.1985 188.672 83.9546C186.866 84.1731 187.319 87.2467 189.176 87.1446C209.527 85.9276 239.677 86.8017 266.557 85.5289C268.982 85.4061 268.918 81.5031 266.457 81.7073Z" fill="#191919"/>
<path d="M237.658 99.434C225.965 98.7354 200.086 98.812 190.286 99.2937C188.455 99.3846 188.191 102.472 190.097 102.589C204.692 103.485 220.625 103.439 237.441 103.095C239.425 103.055 239.842 99.5632 237.658 99.434Z" fill="#191919"/>
</svg>
