<svg width="354" height="354" viewBox="0 0 354 354" fill="none" xmlns="http://www.w3.org/2000/svg">
<path d="M274.018 102.271C273.085 97.6067 270.673 90.87 265.648 89.1195C265.091 88.6859 264.511 88.2852 263.908 87.9195C263.256 87.592 258.961 94.4171 257.713 97.3766C257.109 99.0699 256.672 100.818 256.408 102.596C256.026 104.332 256.139 106.14 256.734 107.814C256.876 108.1 257.075 108.354 257.319 108.56C257.563 108.766 257.847 108.92 258.152 109.012C258.458 109.103 258.78 109.131 259.097 109.094C259.414 109.056 259.72 108.954 259.996 108.793C261.314 107.964 262.428 106.85 263.256 105.531C265.818 102.057 267.935 98.2748 269.556 94.2738C272.598 99.0032 272.611 104.342 273.368 105.857C273.368 106.184 274.02 107.489 274.347 107.163C274.997 106.51 274.018 103.248 274.018 102.271Z" fill="#191919"/>
<path d="M325.225 174.025C316.745 172.067 275.649 163.582 263.907 160.978C262.857 160.605 261.758 160.386 260.645 160.327C259.994 160.327 259.994 160.652 259.341 160.978C257.895 161.716 256.36 162.265 254.774 162.61C253.168 162.987 251.53 163.205 249.882 163.261C249.713 163.274 249.555 163.347 249.435 163.467C249.316 163.587 249.243 163.746 249.23 163.914C249.556 166.198 250.209 168.154 250.535 170.437C251.508 177.251 257.539 178.027 261.95 180.88C262.937 181.517 265.537 183.489 263.907 184.793C261.173 186.981 255.163 187.227 253.464 186.098C251.997 185.411 250.468 184.865 248.898 184.468C247.095 184.344 245.328 183.902 243.68 183.163C240.232 181.439 241.885 179.57 241.396 177.618C241.071 176.966 240.745 176.966 240.092 176.313C239.113 175.334 239.113 173.704 238.787 172.725C238.278 170.583 237.951 168.401 237.809 166.203C237.796 166.034 237.723 165.876 237.604 165.756C237.484 165.636 237.326 165.563 237.157 165.55C234.175 166.31 231.099 166.639 228.024 166.529C225.089 166.529 222.153 166.854 219.218 166.854C219.049 166.867 218.89 166.94 218.77 167.06C218.651 167.18 218.578 167.338 218.565 167.507C218.565 172.495 218.353 175.377 219.544 176.966C219.87 177.943 220.523 178.597 220.197 179.575C219.87 181.206 218.239 181.859 216.935 182.184C214.992 183.193 213.229 184.515 211.717 186.098C209.151 188.316 205.96 189.683 202.584 190.011C201.456 190.112 200.324 189.886 199.322 189.36C198.67 188.707 199.322 188.381 199.649 187.728C202.315 184.463 204.511 180.841 206.172 176.966C206.604 175.151 206.714 173.274 206.497 171.421C206.497 169.791 206.172 167.833 206.172 166.203C206.172 164.775 203.798 166.456 191.495 162.941C191.167 157.395 191.167 151.852 190.842 146.632C190.807 146.385 190.693 146.156 190.516 145.981C187.392 145.279 184.235 144.734 181.057 144.349C179.899 144.349 179.268 143.45 176.818 144.676C160.003 150.023 161.049 149.786 148.116 153.482C147.788 153.482 147.788 153.808 147.788 154.135C150.195 170.978 150.588 176.244 153.334 181.531C155.608 185.914 159.205 187.018 159.205 190.664C159.275 191.201 159.238 191.746 159.095 192.268C158.952 192.789 158.706 193.277 158.372 193.703C158.038 194.128 157.622 194.483 157.149 194.745C156.675 195.007 156.155 195.173 155.617 195.231C154.856 195.345 154.08 195.287 153.345 195.061C152.61 194.835 151.934 194.447 151.369 193.927C147.234 191.562 144.521 187.312 144.521 188.707C143.473 189.474 142.228 189.926 140.933 190.011C139.301 190.011 139.301 187.402 139.301 186.423V179.575C138.77 176.409 134.91 161.371 134.409 158.374C134.409 158.049 134.083 157.723 133.757 158.049C131.624 158.745 129.443 159.289 127.233 159.679C126.907 159.679 126.907 160.004 126.907 160.332C125.835 177.501 124.219 182.43 125.277 183.489C125.992 185.584 126.215 187.816 125.929 190.011C125.929 191.574 125.605 194.259 123.645 194.259C122.994 194.259 122.341 193.934 121.689 194.259C120.711 194.585 120.058 195.889 119.732 196.543C117.785 199.139 114.202 202.086 110.926 202.086C110.17 202.072 109.427 201.891 108.75 201.554C108.073 201.217 107.48 200.734 107.013 200.139C105.011 196.803 111.269 190.971 112.882 187.749C113.659 186.113 114.103 184.339 114.188 182.529C114.349 176.858 114.022 171.184 113.209 165.569C113.196 165.401 113.123 165.242 113.003 165.123C112.884 165.003 112.725 164.931 112.556 164.918C78.5138 176.48 62.3909 180.165 49.608 184.813C49.467 184.854 49.3432 184.94 49.2551 185.058C49.167 185.175 49.1194 185.318 49.1194 185.465C49.1194 185.612 49.167 185.755 49.2551 185.872C49.3432 185.99 49.467 186.076 49.608 186.117C89.964 201.067 120.351 212.019 187.574 230.15C254.88 206.111 292.693 189.588 325.539 175.354C325.877 174.678 325.877 174.025 325.225 174.025ZM186.28 170.437C185.955 170.437 185.528 169.961 185.955 169.785C186.119 169.716 187.126 169.281 185.303 168.154C184.016 167.359 178.322 167.8 175.191 169.132C171.828 170.812 174.494 171.633 174.866 171.741C177.123 172.161 179.428 172.271 181.715 172.067C181.921 172.049 182.125 172.108 182.29 172.232C182.455 172.355 182.568 172.535 182.608 172.737C182.649 172.939 182.613 173.149 182.508 173.326C182.404 173.504 182.237 173.637 182.041 173.699C177.294 176.073 171.876 174.301 170.952 172.067C169.89 169.502 172.274 167.438 174.866 166.523C178.607 164.978 182.786 164.862 186.608 166.198C187.093 166.366 187.542 166.625 187.93 166.962C188.117 167.125 188.265 167.327 188.363 167.554C188.462 167.781 188.509 168.028 188.5 168.275C188.491 168.522 188.427 168.765 188.313 168.985C188.199 169.204 188.037 169.396 187.84 169.545C187.346 169.886 186.825 170.185 186.28 170.437Z" fill="#191919"/>
<path d="M83.2151 82.0483C83.123 82.0483 83.0381 82.066 82.939 82.0784C82.7781 82.0056 82.6043 81.9655 82.4278 81.9603C82.2513 81.9551 82.0755 81.985 81.9106 82.0483C78.1193 83.6143 74.1875 84.8157 70.1684 85.6361C62.6831 85.6361 57.1554 87.592 59.405 87.592C62.6665 86.9712 65.9916 86.7513 69.3064 86.9371C68.8943 89.4189 68.8549 91.9484 69.1896 94.4419C69.4958 96.7269 69.8427 99.3341 71.7986 100.313C76.0359 102.734 80.8397 96.7517 82.5619 92.1586C83.5595 89.2417 83.8957 86.1395 83.5461 83.0767C83.9443 82.5882 84.0063 81.7846 83.2151 82.0483Z" fill="#191919"/>
<path d="M82.5622 77.156C81.9109 77.156 82.2366 79.103 82.8897 80.7438C84.1745 84.5518 84.1745 88.6762 82.8897 92.4842C81.5002 95.7109 77.3443 100.313 74.7353 100.964C72.1263 101.616 72.452 103.901 76.3655 103.575C80.2789 103.249 85.4987 102.596 85.4987 102.596C85.4987 102.596 97.5665 94.1161 90.7166 77.8162L82.5622 77.156Z" fill="#9A7ED9"/>
<path d="M260.32 82.6997C256.828 85.7092 253.948 89.3637 251.84 93.4631C249.944 97.4066 248.903 102.922 249.231 103.575C251.883 105.868 254.72 107.94 257.711 109.77C258.69 110.096 259.341 109.117 258.69 108.138C254.985 103.973 259.398 95.6791 262.277 90.8523C263.75 88.5493 265.769 86.6466 268.156 85.314C268.8 84.6573 260.32 82.374 260.32 82.6997Z" fill="#9A7ED9"/>
<path d="M190.195 34.4283C187.822 38.5705 185.093 42.4993 182.041 46.1705C180.737 47.1493 182.041 48.7795 180.737 50.084C180.411 50.4096 175.191 50.4096 176.17 52.0416C176.823 53.3461 178.779 57.5852 179.432 57.2595C185.627 55.3019 191.822 46.1705 192.804 43.8872C193.13 42.257 190.195 33.7769 190.195 34.4283Z" fill="#9A7ED9"/>
<path d="M206.828 75.1984C206.677 71.9066 207.006 68.6104 207.807 65.4138C206.828 64.435 207.155 62.8049 206.828 61.5004C201.603 64.4279 199.656 70.3061 199.656 75.5241C199.657 78.7022 199.984 81.8718 200.633 84.983C201.32 88.238 201.64 91.5001 202.265 94.7675C202.948 98.35 203.895 105.857 204.221 106.184C206.178 108.467 208.136 111.076 210.092 113.685C210.417 114.338 211.384 114.333 211.724 113.36C212.979 109.754 215.637 100.639 215.311 99.9873C211.251 91.8718 207.775 84.1581 206.828 75.1984Z" fill="#9A7ED9"/>
<path d="M227.704 108.467C222.698 93.4524 227.785 76.2976 218.57 62.4774C217.541 64.0262 216.337 65.4515 214.983 66.7254C216.441 73.1426 217.098 79.7157 216.94 86.2945C216.94 92.1656 217.592 105.212 217.919 105.538C220.202 108.8 222.167 112.388 224.442 115.65C224.767 116.301 226.072 115.976 226.072 115.323C226.072 113.36 228.029 108.793 227.704 108.467Z" fill="#9A7ED9"/>
<path d="M132.791 84.983C131.433 78.1968 128.132 74.3931 126.269 71.2849C125.107 70.0046 124.119 68.5762 123.332 67.0369C123.006 66.0581 123.332 64.7536 123.006 63.7766C122.681 63.1235 121.702 62.7978 121.375 62.1447C121.049 61.819 120.397 62.1447 120.07 62.4703C115.291 69.8937 120.821 79.7809 123.006 85.9547C123.946 88.5636 124.281 91.3519 123.985 94.1091C123.884 97.177 123.104 100.184 121.702 102.915C121.501 106.505 121.61 110.106 122.028 113.678C122.028 114.331 122.681 114.657 123.332 114.331C126.818 111.067 130.086 107.579 133.117 103.888C134.051 100.713 134.491 97.4129 134.421 94.1038C133.77 91.1797 133.444 88.2451 132.791 84.983Z" fill="#9A7ED9"/>
<path d="M162.144 93.7888C156.56 89.801 154.62 90.394 149.1 83.0272C142.986 74.8711 138.88 65.1962 133.444 62.4811C131.812 61.504 129.856 64.7644 130.833 66.0688C131.81 67.3733 133.116 68.3521 134.095 69.6566C135.884 72.6138 137.517 75.6623 138.988 78.7898C140.689 82.0148 142.63 84.9547 144.533 88.2487C148.399 94.9429 152.204 97.874 159.535 101.947C159.861 102.274 164.102 100.642 165.73 100.317C166.384 99.9909 166.709 99.3378 166.058 98.6864C165.081 97.3766 162.472 94.1163 162.144 93.7888Z" fill="#9A7ED9"/>
<path d="M40.4872 218.708C50.1898 226.553 60.5576 233.538 71.4728 239.584C83.3955 246.168 102.65 254.668 115.505 258.169C119.033 259.191 122.63 259.954 126.268 260.452C127.246 260.452 127.573 259.473 126.594 259.147C124.962 258.822 123.658 258.169 122.028 257.843C120.397 257.517 119.093 256.864 117.461 256.538C96.6533 250.792 76.8524 241.882 58.7518 230.119C52.8241 226.291 46.684 222.616 41.1403 218.377C41.1245 218.325 41.0976 218.278 41.0613 218.237C41.0251 218.197 40.9805 218.165 40.9306 218.144C40.8807 218.122 40.8267 218.112 40.7725 218.114C40.7183 218.116 40.6651 218.129 40.6167 218.154C40.5683 218.178 40.5259 218.213 40.4924 218.256C40.4589 218.299 40.4351 218.348 40.4228 218.401C40.4104 218.454 40.4098 218.509 40.4209 218.562C40.4321 218.615 40.4547 218.665 40.4872 218.708Z" fill="#191919"/>
<path d="M125.616 309.382C156.086 314.46 212.346 331.618 241.402 342.323C241.728 342.323 241.728 342.649 242.055 342.649C242.098 342.648 242.141 342.656 242.181 342.672C242.221 342.688 242.257 342.712 242.288 342.742C242.318 342.773 242.342 342.809 242.358 342.849C242.374 342.889 242.382 342.932 242.381 342.975H242.707C244.011 343.628 244.99 341.67 243.685 341.344C224.081 332.119 145.286 310.9 126.92 309.054C126.357 309.105 125.791 308.992 125.29 308.729C124.963 308.403 124.963 309.054 125.616 309.382Z" fill="#191919"/>
<path d="M21.8966 288.51C47.8076 288.51 77.7525 292.868 81.9102 294.055C84.5192 294.381 86.8025 295.034 89.4115 295.36C90.3903 295.36 91.0363 294.077 89.7371 293.73C82.6979 291.845 53.5672 288.156 36.8991 287.859C31.6811 287.765 26.7889 287.859 21.5709 287.859C21.5709 287.855 21.2399 288.51 21.8966 288.51Z" fill="#191919"/>
<path d="M36.5739 216.752C29.7559 219.308 17.9889 231.419 15.7003 235.996C14.8244 237.115 14.0596 238.316 13.417 239.584C13.0913 240.561 14.0683 241.531 14.7215 240.561C15.3711 239.4 16.136 238.308 17.0048 237.3C17.7726 236.135 18.6459 235.043 19.6138 234.038C23.0738 229.803 26.8929 225.874 31.0285 222.296C33.3118 220.666 35.5951 219.036 37.5527 217.404C37.227 217.078 37.227 216.752 36.5739 216.752Z" fill="#191919"/>
<path d="M13.0988 241.214C26.3738 249.51 59.0958 261.682 80.6136 264.371C80.7383 264.363 80.8555 264.308 80.9411 264.217C81.0268 264.126 81.0745 264.006 81.0745 263.881C81.0745 263.756 81.0268 263.636 80.9411 263.545C80.8555 263.454 80.7383 263.399 80.6136 263.392C71.5935 261.672 62.6665 259.495 53.8672 256.869C35.5707 251.545 18.0972 242.425 13.7501 240.561C13.0988 239.909 12.4386 240.897 13.0988 241.214Z" fill="#191919"/>
<path d="M14.396 245.127C10.4807 250.019 9.50367 256.216 9.17622 262.415C8.80983 265.719 8.50185 275.785 9.50367 280.026C10.124 283.185 11.589 286.117 13.7428 288.51C13.8239 288.613 13.926 288.699 14.0424 288.76C14.1589 288.821 14.287 288.857 14.4183 288.865C14.5496 288.873 14.681 288.853 14.804 288.806C14.927 288.759 15.0387 288.687 15.1317 288.594C15.2247 288.501 15.2969 288.39 15.3435 288.267C15.3902 288.144 15.4101 288.012 15.4022 287.881C15.3942 287.75 15.3584 287.621 15.2973 287.505C15.2361 287.389 15.1509 287.286 15.0473 287.205C11.4595 282.966 10.8082 277.421 10.8082 272.203C10.8082 263.976 10.6028 252.896 15.0473 245.784C15.373 245.127 14.7216 244.801 14.396 245.127Z" fill="#191919"/>
<path d="M274.996 265.024C274.154 260.096 272.016 255.48 268.801 251.651C266.876 249.726 264.455 248.372 261.807 247.738C259.159 247.105 256.387 247.218 253.799 248.064C253.471 248.064 252.82 248.389 252.493 248.389C228.75 253.816 196.09 262.523 159.538 263.392C158.886 263.408 158.886 264.045 159.538 264.371C193.021 266.141 238.605 253.313 246.622 251.981C240.719 257.884 237.618 265.07 234.232 272.529C233.94 273.668 233.501 274.764 232.927 275.791C212.763 279.037 192.359 280.564 171.936 280.356C165.741 280.356 159.867 280.356 153.67 280.03C153.019 280.03 153.019 280.683 153.67 280.683C174.084 282.415 194.616 282.196 214.988 280.03C227.286 278.653 229.348 278.529 233.253 277.747C233.906 277.421 234.232 276.442 233.58 276.116C235.949 269.755 239.128 263.726 243.039 258.177C245.915 253.86 249.326 250.664 254.454 250.023C256.801 249.371 259.282 249.371 261.629 250.023C265.877 251.328 268.46 255.25 270.109 259.156C280.413 283.536 261.029 341.348 243.69 341.348C239.442 341.348 236.89 337.1 235.863 333.847C234.609 329.945 233.949 325.877 233.906 321.779C233.595 307.572 236.966 293.527 243.69 281.009C245.945 277.628 249.708 272.203 253.802 272.203C258.367 271.55 260.72 276.431 261.304 280.03C262.612 288.098 259.403 294.864 258.042 298.948C251.519 298.622 245.002 297.806 238.472 297.643C238.406 297.639 238.339 297.649 238.276 297.672C238.213 297.694 238.156 297.73 238.107 297.776C238.058 297.821 238.019 297.877 237.993 297.938C237.966 297.999 237.953 298.066 237.953 298.133C237.953 298.199 237.966 298.266 237.993 298.327C238.019 298.388 238.058 298.444 238.107 298.489C238.156 298.535 238.213 298.571 238.276 298.593C238.339 298.616 238.406 298.626 238.472 298.622C244.995 299.273 251.519 299.926 258.367 300.569C259.02 300.896 259.672 301.222 259.999 300.243C262.123 295.836 263.448 291.088 263.913 286.218C264.217 281.97 263.893 276.777 260.976 273.173C259.733 271.443 257.858 270.271 255.758 269.911H251.192C249.562 269.911 247.931 270.236 246.299 270.236C243.397 270.777 240.444 270.996 237.494 270.89C236.841 270.89 236.841 271.541 237.494 271.541C240.427 271.704 243.366 271.704 246.299 271.541C247.289 271.594 248.281 271.484 249.236 271.215H248.908C245.044 274.338 242.018 278.373 240.103 282.957C235.668 292.412 232.909 302.565 231.948 312.964C231.423 317.515 231.423 322.111 231.948 326.662C232.358 331.071 233.815 335.319 236.196 339.052C240.168 344.513 247.487 345.649 256.091 335.792C262.024 328.995 265.569 320.469 268.481 312.308C272.129 302.12 274.325 291.47 275.003 280.671C276.242 275.528 276.24 270.165 274.996 265.024Z" fill="#191919"/>
<path d="M265.212 205.989C265.212 205.336 264.559 205.01 263.907 205.01C259.495 206.971 192.491 231.585 187.585 234.038C87.3251 202.936 94.6405 205.01 93.651 205.01C93.4826 205.023 93.3244 205.096 93.2049 205.216C93.0855 205.335 93.0127 205.493 92.9997 205.662C92.8368 217.407 92.9997 244.149 93.3254 244.149C97.6452 246.222 102.115 247.967 106.698 249.368C113.222 251.386 124.292 254.938 129.531 255.891C130.553 255.714 131.543 255.384 132.467 254.912C133.772 254.586 135.076 254.586 136.381 254.261C142.949 253.604 156.858 258.243 168.996 259.153C177.986 259.827 192.229 257.36 200.961 255.565C223.397 250.951 227.093 250.336 253.146 243.823C258.364 242.518 265.214 244.476 265.214 243.497C266.191 231.104 265.375 218.386 265.212 205.989Z" fill="#191919"/>
<path d="M209.765 50.091C207.795 53.842 206.576 57.9412 206.177 62.1589C206.177 65.5608 207.103 66.3856 209.765 67.0511C210.926 67.4264 212.133 67.646 213.352 67.7043C217.492 67.7043 218.97 64.5501 219.875 60.5287C220.376 58.9379 220.704 57.2976 220.854 55.6364C220.826 55.5386 220.775 55.4489 220.705 55.3754C220.634 55.3018 220.547 55.2465 220.451 55.2142C220.354 55.1819 220.251 55.1737 220.151 55.1902C220.051 55.2067 219.956 55.2475 219.875 55.309C217.946 59.1693 217.928 65.5183 214.004 66.3998C212.692 66.601 211.351 66.4888 210.09 66.0723C207.526 65.4316 206.28 64.9679 207.481 59.8773C208.172 56.9515 208.786 53.6823 209.765 50.7459C210.416 50.091 209.991 49.6556 209.765 50.091Z" fill="#191919"/>
<path d="M204.22 54.6505C203.824 55.1647 203.609 55.7954 203.609 56.4444C203.609 57.0934 203.824 57.7241 204.22 58.2383C204.359 58.6206 204.64 58.9351 205.004 59.1171C205.368 59.2991 205.788 59.3349 206.177 59.2171C206.503 59.2171 206.503 58.8897 206.503 58.564C205.399 57.4595 204.71 56.9604 204.873 55.955C204.914 55.6235 205.065 55.3153 205.301 55.079C205.538 54.8428 205.846 54.692 206.177 54.6505C206.884 54.6505 205.988 52.8823 204.22 54.6505Z" fill="#191919"/>
<path d="M220.854 61.173C222.801 62.1482 224.683 60.0703 223.791 57.9126C223.582 57.2204 223.114 56.6357 222.484 56.2807C221.831 55.9904 221.707 56.7073 221.833 56.9338C222.114 57.301 222.317 57.7221 222.429 58.1708C222.541 58.6195 222.56 59.0865 222.484 59.5428C222.332 59.8426 222.098 60.0935 221.81 60.2666C221.522 60.4398 221.19 60.5281 220.854 60.5216C220.81 60.5637 220.775 60.6143 220.752 60.6703C220.728 60.7262 220.715 60.7864 220.715 60.8473C220.715 60.9081 220.728 60.9683 220.752 61.0243C220.775 61.0803 220.81 61.1308 220.854 61.173Z" fill="#191919"/>
<path d="M178.453 56.6081C180.662 60.5711 183.286 64.2883 186.28 67.6971C191.194 73.7682 191.741 73.7664 192.475 74.8727C193.293 75.9079 194.286 76.791 195.41 77.4817C195.736 77.4817 196.063 77.4817 196.063 77.156C195.289 74.8391 188.755 68.5095 187.583 67.044C184.646 63.7836 182.037 59.8684 179.101 56.601C179.059 56.5579 179.008 56.5237 178.952 56.5007C178.896 56.4776 178.836 56.466 178.776 56.4667C178.715 56.4674 178.655 56.4802 178.6 56.5045C178.545 56.5288 178.495 56.564 178.453 56.6081Z" fill="#191919"/>
<path d="M194.109 77.8074C193.131 87.5919 193.131 97.7039 193.131 107.814C193.131 125.203 192.732 150.487 193.784 158.369C193.784 158.498 193.835 158.623 193.927 158.714C194.018 158.806 194.143 158.857 194.272 158.857C194.402 158.857 194.526 158.806 194.618 158.714C194.709 158.623 194.761 158.498 194.761 158.369C195.088 154.121 194.761 149.563 194.761 145.322C194.761 139.779 195.088 82.6996 195.088 77.8074C194.436 77.4817 194.109 77.4817 194.109 77.8074Z" fill="#191919"/>
<path d="M235.205 94.4419C237.768 106.952 250.122 139.188 252.165 144.997C253.413 148.905 254.94 152.72 256.732 156.411C257.07 157.059 257.71 156.411 257.71 156.086C255.015 146.202 254.347 146.705 249.882 133.253C246.058 121.748 240.786 109.329 236.184 94.4402C235.955 93.7021 235.095 93.9056 235.205 94.4419Z" fill="#191919"/>
<path d="M187.587 16.4893C187.111 17.33 186.76 18.0239 185.955 17.4681C185.891 17.4238 180.468 11.9811 180.411 11.9227C180.084 11.597 179.82 11.0625 179.105 10.9456C178.604 10.8625 178.16 11.374 178.431 11.7475C179.02 12.5652 182.928 16.2079 183.861 17.1406C184.514 17.7938 185.493 19.0983 186.472 19.0983C187.451 19.0983 187.971 17.8115 188.242 16.8167C188.352 16.3902 187.813 16.0875 187.587 16.4893Z" fill="#191919"/>
<path d="M174.866 14.206C177.284 15.5176 177.275 16.4893 178.128 16.4893C178.454 16.4893 178.728 16.2079 178.454 15.8379C177.562 14.7907 176.337 14.082 174.985 13.8308C174.939 13.827 174.894 13.8388 174.856 13.8643C174.818 13.8898 174.789 13.9274 174.776 13.9711C174.762 14.0147 174.763 14.0617 174.78 14.1044C174.796 14.1471 174.827 14.1829 174.866 14.206Z" fill="#191919"/>
<path d="M172.257 18.7725C173.285 18.9241 174.278 19.2555 175.191 19.7513C175.919 20.0823 176.16 20.4593 176.496 20.077C176.832 19.6947 176.129 19.0893 175.517 18.7725C174.536 18.1913 173.386 17.9616 172.257 18.1211C171.717 18.1265 171.71 18.7814 172.257 18.7725Z" fill="#191919"/>
<path d="M171.603 23.9906C176.586 25.7889 179.556 25.8969 181.062 27.9058C181.948 29.2509 182.712 30.6725 183.345 32.1538C184.168 33.7705 185.151 35.3004 186.28 36.7204C186.607 37.0461 187.259 36.7204 187.259 36.0673C186.622 34.276 185.859 32.5322 184.975 30.8494C183.607 27.4262 181.966 25.3624 178.127 24.6544C176.18 24.3004 174.216 23.6632 172.256 23.3499C171.269 23.187 171.245 23.8632 171.603 23.9906Z" fill="#191919"/>
<path d="M216.614 51.7158C214.331 50.4095 213.097 47.2908 210.743 46.4961C210.183 46.2286 209.57 46.0897 208.949 46.0897C208.328 46.0897 207.716 46.2286 207.155 46.4961C206.654 46.8044 206.241 47.2364 205.955 47.7507C205.669 48.265 205.521 48.8441 205.523 49.4325C205.523 50.0838 206.177 50.0838 206.502 49.4325C206.724 49.0089 207.038 48.6403 207.421 48.3537C207.804 48.0671 208.246 47.8696 208.715 47.7758C209.184 47.682 209.668 47.6941 210.131 47.8114C210.595 47.9287 211.027 48.1481 211.395 48.4537C212.745 49.5599 213.924 51.6945 216.614 52.3671C216.614 52.3671 217.028 51.8999 216.614 51.7158Z" fill="#191919"/>
<path d="M208.46 44.2128C209.499 43.8941 210.597 43.8166 211.671 43.9862C212.744 44.1559 213.765 44.5681 214.655 45.1917C217.29 46.9493 217.434 50.4096 218.243 50.4096C218.411 50.397 218.57 50.3244 218.69 50.2049C218.81 50.0854 218.883 49.927 218.896 49.7583C218.896 47.8113 216.475 45.2094 214.981 44.2128C213.983 43.5258 212.813 43.1312 211.603 43.0736C210.393 43.0161 209.191 43.2979 208.133 43.8872C208.133 43.8872 208.134 44.5403 208.46 44.2128Z" fill="#191919"/>
<path d="M220.203 44.5402C220.869 45.4729 221.305 46.5503 221.475 47.684C221.645 48.8177 221.544 49.9756 221.18 51.0627C221.18 51.3883 220.203 53.346 221.507 53.0203C222.812 52.3671 222.974 50.1086 222.812 48.4537C222.571 46.8819 221.892 45.4097 220.854 44.2057C220.528 43.8959 220.011 44.2942 220.203 44.5402Z" fill="#191919"/>
<path d="M214.657 59.2171C213.129 59.1529 211.598 59.2365 210.085 59.4667C209.443 59.5711 209.439 60.1959 210.085 60.1959H211.717C211.671 60.628 211.737 61.0647 211.908 61.4642C212.079 61.8637 212.35 62.2126 212.694 62.4774C214.326 63.1306 215.305 61.8261 215.305 60.1959C215.636 59.5428 215.31 59.2171 214.657 59.2171ZM213.353 61.1641C213.229 61.0358 213.136 60.8814 213.079 60.7124C213.023 60.5434 213.005 60.3639 213.027 60.1871H214.331C214.331 61.3252 214.17 61.1729 213.353 61.1729V61.1641Z" fill="#191919"/>
<path d="M213.521 57.3356C213.571 57.3126 213.615 57.2792 213.651 57.2377C213.687 57.1962 213.714 57.1475 213.73 57.0949C214.027 56.1953 214.229 55.2668 214.331 54.3248C214.278 53.5973 213.607 54.0204 213.353 54.6505C213.078 55.3266 212.958 55.7231 212.699 56.2807C212.588 56.5974 212.588 56.9428 212.699 57.2595C212.806 57.5391 212.991 57.5798 213.521 57.3356Z" fill="#191919"/>
<path d="M233.575 90.2009C238.564 94.9215 243.789 99.3853 249.231 103.575C251.049 104.786 252.594 106.545 254.449 107.163C254.774 107.163 255.102 106.835 254.774 106.51C254.116 105.522 234.405 89.6947 234.227 89.5496C233.575 89.5496 233.248 89.8752 233.575 90.2009Z" fill="#191919"/>
<path d="M278.258 82.6997C276.12 82.9847 270.344 84.4307 268.571 84.0006C249.66 79.4075 243.996 71.2035 232.596 66.3927C229.483 65.039 226.185 64.1596 222.811 63.7837C221.832 64.1094 221.832 64.4351 222.158 64.4351C237.709 66.89 244.256 77.8516 261.723 83.6749C269.174 86.1529 270.077 86.0379 274.017 84.983C275.316 84.629 276.628 84.3369 277.932 84.0042C279.212 83.6934 280.532 83.5835 281.846 83.6785C282.435 83.6785 282.246 82.1705 278.258 82.6997Z" fill="#191919"/>
<path d="M280.652 86.5618C280.665 86.5382 280.674 86.5118 280.675 86.4846C280.677 86.4574 280.673 86.4301 280.662 86.4049C280.652 86.3797 280.636 86.3573 280.615 86.3394C280.595 86.3215 280.57 86.3085 280.544 86.3016C280.078 86.1883 279.756 86.8326 279.563 87.2662C277.875 91.1337 283.193 92.5285 285.109 94.4418C286.427 95.7605 285.994 95.7392 286.348 95.8808C286.424 95.9203 286.51 95.939 286.596 95.9349C286.683 95.9308 286.766 95.9041 286.839 95.8575C286.911 95.8108 286.97 95.7459 287.01 95.6693C287.05 95.5926 287.068 95.5068 287.064 95.4206C287.064 94.8171 285.546 93.0559 285.365 92.8789C283.47 91.0417 281.595 91.6682 280.469 88.9477C280.334 88.559 280.28 88.1463 280.311 87.7357C280.342 87.3251 280.458 86.9254 280.652 86.5618Z" fill="#191919"/>
<path d="M280.214 95.7464C281.52 97.0509 283.164 98.6687 284.462 99.9944C284.68 100.217 285.804 100.568 285.115 99.3413C283.952 97.6682 282.38 96.3209 280.548 95.4278C280.21 95.2366 279.888 95.4207 280.214 95.7464Z" fill="#191919"/>
<path d="M278.909 102.922C279.263 103.63 280.023 104.014 279.888 102.271C279.839 101.619 278.258 97.704 277.279 99.0085C277.691 100.364 278.237 101.675 278.909 102.922Z" fill="#191919"/>
<path d="M157.906 262.415C156.474 261.568 154.939 260.91 153.339 260.457C151.761 259.768 150.123 259.222 148.447 258.827C145.177 257.783 141.769 257.233 138.336 257.195C131.363 257.195 119.397 264.07 114.852 273.178C114.526 273.504 115.178 273.83 115.505 273.504C119.018 268.63 123.59 264.615 128.878 261.762C131.456 260.229 134.363 259.334 137.358 259.153C140.567 258.921 143.79 259.365 146.817 260.457C149.374 261.152 151.881 262.024 154.318 263.066C148.172 263.834 146.153 265.544 142.576 266.98C140.838 267.729 139.281 268.841 138.009 270.242C137.683 270.895 138.009 271.872 138.662 271.546C140.505 270.765 142.255 269.781 143.88 268.612C145.185 267.958 146.475 267.277 147.794 266.654C150.7 265.284 154.318 265.024 157.252 264.045H157.58C158.238 263.719 158.557 263.066 157.906 262.415Z" fill="#9A7ED9"/>
<path d="M150.73 273.83C149.404 272.81 147.864 272.104 146.225 271.765C144.587 271.426 142.893 271.463 141.271 271.872C135.867 272.691 130.628 274.363 125.75 276.828C124.982 275.866 124.022 275.074 122.933 274.501C121.843 273.928 120.647 273.587 119.419 273.499C116.697 273.515 114.057 274.437 111.918 276.12C107.67 279.692 104.742 287.536 110.939 291.122C112.133 291.73 113.449 292.059 114.788 292.085C116.127 292.111 117.455 291.833 118.672 291.273C121.12 296.303 125.43 300.311 129.529 303.84C131.807 305.803 134.428 309.09 138.009 308.407C141.277 307.782 143.592 304.194 145.512 301.557C149.735 296.047 152.435 289.522 153.339 282.639C153.658 279.373 153.339 275.787 150.73 273.83ZM145.512 297.965C144.383 299.47 142.239 303.518 139.641 305.467C139.071 305.988 138.343 306.303 137.573 306.363C136.804 306.422 136.036 306.222 135.393 305.794C134.119 304.914 132.919 303.932 131.805 302.858C126.587 298.291 121.955 293.76 118.759 287.529C118.426 286.88 117.454 287.202 117.454 288.181C117.631 288.771 117.832 289.344 118.058 289.899C117.361 290.242 116.6 290.434 115.824 290.464C114.726 290.526 113.626 290.417 112.562 290.138C111.311 289.744 110.267 288.872 109.656 287.712C109.045 286.552 108.917 285.197 109.3 283.943C111.015 276.377 118.971 272.403 125.201 277.099C122.997 278.123 120.941 279.438 119.086 281.009C118.759 281.662 119.077 282.299 119.737 281.988C125.463 279.287 125.203 277.998 138.002 274.159C140.963 273.238 144.116 273.126 147.135 273.833C148.629 274.193 149.92 275.132 150.723 276.442C151.257 277.791 151.479 279.243 151.374 280.69C151.381 286.876 148.772 292.747 145.512 297.965Z" fill="#9A7ED9"/>
<path d="M113.873 273.504C112.243 270.895 110.581 268.307 108.655 265.675C105.719 261.664 102.637 255.521 97.239 256.869C94.8354 257.734 92.8526 259.484 91.6953 261.762C88.9176 266.049 86.9292 270.799 85.8242 275.787C84.8773 280.359 84.1941 286.551 88.4332 289.811C90.7165 291.768 93.3255 291.443 96.2619 290.464C99.1966 289.159 102.133 287.855 105.068 286.216C106.046 285.565 105.068 284.269 104.089 284.586C98.1877 287.115 94.0636 290.4 90.3908 288.834C86.1428 286.551 86.7128 280.989 87.4544 277.092C88.3002 272.639 90.0791 268.417 92.6741 264.702C93.2563 263.782 93.9103 262.909 94.63 262.093C95.2106 261.08 95.9868 260.193 96.9133 259.484C98.8709 258.179 101.48 259.484 102.784 261.114C106.059 264.39 109.333 271.155 113.227 274.488C113.548 274.808 114.201 274.155 113.873 273.504Z" fill="#9A7ED9"/>
<path d="M105.393 286.876C102.987 288.327 100.972 290.342 99.5217 292.747C97.5835 295.257 95.2743 297.456 92.6735 299.27C88.9534 302.049 84.899 304.35 80.6057 306.12C79.0059 306.569 77.471 307.224 76.0391 308.067C75.7134 308.394 75.7134 308.72 76.0391 308.72C76.0391 309.046 76.0391 309.373 76.3647 309.373C78.7747 310.197 81.3254 310.529 83.866 310.35C85.8287 310.404 87.7924 310.295 89.7371 310.024C87.0697 313.226 86.075 316.127 82.889 321.441C81.8803 322.706 81.1069 324.142 80.6057 325.68C80.2782 326.333 81.257 326.659 81.9102 326.333C83.069 325.246 83.9618 323.906 84.5191 322.418C87.2998 317.784 89.6362 312.734 92.6735 309.699C92.8298 309.577 92.9422 309.407 92.9939 309.216C93.0455 309.024 93.0336 308.821 92.9599 308.637C92.8863 308.453 92.7548 308.298 92.5854 308.195C92.416 308.092 92.2177 308.047 92.0204 308.067C88.1222 308.502 84.1946 308.612 80.2782 308.394C80.9313 308.067 81.257 308.067 81.9102 307.741C83.2146 307.09 84.859 306.465 86.1493 305.785C90.9389 303.258 97.8862 298.505 101.154 294.043C102.731 291.554 104.591 289.255 106.697 287.193C106.377 287.202 105.718 286.551 105.393 286.876Z" fill="#9A7ED9"/>
<path d="M122.68 305.148C121.867 301.296 120.551 297.568 118.765 294.059C118.684 293.998 118.59 293.957 118.49 293.941C118.39 293.924 118.287 293.933 118.191 293.965C118.095 293.997 118.008 294.052 117.938 294.125C117.867 294.198 117.816 294.287 117.788 294.385C118.739 297.489 119.501 300.647 120.07 303.843C120.723 307.106 121.048 310.366 121.374 313.628C121.435 314.335 121.351 315.047 121.127 315.72C120.903 316.393 120.543 317.013 120.07 317.541C117.061 320.55 112.823 323.614 109.627 326.349C108.133 327.331 106.713 328.421 105.379 329.609C104.727 330.262 103.748 330.588 103.095 331.241C103.052 331.24 103.009 331.248 102.97 331.264C102.93 331.28 102.893 331.304 102.863 331.335C102.832 331.365 102.808 331.401 102.792 331.441C102.776 331.481 102.769 331.524 102.77 331.567C102.77 323.368 102.86 322.616 102.444 321.782C102.444 321.457 102.444 321.129 101.791 320.804C101.138 320.478 100.486 320.804 99.835 320.804C99.1836 320.804 98.8561 321.129 98.203 321.129C96.8985 321.457 95.594 321.457 94.2895 321.782C92.3319 322.108 90.3761 322.108 88.7441 322.434C91.3549 320.804 93.9639 318.846 96.5729 317.216C99.1818 315.586 101.768 313.598 104.4 311.67C106.724 310.032 108.538 307.771 109.634 305.148C110.903 301.872 110.612 298.625 110.938 295.363C110.938 295.038 110.285 294.385 110.285 295.038C108.191 299.748 110.375 304.95 102.784 310.366C100.007 312.747 89.7654 318.97 86.1458 321.782C86.0126 321.921 85.9137 322.088 85.8569 322.272C85.8002 322.455 85.7872 322.649 85.819 322.838C85.8509 323.028 85.9266 323.207 86.0402 323.362C86.1539 323.516 86.3021 323.642 86.4732 323.729C89.1817 324.044 91.9174 324.044 94.6258 323.729C95.9303 323.729 97.2348 323.404 98.2136 323.404C98.8668 323.404 99.5181 323.078 100.171 323.078H100.823V333.521C100.836 333.69 100.909 333.848 101.029 333.968C101.148 334.087 101.307 334.16 101.476 334.172H102.129C102.78 333.847 103.433 333.847 104.085 333.521C105.678 332.728 109.926 329.793 110.609 329.273C113.218 327.315 115.827 325.025 118.436 323.078C120.719 321.12 123.259 319.156 123.654 315.902C123.943 312.288 123.614 308.651 122.68 305.148Z" fill="#9A7ED9"/>
<path d="M129.529 50.4095C129.338 50.4095 128.747 50.475 129.857 52.6928C130.35 53.9367 130.572 55.2715 130.508 56.6081C130.411 57.024 129.529 57.5515 129.529 58.2383C129.529 62.8208 129.761 63.3022 128.55 64.1093C127.821 64.3763 127.044 64.4873 126.269 64.435C125.29 64.435 124.311 64.1093 123.007 64.1093C122.681 64.1093 122.681 64.7607 122.681 64.7607C123.658 65.3485 124.766 65.686 125.905 65.7431C127.044 65.8002 128.179 65.5753 129.21 65.0882C131.375 63.6438 130.189 60.5924 130.189 58.5639C130.446 58.5875 130.704 58.539 130.934 58.424C131.165 58.3089 131.358 58.1318 131.494 57.9126C132.927 55.3832 129.858 50.7388 129.529 50.4095Z" fill="#191919"/>
<path d="M123.658 58.2329C123.395 58.5492 123.226 58.9334 123.171 59.3414C123.116 59.7494 123.177 60.1646 123.347 60.5393C123.518 60.9141 123.791 61.2331 124.134 61.4598C124.478 61.6865 124.879 61.8116 125.29 61.8207C126.161 61.734 126.69 61.4048 126.595 60.5162C126.55 60.1109 125.616 60.5162 124.963 60.5162C124.637 60.5162 124.311 59.8631 124.311 59.5374C124.311 59.5427 124.637 57.2594 123.658 58.2329Z" fill="#191919"/>
<path d="M126.92 47.475C121.516 47.475 121.021 53.4045 120.725 53.9974C120.399 54.3249 119.452 54.0718 118.767 54.3249C114.696 55.8276 116.965 62.0297 120.072 59.5428C120.725 58.8897 120.072 57.5852 119.42 58.2383C118.442 58.8897 118.116 57.2595 118.442 56.6082C119.548 54.3939 121.373 56.9409 122.69 54.3249C123.274 52.569 123.46 49.2786 127.582 48.4538C127.246 48.1281 127.246 47.475 126.92 47.475Z" fill="#191919"/>
<path d="M125.615 44.866C119.804 43.804 115.859 54.1461 118.765 52.6929C120.293 51.1654 119.507 47.5599 125.615 45.5174C125.941 45.5174 125.941 44.866 125.615 44.866Z" fill="#191919"/>
<path d="M126.92 42.9083C119.292 41.3826 114.853 48.7635 114.853 51.7159C114.853 52.7248 116.483 53.1549 116.483 50.4096C117.257 48.3654 118.645 46.6104 120.455 45.3846C122.265 44.1588 124.409 43.5221 126.595 43.5615C127.246 43.5615 127.246 42.9083 126.92 42.9083Z" fill="#191919"/>
<path d="M116.482 60.5217C116.482 60.196 116.157 59.8685 115.831 60.196C115.222 61.2489 114.678 62.3377 114.201 63.4563C113.078 63.7522 112.032 64.2842 111.132 65.0167C110.232 65.7493 109.499 66.6656 108.981 67.7043C107.774 70.1204 114.153 69.3097 114.852 64.7679C115.728 63.5035 116.287 62.0472 116.482 60.5217Z" fill="#191919"/>
<path d="M110.286 62.8049C111.677 61.0906 112.88 59.2314 113.874 57.2595C113.874 55.0506 110.247 61.173 109.634 61.173C108.835 61.2256 108.057 61.4483 107.351 61.8261C106.224 62.6386 104.084 63.7731 105.068 64.7608C106.443 66.1361 110.286 64.7183 110.286 62.8049Z" fill="#191919"/>
<path d="M108.981 58.564C111.647 57.2312 112.225 55.647 113.548 54.316C113.873 53.9885 113.222 53.3372 112.895 53.6628C112.243 54.316 108.981 56.925 108.002 56.925C107.677 56.925 106.046 57.2506 105.393 57.2506C103.413 57.2506 101.951 58.7905 104.089 59.8596C106.62 61.134 108.981 59.4401 108.981 58.564Z" fill="#191919"/>
<path d="M125.289 52.3672C125.504 52.153 128.652 50.4095 125.615 50.4095C124.385 50.4095 124.473 53.1831 125.289 52.3672Z" fill="#191919"/>
<path d="M153.339 48.1281C151.507 48.7369 151.56 49.4219 145.185 53.6717C142.654 55.2541 139.816 56.5285 136.968 58.0967C136.577 58.3109 136.754 58.8932 137.032 58.8932C140.106 57.9268 143.06 56.6139 145.838 54.9797C146.528 54.6257 153.58 49.6113 153.992 49.1086C154.284 48.7493 153.665 48.1281 153.339 48.1281Z" fill="#191919"/>
<path d="M157.252 68.6759C155.362 69.783 153.401 70.7634 151.381 71.6106C150.898 71.7717 146.639 73.5841 146.489 74.2196C145.914 76.6569 155.006 71.9398 157.773 69.4406C157.859 69.3659 157.915 69.2621 157.93 69.1488C157.945 69.0355 157.918 68.9207 157.853 68.8263C157.789 68.7318 157.692 68.6643 157.581 68.6366C157.471 68.6089 157.353 68.6229 157.252 68.6759Z" fill="#191919"/>
<path d="M142.485 81.4376C142.747 83.1174 143.193 84.6626 143.547 86.6131C143.941 88.3963 144.486 90.1425 145.177 91.8328C152.257 110.367 144.191 90.5744 159.203 125.1C160.182 127.058 160.833 129.015 161.812 130.971C162.791 132.927 163.442 134.886 164.421 136.516C164.748 136.842 165.074 136.516 165.074 136.191C164.679 134.514 164.132 132.877 163.442 131.299C161.592 126.67 164.283 133.277 156.266 115.643C149.44 100.621 148.406 98.2526 144.852 87.5919C144.199 85.6361 143.846 83.7121 142.997 81.6961C142.745 81.0854 142.416 80.9987 142.485 81.4376Z" fill="#191919"/>
<path d="M116.809 67.6971C108.352 71.1787 99.9448 76.5029 91.0417 76.5029H86.4751C84.8449 76.5029 83.5404 76.1772 81.9103 76.1772C80.9315 76.1772 80.9315 77.156 81.5828 77.4817C87.2468 79.3685 94.6242 77.6782 100.501 76.5029C106.56 74.7255 112.289 71.9712 117.461 68.3485C117.448 68.1801 117.375 68.0219 117.255 67.9024C117.136 67.783 116.978 67.7102 116.809 67.6971Z" fill="#191919"/>
<path d="M77.9952 103.575C98.6511 104.09 118.08 92.1586 114.201 92.1586C109.66 93.6719 104.338 97.8491 96.9129 99.3341C90.8451 101.051 84.6178 102.144 78.3279 102.596C77.6695 102.922 77.6695 103.566 77.9952 103.575Z" fill="#191919"/>
<path d="M81.5833 78.7862C79.2717 78.2074 77.8911 77.5967 77.0184 75.8515C76.9299 75.6745 72.8289 69.0919 71.473 68.6759C68.9225 67.8901 70.696 69.8548 70.8199 69.9804C71.3261 70.4849 75.7582 77.6782 77.6698 79.1119C80.7762 81.1828 82.4258 78.7862 81.5833 78.7862Z" fill="#191919"/>
<path d="M69.8426 71.9363C69.8426 74.8462 61.9112 70.3062 58.7518 70.3062C54.3268 70.3062 68.3098 75.7471 69.5151 74.5541C71.2126 73.986 69.8426 70.6088 69.8426 71.9363Z" fill="#191919"/>
<path d="M57.7744 77.4817C66.6528 77.4817 64.081 76.5029 62.3393 76.5029C57.7337 76.5029 56.8664 77.4817 57.7744 77.4817Z" fill="#191919"/>
<path d="M58.7517 82.6997C59.8651 82.1439 65.499 81.1846 63.6458 80.4164C62.559 79.9668 55.948 82.6997 58.7517 82.6997Z" fill="#191919"/>
<path d="M165.081 45.843C166.178 45.1827 168.752 39.4851 168.343 37.3629C168.281 37.0425 167.69 36.7098 167.364 37.0354C166.19 39.6792 165.21 42.4051 164.433 45.1916C164.433 45.5173 164.757 46.0394 165.081 45.843Z" fill="#191919"/>
<path d="M171.278 36.3859C171.278 37.3647 170.57 38.8143 171.93 39.3206C173.192 39.7878 174.585 38.7311 175.564 38.0816C177.279 37.2541 178.904 36.2498 180.412 35.0849C180.734 34.1044 179.378 34.1362 178.996 34.3964C178.613 34.6566 173.084 37.9099 172.907 38.0196C172.636 38.1966 172.581 38.3453 172.255 38.3453C171.602 38.3453 171.684 37.1435 171.724 36.6833C171.785 36.0832 171.278 36.0584 171.278 36.3859Z" fill="#191919"/>
<path d="M183.949 37.9682C183.857 37.8763 183.746 37.8058 183.624 37.7618C183.501 37.7177 183.371 37.7012 183.241 37.7133C181.309 37.9045 177.363 39.5577 178.133 40.625C178.56 41.2179 179.195 40.8197 179.583 40.5666C182.737 38.4868 184.087 38.901 184.254 38.501C184.335 38.2921 184.162 38.1806 183.949 37.9682Z" fill="#191919"/>
<path d="M183.671 42.9084C182.735 42.786 181.784 42.8685 180.883 43.1503C179.982 43.4321 179.153 43.9064 178.453 44.5404C178.128 44.866 178.453 45.1917 178.779 45.1917C178.956 45.1917 183.494 43.9757 183.671 43.8872C183.999 43.5616 184.323 42.9633 183.671 42.9084Z" fill="#191919"/>
<path d="M180.411 49.105C180.082 48.9988 179.733 48.9731 179.392 49.03C179.052 49.087 178.73 49.225 178.453 49.4325C170.556 49.2678 171.099 48.7333 169.205 49.0572C166.908 49.4864 164.725 50.3907 162.798 51.7122C162.696 55.2395 163.136 58.7615 164.102 62.1552C164.428 63.134 165.081 63.7872 166.06 63.4597C166.945 62.8668 168.218 51.9388 167.538 50.7546C170.711 50.0927 172.175 51.0662 176.821 51.0662C178.204 51.2511 179.604 50.901 180.737 50.0874C181.071 49.7581 180.737 49.4307 180.411 49.105Z" fill="#191919"/>
<path d="M133.77 79.119C140.618 93.7958 141.489 110.135 145.837 125.76C146.473 128.047 147.092 130.008 147.784 132.283C148.295 134.381 149.179 136.37 150.395 138.154C150.721 138.481 151.047 138.154 151.047 137.828C151.047 134.798 148.726 132.054 147.784 126.413C146.816 122.484 145.76 118.59 144.859 114.664C142.586 104.752 140.257 89.2788 134.095 78.7862C133.936 78.5154 133.57 78.7862 133.77 79.119Z" fill="#191919"/>
<path d="M187.587 173.373C191.799 174.777 190.626 174.278 196.718 176.308C197.76 176.713 198.863 176.934 199.98 176.961C200.632 176.961 200.632 175.982 200.306 175.655C199.448 175.043 198.425 174.702 197.371 174.678C196.434 174.305 195.442 174.085 194.435 174.025C192.488 173.699 190.196 173.046 188.24 172.72C187.266 172.067 186.934 173.046 187.587 173.373Z" fill="#9A7ED9"/>
<path d="M259.34 180.875C259.062 180.708 260.978 181.694 252.165 177.287C250.83 176.43 249.824 175.148 249.31 173.648C249.674 173.543 249.804 173.294 249.556 173.046C248.637 169.683 248.007 166.026 247.124 162.622C248.825 162.269 250.508 161.83 252.165 161.305C254.188 160.872 256.157 160.215 258.036 159.348C258.687 159.022 258.362 158.043 257.384 158.043C252.487 159.022 253.556 159.813 246.621 160.978C239.419 162.458 232.108 163.346 224.762 163.633C224.652 160.727 222.825 160.004 220.202 145C218.869 137.389 218.17 127.123 217.053 113.689C217.053 113.6 216.942 113.551 216.94 113.689C216.99 127.046 218.3 140.369 220.853 153.48C221.556 156.932 222.448 160.343 223.526 163.697C214.352 164.141 202.573 164.012 193.79 161.309C193.463 161.309 193.137 161.635 193.463 161.96C198.101 163.41 202.874 164.391 207.708 164.89C207.566 165.582 207.814 164.906 207.814 169.138C207.88 170.678 208.099 172.207 208.467 173.704C208.467 173.881 208.821 174.016 209.384 174.111C208.715 176.636 207.634 179.033 206.184 181.206C205.531 182.184 204.554 183.163 203.9 184.14C202.954 185.208 202.183 186.42 201.617 187.73C201.617 188.055 201.617 188.381 202.27 188.707C207.814 189.686 211.076 184.459 215.317 182.184C216.294 181.859 217.598 181.531 217.926 180.554C218.88 178.644 216.482 176.596 215.448 174.331C216.09 174.259 216.726 174.147 217.354 173.995C217.974 173.848 217.556 172.964 217.6 171.747C217.623 171.166 217.6 167.479 217.6 165.529C224.383 165.729 231.17 165.326 237.881 164.327C238.511 167.936 239.362 171.504 240.431 175.009C240.431 175.334 240.759 175.66 241.41 175.66C241.996 175.588 242.564 175.497 243.125 175.391C243.046 176.81 242.798 178.214 242.389 179.575C242.308 179.898 242.296 180.233 242.353 180.56C242.409 180.888 242.534 181.2 242.718 181.476C242.903 181.752 243.143 181.987 243.423 182.165C243.704 182.343 244.018 182.461 244.347 182.51C245.515 182.899 248.23 182.995 250.216 183.489C252.016 184.048 253.879 184.377 255.761 184.468C263.362 184.462 260.817 181.752 259.34 180.875ZM216.294 180.221C216.294 180.549 215.643 180.875 215.317 180.875C214.664 181.2 214.331 181.188 213.685 181.526C210.31 183.296 207.278 187.997 202.92 187.839C203.495 186.877 204.151 185.966 204.879 185.114C205.531 184.135 206.509 182.83 207.163 181.853C208.467 179.57 210.097 176.961 209.772 174.35C209.895 173.982 209.359 174.35 214.02 174.35C214.472 175.847 215.13 177.273 215.975 178.588C216.192 178.793 216.339 179.061 216.396 179.353C216.454 179.646 216.418 179.95 216.294 180.221ZM215.968 172.72C215.643 172.72 214.989 173.046 214.664 173.046C213.044 173.283 211.408 173.392 209.772 173.373C209.772 173.196 209.118 169.593 209.118 169.125C209.033 167.734 208.867 166.349 208.623 164.976C211.064 165.222 213.513 165.376 215.968 165.465V172.72ZM241.734 174.35C240.916 172.304 238.81 164.362 238.759 164.185C242.635 163.569 244.759 163.028 245.759 162.87C246.407 166.261 247.315 169.637 247.933 172.72C245.919 173.454 243.842 173.998 241.727 174.345L241.734 174.35ZM257.064 183.809C253.466 183.974 250.214 182.505 246.954 182.179C245.826 182.28 244.694 182.053 243.692 181.526C243.04 181.2 243.366 180.549 243.366 179.57C243.868 178.196 243.969 176.708 243.656 175.28C245.159 174.955 246.637 174.528 248.081 174.002C248.612 175.202 249.328 176.311 250.205 177.287C250.929 178.115 251.819 178.781 252.816 179.244C253.115 179.393 259.542 182.715 259.992 183.158C259.816 183.216 259.609 183.694 257.057 183.809H257.064Z" fill="#191919"/>
<path d="M168.669 140.43C167.365 139.126 164.761 139.492 162.798 139.779C148.581 141.851 132.559 153.88 111.264 160.978C108.584 162.113 105.672 162.598 102.768 162.394C103.23 160.967 103.547 159.396 104.087 158.047C107.048 140.285 108.818 117.422 110.282 98.3589C109.956 98.0332 109.303 98.0332 109.303 98.3589C106.751 117.696 105.517 136.957 102.455 156.742C102.011 158.589 101.77 160.478 101.737 162.376C101.383 162.553 101.301 162.939 101.802 162.939C101.802 163.265 102.455 163.592 102.455 163.265L102.496 163.159C106.491 164.265 110.68 162.778 114.463 161.369C114.397 166.288 115.828 171.715 115.828 178.269C116.132 181.161 115.683 184.083 114.523 186.749C113.219 189.684 111.197 192.259 109.631 195.229C109.42 195.504 109.28 195.825 109.223 196.166C109.166 196.507 109.194 196.857 109.303 197.185C109.303 198.817 110.928 199.111 112.24 198.817C113.719 198.243 115.055 197.353 116.153 196.208C117.783 194.25 119.415 192.293 121.045 190.013C121.045 190.013 123.003 191.971 123.654 190.34C123.654 186.875 123.003 185.261 123.003 183.165C123.003 181.563 123.982 175.2 123.982 171.423C124.288 166.812 124.596 161.914 124.902 157.263C128.749 155.652 132.273 154.066 135.522 152.555C137.482 162.658 142.238 180.669 142.238 180.875C141.795 183.019 141.686 185.219 141.912 187.397C141.912 188.376 143.216 188.701 143.859 187.724C144.177 187.001 144.618 186.339 145.163 185.767C145.491 186.092 145.817 186.418 145.817 186.746C146.879 188.182 148.208 189.4 149.73 190.333C151.022 191.39 152.451 192.268 153.978 192.942C154.29 193.137 154.642 193.259 155.008 193.297C155.374 193.336 155.744 193.29 156.089 193.165C156.435 193.039 156.747 192.836 157.003 192.571C157.258 192.307 157.45 191.988 157.564 191.638C157.258 189.889 156.592 188.223 155.608 186.746C154.601 185.27 153.512 183.851 152.346 182.498C151.086 181.281 150.28 179.669 150.063 177.931C149.411 174.996 149.134 171.725 148.433 168.472C147.516 164.224 146.896 159.976 146.149 155.753C145.974 153.177 145.559 150.623 144.91 148.124C152.307 144.653 158.235 142.092 163.761 141.398C164.842 141.235 165.941 141.235 167.021 141.398C168.653 142.05 167.674 143.681 167.021 144.66C166.696 144.986 167.349 145.639 167.674 145.312C168.995 144.345 170.299 142.06 168.669 140.43ZM119.419 186.418C118.734 187.641 117.852 188.743 116.81 189.68C115.831 190.659 114.852 191.964 113.548 192.289C114.017 191.376 114.563 190.503 115.178 189.68C116.135 187.919 116.9 186.059 117.461 184.135C118.329 179.8 117.27 172.402 116.482 166.523C116.219 164.541 116.167 162.806 115.734 160.893C118.704 159.789 121.511 158.683 124.155 157.576C120.006 188.753 121.033 183.195 119.419 186.418ZM146.164 165.545C146.477 169.134 147.142 172.72 147.468 176.308C147.54 177.314 147.76 178.303 148.121 179.244C148.834 181.288 149.942 183.172 151.382 184.788C152.035 185.441 153.665 186.746 153.665 187.724C152.36 188.05 151.072 186.721 150.077 186.092C148.527 184.945 147.105 183.633 145.838 182.179C145.512 181.526 144.859 181.2 144.533 180.549C144.533 179.896 144.206 179.57 143.88 178.917C143.004 174.947 141.915 171.028 140.618 167.175C139.379 162.189 137.827 157.201 136.269 152.213C138.953 150.963 141.457 149.769 143.811 148.657C143.888 149.086 144.02 149.502 144.206 149.896C145.12 155.076 145.774 160.299 146.164 165.545Z" fill="#191919"/>
<path d="M203.242 64.7607C194.112 48.5316 193.617 42.2269 190.119 31.7095C189.689 30.1543 189.495 28.5434 189.542 26.9305C189.542 22.8595 191.325 21.7975 192.151 18.1248C192.447 16.8114 193.004 15.0662 192.151 13.8768C192.096 13.7986 192.022 13.7349 191.937 13.6909C191.852 13.6469 191.758 13.6239 191.662 13.6239C191.566 13.6239 191.472 13.6469 191.386 13.6909C191.301 13.7349 191.228 13.7986 191.172 13.8768C190.818 14.514 191.172 15.1813 191.172 16.1601C190.944 18.4393 190.28 20.6535 189.217 22.6825C188.457 25.4582 188.457 28.3869 189.217 31.1626C189.779 36.8478 186.933 39.3046 186.933 40.6215C186.932 40.6645 186.94 40.7073 186.956 40.7472C186.972 40.7872 186.996 40.8235 187.026 40.8539C187.057 40.8844 187.093 40.9083 187.133 40.9243C187.173 40.9404 187.216 40.9481 187.259 40.9472C187.955 40.4384 188.515 39.7669 188.891 38.9913C190.919 35.4796 189.047 33.2636 191.5 40.6215C194.388 49.2856 197.467 57.6542 202.915 65.0846C203.242 65.4139 203.568 65.0882 203.242 64.7607Z" fill="#191919"/>
<path d="M344.797 300.574C339.641 299.838 338.984 300.82 330.12 299.596C323.169 298.788 316.554 296.162 310.942 291.982C305.33 287.802 300.92 282.216 298.155 275.787C297.139 273.413 296.585 270.866 296.525 268.284C296.525 267.959 296.851 267.959 297.178 267.959C298.564 270.58 300.447 272.907 302.722 274.808C305.798 277.335 309.349 279.22 313.165 280.352C316.551 281.566 320.049 282.441 323.608 282.963L324.587 284.91C325.302 286.665 325.528 288.582 325.24 290.455C325.117 292.363 324.676 294.237 323.935 295.999C323.608 296.978 324.587 297.305 325.24 296.652C327.849 294.369 327.849 290.13 327.523 286.868C327.241 285.767 326.915 284.679 326.544 283.605C328.533 284.139 330.411 285.022 332.09 286.214C332.999 286.81 333.771 287.592 334.354 288.51C335.02 289.416 335.568 290.402 335.986 291.446C336.065 291.572 336.183 291.67 336.321 291.725C336.459 291.781 336.612 291.791 336.756 291.755C336.901 291.718 337.03 291.637 337.126 291.523C337.222 291.409 337.279 291.268 337.29 291.119C336.964 287.531 333.396 284.216 330.44 282.966C328.773 282.214 327.021 281.666 325.222 281.334C324.539 280.195 323.776 279.106 322.939 278.074C317.48 271.837 309.869 269.932 303.695 266.983C300.405 265.413 297.173 262.418 296.52 258.831C297.263 251.897 297.372 244.909 296.846 237.955C294.568 184.147 261.683 189.507 240.094 185.445C234.561 184.402 229.331 183.813 223.787 182.508C223.638 182.519 223.497 182.576 223.383 182.672C223.269 182.768 223.188 182.898 223.151 183.042C223.115 183.187 223.125 183.339 223.181 183.477C223.236 183.616 223.334 183.733 223.46 183.813C246.263 190.569 259.782 187.949 273.363 194.576C280.039 198.037 285.332 203.676 288.365 210.557C294.938 224.33 295.148 247.958 293.585 263.07C293.258 264.049 293.258 265.027 292.932 266.006C288.33 279.791 284.454 293.376 291.302 306.449C292.417 308.424 293.728 310.282 295.215 311.994C296.221 313.318 297.577 314.333 299.131 314.926C299.784 315.251 300.435 314.6 299.784 313.947C298.805 312.642 297.5 311.663 296.522 310.359C295.543 309.054 294.564 307.424 293.587 306.12C287.647 295.429 289.849 283.885 292.608 272.844C292.934 271.865 293.235 271.212 292.608 279.039C292.209 283.214 292.653 287.428 293.913 291.429C296.686 299.748 303.037 301.316 309.894 307.41C313.156 310.672 314.461 315.237 315.112 319.8C315.112 320.453 316.418 320.453 316.418 319.474C316.656 315.353 315.632 311.257 313.482 307.732C311.271 304.422 308.205 302.599 305.002 300.231C296.269 293.785 295.391 290.576 294.559 280.662V271.872C294.559 271.546 294.93 271.21 295.538 273.83C296.838 278.563 299.055 282.996 302.062 286.876C308.097 294.829 317.744 299.443 327.502 301.228C331.69 302.042 335.958 302.37 340.221 302.206C341.657 302.149 343.082 301.93 344.469 301.553C345.121 301.553 345.448 300.9 344.797 300.574ZM299.131 266.328C302.06 268.629 305.372 270.396 308.915 271.546C313.942 273.311 318.357 276.481 321.636 280.68C320.332 280.352 318.698 280.034 317.388 279.701C309.878 277.782 302.06 274.483 298.145 267.311C297.828 266.003 298.154 265.35 299.131 266.328Z" fill="#9A7ED9"/>
<path d="M125.616 54.3248C125.616 54.4533 125.641 54.5806 125.69 54.6993C125.74 54.8181 125.812 54.926 125.903 55.0169C125.994 55.1078 126.101 55.1799 126.22 55.2291C126.339 55.2783 126.466 55.3036 126.595 55.3036C126.723 55.3036 126.851 55.2783 126.969 55.2291C127.088 55.1799 127.196 55.1078 127.287 55.0169C127.378 54.926 127.45 54.8181 127.499 54.6993C127.548 54.5806 127.574 54.4533 127.574 54.3248C127.574 54.1962 127.548 54.0689 127.499 53.9502C127.45 53.8314 127.378 53.7235 127.287 53.6326C127.196 53.5417 127.088 53.4696 126.969 53.4205C126.851 53.3713 126.723 53.3459 126.595 53.3459C126.466 53.3459 126.339 53.3713 126.22 53.4205C126.101 53.4696 125.994 53.5417 125.903 53.6326C125.812 53.7235 125.74 53.8314 125.69 53.9502C125.641 54.0689 125.616 54.1962 125.616 54.3248Z" fill="#191919"/>
<path d="M159.211 68.0228C159.391 68.1803 159.623 68.2671 159.863 68.2671C160.103 68.2671 160.334 68.1803 160.515 68.0228C161.443 67.4511 162.316 66.7958 163.124 66.0652C163.777 65.4138 164.756 64.7607 165.407 64.1093C166.06 63.7837 166.712 62.4774 165.733 62.1517C165.311 62.0044 164.937 61.7457 164.65 61.4029C164.363 61.0601 164.174 60.6461 164.103 60.2047C163.282 57.5497 163.45 54.6239 163.45 47.4837C163.613 45.9659 163.613 44.4349 163.45 42.9171C162.798 41.6126 160.515 43.2428 159.862 43.8959C158.557 44.8747 156.602 45.8536 155.949 47.4837C154.934 53.0557 154.876 64.3023 159.211 68.0228Z" fill="#9A7ED9"/>
<path d="M216.614 54.6505C217.476 54.6505 217.476 56.6081 216.614 56.6081C215.752 56.6081 215.75 54.6505 216.614 54.6505Z" fill="#191919"/>
<path d="M211.069 53.3459C211.933 53.3459 211.933 55.3018 211.069 55.3018C210.205 55.3018 210.205 53.3459 211.069 53.3459Z" fill="#191919"/>
</svg>
