<svg width="286" height="286" viewBox="0 0 286 286" fill="none" xmlns="http://www.w3.org/2000/svg">
<path d="M96.0445 70.642C95.7228 70.9637 97.4745 72.4795 97.7219 72.654C98.3079 73.0716 98.9976 73.3196 99.7153 73.3708C100.433 73.4221 101.151 73.2746 101.79 72.9445C102.43 72.6144 102.966 72.1145 103.34 71.4997C103.713 70.8848 103.911 70.1789 103.91 69.4594C103.874 68.5302 103.53 67.6394 102.932 66.9273C102.335 66.2152 101.517 65.7225 100.608 65.5269C100.94 64.1699 100.767 62.7385 100.122 61.4996C99.476 60.2607 98.4018 59.299 97.0994 58.7938C95.797 58.2885 94.3552 58.2744 93.0431 58.7539C91.731 59.2334 90.6382 60.1739 89.9685 61.3999C88.2123 59.9173 85.9944 59.0929 83.6962 59.0684C81.3981 59.0438 79.1631 59.8207 77.3757 61.2654C75.5882 62.7102 74.3599 64.7325 73.902 66.9847C73.444 69.2369 73.7849 71.5783 74.8662 73.6064C73.3294 72.9879 71.6312 72.8945 70.0358 73.3407C68.4404 73.7869 67.0371 74.7477 66.0441 76.0738C65.0511 77.3998 64.524 79.0167 64.5448 80.6732C64.5655 82.3297 65.133 83.933 66.1589 85.2337C64.8849 85.0818 63.5931 85.2102 62.3738 85.6099C61.1546 86.0095 60.0374 86.6708 59.1005 87.5474C57.8574 88.6016 56.87 89.9244 56.2128 91.4159C55.5556 92.9074 55.2458 94.5287 55.3067 96.1574C55.4625 100.066 59.0175 104.717 62.8971 104.487C67.2591 103.634 71.5617 102.502 75.7786 101.098C77.0331 100.774 78.1722 100.106 79.0676 99.169C82.0219 95.5225 82.7941 87.8349 82.7856 83.582C82.7856 81.673 82.4238 79.784 82.388 77.8992C83.3009 77.8913 84.2 77.6761 85.0175 77.2698C85.8349 76.8635 86.5495 76.2768 87.107 75.554C88.0707 74.2499 88.5354 72.6438 88.4169 71.0266C89.5132 71.9114 90.8971 72.3613 92.3041 72.2904C93.7112 72.2194 95.0428 71.6326 96.0445 70.642Z" fill="#97CC64"/>
<path d="M103.579 94.39C101.93 91.9636 99.869 89.8451 97.4885 88.1309C97.6701 88.2624 95.3435 90.2759 95.1076 90.4289C94.3811 90.9194 93.0755 91.1553 92.5479 91.846C92.1638 92.7009 91.9921 93.636 92.0474 94.5716C91.892 95.9759 91.7795 97.3873 91.7099 98.8058C95.4367 98.6291 99.1425 98.1446 102.79 97.3573C104.138 97.1914 104.767 96.096 103.579 94.39Z" fill="#97CC64"/>
<path d="M213.535 61.061C215.701 62.2244 217.543 63.9088 218.895 65.9622C220.247 68.0156 221.067 70.3734 221.28 72.8227C221.288 72.9958 221.362 73.1592 221.487 73.2788C221.613 73.3985 221.779 73.4652 221.953 73.4652C222.126 73.4652 222.292 73.3985 222.418 73.2788C222.543 73.1592 222.617 72.9958 222.625 72.8227C222.601 70.1089 221.766 67.4642 220.229 65.2274C218.692 62.9906 216.523 61.2635 213.998 60.2673C213.472 60.06 212.996 60.7907 213.535 61.061Z" fill="#97CC64"/>
<path d="M226.403 71.274C226.509 70.1701 226.519 69.0592 226.435 67.9535C226.369 67.0598 224.98 67.0483 225.035 67.9535C225.098 69.1125 225.263 70.2638 225.526 71.3941C225.654 71.9146 226.356 71.7473 226.403 71.274Z" fill="#97CC64"/>
<path d="M174.574 118.261C173.304 116.831 168.218 113.881 165.578 110.079C157.479 98.4083 154.972 84.5202 154.936 70.3088C154.979 70.2888 159.083 67.3745 161.983 67.2415C163.979 67.188 165.956 67.6416 167.729 68.5599C167.666 70.3413 167.856 72.1227 168.292 73.8509C170.58 86.6251 176.997 100.939 189.662 103.704C189.725 103.721 189.791 103.726 189.855 103.718C189.92 103.71 189.983 103.689 190.039 103.657C190.096 103.625 190.146 103.582 190.186 103.531C190.226 103.479 190.255 103.42 190.273 103.358C190.29 103.295 190.295 103.229 190.287 103.164C190.279 103.1 190.258 103.037 190.226 102.981C190.194 102.924 190.151 102.874 190.1 102.834C190.048 102.794 189.99 102.764 189.927 102.747C183.472 100.053 178.247 95.0593 175.265 88.7329C170.227 78.5971 170.499 71.7789 169.157 68.1023C168.564 66.475 163.845 65.0907 161.646 65.2137C159.325 65.3439 154.19 67.8163 153.939 68.6743C151.108 78.4098 153.962 89.6167 157.48 99.0032C159.216 103.578 161.525 107.914 164.353 111.908C167.522 116.422 172.133 119.472 174.019 119.562C174.171 119.564 174.32 119.521 174.447 119.438C174.574 119.355 174.673 119.237 174.732 119.097C174.792 118.958 174.809 118.804 174.78 118.655C174.752 118.506 174.681 118.369 174.574 118.261Z" fill="#97CC64"/>
<path d="M190.034 103.858C187.786 107.331 190.595 112.498 194.4 113.337C198.111 114.157 202.991 112.449 204.145 108.576C204.348 107.893 203.356 107.237 202.88 107.842C202.057 109.044 200.933 110.008 199.62 110.638C198.307 111.268 196.852 111.542 195.399 111.433C191.641 110.995 190.871 107.296 191.109 104.14C191.155 103.545 190.32 103.416 190.034 103.858Z" fill="#97CC64"/>
<path d="M247.848 156.622C247.323 147.579 246.455 140.675 242.324 131.883C237.734 122.111 230.522 112.435 221.11 106.841C216.271 103.964 210.521 102.388 204.991 104.027C204.44 104.19 204.515 105.115 205.134 105.066C218.932 103.995 229.73 114.84 236.578 125.677C243.255 136.252 245.042 144.124 245.673 155.265C245.69 158.66 245.97 162.048 246.511 165.4C246.707 166.308 247.969 166.019 248.042 165.189C248.186 162.333 248.121 159.469 247.848 156.622Z" fill="#97CC64"/>
<path d="M245.21 165.055C243.49 165.49 241.731 165.748 239.959 165.824C239.082 165.797 237.995 165.428 237.038 165.428C236.701 159.143 232.404 149.04 228.601 142.936C224.442 136.253 218.855 129.509 211.84 125.707C211.344 125.437 210.785 126.103 211.221 126.501L211.3 126.579C211.218 126.631 211.15 126.702 211.103 126.787C211.056 126.872 211.031 126.967 211.031 127.064C210.754 142.64 216.058 158.165 223.835 171.353C224.622 172.687 225.528 174.969 226.971 175.663C227.088 175.72 227.218 175.747 227.348 175.743C227.478 175.738 227.606 175.702 227.718 175.637C227.831 175.572 227.927 175.48 227.996 175.37C228.065 175.259 228.106 175.133 228.115 175.003C228.06 173.488 226.675 172.066 225.916 170.793C218.666 158.638 212.474 141.662 212.229 127.456C220.972 135.761 227.387 142.235 232.059 154.547C233.465 158.252 234.071 162.086 235.205 165.844C235.206 166.035 235.261 166.222 235.362 166.384C235.463 166.545 235.606 166.676 235.777 166.761C238.956 168.031 243.642 168.641 245.956 166.313C246.524 165.747 245.907 164.94 245.21 165.055Z" fill="#97CC64"/>
<path d="M225.891 175.424C220.798 178.026 217.816 182.574 206.55 183.277C198.828 183.756 190.769 183.15 183.626 180.02C183.626 179.971 180.357 174.677 178.335 163.797C173.409 137.372 175.953 129.048 179.359 112.631C179.466 112.119 178.683 111.697 178.451 112.235C176.308 117.645 174.912 123.322 174.304 129.109C172.781 140.767 173.445 152.607 176.262 164.021C177.655 169.737 179.602 175.304 182.075 180.643C188.93 185.777 199.082 185.876 207.293 185.309C211.057 185.071 214.745 184.146 218.176 182.58C221.019 181.264 225.326 179.259 226.756 176.275C226.825 176.154 226.852 176.015 226.832 175.878C226.813 175.741 226.75 175.614 226.651 175.517C226.552 175.42 226.424 175.358 226.287 175.341C226.149 175.324 226.01 175.353 225.891 175.424Z" fill="#97CC64"/>
<path d="M141.988 7.67625C141.792 6.81825 140.611 7.09281 140.543 7.87502C140.176 12.1135 141.081 16.6752 141.687 20.8709C142.326 25.3519 143.201 29.7959 144.31 34.1842C144.513 34.9778 145.667 34.636 145.533 33.8467C142.152 13.9683 143.322 13.4992 141.988 7.67625Z" fill="#97CC64"/>
<path d="M157.309 31.9934C165.009 23.4935 170.067 19.132 172.587 15.9774C173.033 15.4197 172.457 14.3973 171.749 14.8935C166.655 18.4685 160.119 26.3335 156.341 31.2427C155.913 31.8032 156.841 32.5096 157.309 31.9934Z" fill="#97CC64"/>
<path d="M167.713 32.8628C172.448 30.8136 177.723 29.0747 181.979 26.1161C182.595 25.6871 182.242 24.5745 181.435 24.8291C176.49 26.4264 171.873 29.5252 167.375 32.0706C166.965 32.3094 167.243 33.0659 167.713 32.8628Z" fill="#97CC64"/>
<path d="M127.699 27.5175C125.405 24.3325 122.875 21.3252 120.128 18.5214C120 18.4064 119.835 18.3401 119.663 18.3342C119.49 18.3282 119.321 18.3829 119.185 18.4888C119.049 18.5946 118.954 18.7449 118.918 18.9134C118.881 19.0819 118.905 19.2579 118.984 19.4108C121.065 22.5152 123.38 25.4562 125.908 28.2082C128.402 31.2341 130.972 34.1627 133.539 37.1442C134.015 37.6962 135.016 36.9412 134.563 36.3506C132.293 33.3948 130.044 30.4247 127.699 27.5175Z" fill="#97CC64"/>
<path d="M123.61 41.9576C119.448 39.3666 114.814 37.6243 109.975 36.8311C109.337 36.7467 109.297 37.7048 109.832 37.8978C114.313 39.3324 118.679 41.101 122.895 43.1888C123.057 43.2635 123.241 43.2752 123.411 43.2216C123.58 43.1679 123.724 43.0528 123.814 42.8988C123.903 42.7448 123.932 42.563 123.894 42.3889C123.857 42.2148 123.755 42.061 123.61 41.9576Z" fill="#97CC64"/>
<path d="M45.8741 271.91C43.8106 271.481 42.3906 272.208 40.4573 270.685C37.6173 268.448 34.497 260.952 32.608 258.244C32.2934 257.793 31.494 258.051 31.6713 258.641C32.3763 260.996 36.4032 271.511 41.3381 273.625C42.5595 273.928 43.8234 274.022 45.0762 273.902C45.8384 274.534 37.8375 276.929 36.3532 276.859C34.4 276.64 32.4614 276.305 30.5474 275.858C26.5577 272.625 23.007 266.706 20.5674 262.199C21.2266 257.14 22.1847 256.124 21.2824 255.926C21.1875 255.905 21.0888 255.914 20.999 255.951C20.9092 255.988 20.8326 256.051 20.779 256.132C20.1184 257.113 18.7584 261.157 19.2632 261.914C20.0532 265.118 21.4795 268.13 23.4574 270.77C25.0304 272.878 27.9519 277.986 35.6396 278.81C39.3819 279.212 46.8394 276.709 47.5915 275.89C49.0158 274.335 47.6802 272.282 45.8741 271.91Z" fill="#97CC64"/>
<path d="M59.2906 70.1443C59.9792 67.2721 61.1389 64.5337 62.7226 62.0405C64.4298 59.6498 66.3635 57.4292 68.497 55.4096C68.5993 55.3035 68.6601 55.1641 68.6682 55.0169C68.6764 54.8697 68.6314 54.7245 68.5415 54.6077C68.4515 54.4909 68.3226 54.4102 68.1782 54.3805C68.0338 54.3508 67.8835 54.374 67.7548 54.4458C62.4867 57.4374 59.3178 64.1183 58.1037 69.8026C57.9364 70.5876 59.1047 70.918 59.2906 70.1443Z" fill="#97CC64"/>
<path d="M57.6289 57.6762C55.3735 60.0709 54.0246 63.1778 53.8151 66.4607C53.7293 67.2186 54.9062 67.2 55.0063 66.4607C55.5713 63.534 56.7647 60.7647 58.5041 58.344C58.5689 58.2272 58.5896 58.091 58.5622 57.9602C58.5349 57.8294 58.4614 57.7129 58.3552 57.6318C58.249 57.5508 58.1172 57.5107 57.9838 57.5188C57.8505 57.527 57.7245 57.5828 57.6289 57.6762Z" fill="#97CC64"/>
<path d="M196.662 90.8264C198.261 90.5562 199.225 88.7015 198.188 88.4441C197.683 88.3182 197.6 88.8245 196.225 89.242C195.667 89.3418 195.097 89.3567 194.534 89.2863C194.389 89.2882 194.251 89.3473 194.149 89.4506C194.048 89.554 193.991 89.6933 193.991 89.8383C193.995 90.3846 195.141 91.1754 196.662 90.8264Z" fill="#191919"/>
<path d="M193.383 96.4335C193.054 97.0999 191.789 101.137 191.381 102.449C191.215 102.976 192.036 103.339 192.286 102.846C192.903 101.629 194.747 97.8692 194.976 97.1828C199.08 98.5227 203.29 95.7914 203.723 92.6554C203.798 92.1077 203.114 91.4671 202.655 92.0319C201.208 93.8137 199.83 95.5769 197.287 95.544C196.127 95.5157 195.002 95.1381 194.059 94.4605C193.117 93.7829 192.401 92.8369 192.005 91.7459C190.336 87.5732 191.317 82.614 192.973 78.6085C193.116 78.2467 192.577 78.0852 192.382 78.3583C188.646 83.5849 187.931 93.1516 193.383 96.4335Z" fill="#191919"/>
<path d="M195.052 82.225C195.338 81.8947 194.968 81.3184 194.56 81.5858C193.305 82.4081 191.557 83.7723 191.557 85.4668C191.557 86.7638 193.378 88.1466 194.439 86.9626C194.521 86.8712 194.567 86.7525 194.567 86.6294C194.567 86.5063 194.521 86.3876 194.439 86.2962C193.828 85.6113 192.826 85.7485 193.458 84.5802C193.903 83.74 194.437 82.9504 195.052 82.225Z" fill="#191919"/>
<path d="M198.109 80.509C197.985 80.455 197.845 80.4487 197.716 80.4911C197.588 80.5336 197.479 80.6219 197.411 80.7392C197.144 81.0557 196.925 81.4099 196.761 81.7903C196.701 81.9547 196.709 82.136 196.783 82.2944C196.857 82.4528 196.991 82.5754 197.155 82.6354C198.613 82.8928 198.645 80.7449 198.109 80.509Z" fill="#191919"/>
<path d="M199.455 81.806C199.489 81.9145 199.554 82.011 199.641 82.0842C199.728 82.1573 199.834 82.2042 199.947 82.2192C200.06 82.2342 200.175 82.2167 200.278 82.1689C200.381 82.121 200.469 82.0448 200.53 81.949C200.732 81.5304 200.822 81.0669 200.792 80.6033C200.762 80.1396 200.614 79.6915 200.36 79.3021C200.188 78.8888 199.899 78.5351 199.527 78.2847C199.156 78.0343 198.72 77.8983 198.272 77.8936C198.162 77.8963 198.056 77.9383 197.974 78.012C197.891 78.0857 197.838 78.1864 197.823 78.2959C197.808 78.4054 197.833 78.5166 197.893 78.6095C197.953 78.7025 198.044 78.7711 198.149 78.803C198.668 78.9546 199.023 79.7783 199.162 80.2473C199.3 80.7164 199.256 81.3055 199.455 81.806Z" fill="#191919"/>
<path d="M202.654 76.5807C202.048 79.884 204.547 85.471 208.59 85.2151C206.755 87.7451 205.463 90.6267 204.793 93.6793C203.772 96.8441 203.517 100.207 204.051 103.489C204.181 104.124 205.031 103.885 205.093 103.346C205.345 100.141 205.905 96.9674 206.765 93.8694C207.386 91.8217 211.47 85.9687 213.01 81.2068C213.492 79.4583 213.442 77.6059 212.867 75.8858C212.498 74.7429 211.729 73.7714 210.701 73.1497C209.674 72.5279 208.456 72.2976 207.273 72.501C206.728 70.263 203.312 68.4083 200.03 69.7267C198.923 67.7862 196.189 67.3544 194.014 67.4387C191.261 67.5489 189.724 69.9184 189.649 72.5296C189.475 78.517 198.086 77.935 202.654 76.5807Z" fill="#191919"/>
<path d="M155.479 65.045C152.073 64.6789 152.069 59.7983 152.015 57.2543C151.957 54.5087 152.738 51.8589 152.721 49.1405C152.717 48.9938 152.666 48.8524 152.575 48.737C152.485 48.6217 152.359 48.5387 152.218 48.5003C152.076 48.462 151.926 48.4703 151.789 48.524C151.653 48.5778 151.537 48.6741 151.46 48.7987C149.566 52.3022 148.314 67.7377 155.634 66.179C156.329 66.0317 156.09 65.1107 155.479 65.045Z" fill="#191919"/>
<path d="M154.889 56.8025C155.461 53.4291 156.671 50.2159 157.27 46.8826C157.305 46.7363 157.286 46.5826 157.218 46.4485C157.15 46.3145 157.037 46.2089 156.899 46.1503C156.761 46.0917 156.606 46.084 156.462 46.1285C156.319 46.173 156.196 46.2669 156.115 46.3935C154.421 49.5421 153.619 53.093 153.794 56.6638C153.788 57.2787 154.782 57.4417 154.889 56.8025Z" fill="#191919"/>
<path d="M160.389 45.5999C157.925 48.6654 156.646 52.5147 156.785 56.445C156.786 56.5851 156.838 56.72 156.931 56.8251C157.024 56.9301 157.151 56.9984 157.29 57.0173C157.428 57.0362 157.569 57.0045 157.687 56.9281C157.804 56.8516 157.89 56.7355 157.929 56.6009C158.488 54.8491 158.893 53.053 159.489 51.3099C160.085 49.5667 160.862 47.9236 161.327 46.1504C161.353 46.0325 161.34 45.9094 161.292 45.7988C161.244 45.6882 161.162 45.5958 161.057 45.5347C160.953 45.4736 160.833 45.447 160.712 45.4587C160.592 45.4704 160.479 45.5198 160.389 45.5999Z" fill="#191919"/>
<path d="M167.431 46.8697C167.806 46.3277 167.089 45.7543 166.582 46.0203C162.919 47.9407 160.8 52.6483 160.004 56.4893C159.976 56.6155 159.998 56.7475 160.065 56.8579C160.132 56.9684 160.239 57.0489 160.364 57.083C160.488 57.1171 160.621 57.1021 160.735 57.0411C160.849 56.9802 160.935 56.8779 160.976 56.7553C163.263 50.868 165.671 49.4179 167.431 46.8697Z" fill="#191919"/>
<path d="M168.025 54.2742C164.608 55.3982 162.119 59.6539 161.347 62.9972C161.311 63.1533 161.339 63.3171 161.424 63.4525C161.51 63.5879 161.645 63.6839 161.801 63.7194C162.682 63.9196 162.558 62.6126 165.519 58.8574C166.654 57.676 167.699 56.4122 168.647 55.0765C168.697 54.9818 168.719 54.8745 168.71 54.7676C168.701 54.6607 168.661 54.5587 168.595 54.474C168.53 54.3892 168.441 54.3252 168.34 54.2898C168.238 54.2543 168.129 54.2489 168.025 54.2742Z" fill="#191919"/>
<path d="M234.52 177.657C234.295 178.444 234.338 179.283 234.641 180.042C234.945 180.802 235.492 181.439 236.198 181.853C239.111 183.532 243.528 183.116 246.671 182.479C249.687 181.869 252.225 180.868 252.225 177.389C251.944 173.635 250.312 170.11 247.63 167.467C247.471 167.317 247.263 167.229 247.044 167.218C246.825 167.207 246.61 167.275 246.436 167.409C246.263 167.542 246.143 167.734 246.098 167.948C246.053 168.163 246.086 168.386 246.19 168.578C247.344 170.825 249.088 172.62 249.813 175.115C250.11 176.134 250.543 177.983 249.88 178.999C249.216 180.014 247.236 180.286 246.13 180.512C243.633 181.045 241.052 181.054 238.551 180.539C234.806 179.74 236.888 176.535 236.79 173.979C236.786 173.856 236.74 173.738 236.658 173.647C236.576 173.555 236.464 173.495 236.342 173.478C236.22 173.461 236.096 173.487 235.992 173.553C235.887 173.619 235.81 173.719 235.773 173.836C235.567 174.328 235.344 174.876 235.127 175.448C232.839 175.761 233.84 173.16 234.206 172.173C234.628 171.022 235.174 169.919 235.833 168.884C236.142 168.404 235.48 167.985 235.091 168.312C233.223 169.873 231.23 172.519 231.587 175.126C231.775 176.503 233.256 177.912 234.52 177.657Z" fill="#191919"/>
<path d="M266.409 252.614C266.337 252.507 252.346 234.614 247.104 225.234C235.367 204.195 230.073 186.195 226.592 178.598C226.39 178.158 225.763 178.487 225.847 178.912C227.411 186.852 233.518 201.882 236.827 209.296C242.81 222.702 253.811 243.161 264.406 252.196C262.804 254.1 260.675 255.488 258.287 256.184C254.111 252.118 236.992 240.981 216.418 208.435C212.565 202.341 209.268 196.039 205.585 189.915C205.347 189.519 204.622 189.78 204.792 190.241C208.688 200.861 215.478 211.167 222.073 220.573C221.863 221.157 220.882 225.478 220.882 225.478C215.033 225.366 209.202 224.784 203.446 223.736C197.676 222.627 192.049 220.874 186.669 218.511C180.319 215.873 179.884 214.155 180.18 202.701C180.457 196.13 181.362 189.6 182.883 183.202C182.903 183.129 182.908 183.053 182.899 182.978C182.89 182.903 182.866 182.831 182.829 182.765C182.792 182.7 182.742 182.642 182.682 182.596C182.623 182.549 182.555 182.515 182.482 182.495C182.41 182.475 182.334 182.469 182.259 182.479C182.184 182.488 182.112 182.512 182.046 182.549C181.981 182.586 181.923 182.636 181.877 182.695C181.83 182.755 181.796 182.823 181.776 182.896C179.436 189.751 178.199 196.934 178.114 204.177C177.996 212.428 177.986 216.761 183.792 219.502C194.364 224.491 209.961 228.345 221.284 226.851C222.39 232.669 222.796 238.599 222.494 244.514C222.502 244.705 222.564 244.89 222.674 245.046C222.783 245.202 222.935 245.324 223.112 245.397C223.288 245.47 223.482 245.491 223.67 245.457C223.858 245.424 224.032 245.337 224.172 245.208C227.729 241.285 229.762 236.217 229.902 230.924C240.956 244.619 253.535 255.482 257.256 257.709C257.256 257.732 256.383 267.496 250.553 269.359C250.024 269.464 249.522 269.675 249.077 269.98C248.632 270.285 248.254 270.677 247.965 271.132C246.646 273.723 261.739 273.204 261.787 273.18C263.316 272.415 268.329 255.465 266.409 252.614Z" fill="#191919"/>
<path d="M200.718 187.726C199.832 194.109 198.33 200.39 196.233 206.483C196.168 206.744 196.206 207.021 196.339 207.254C196.472 207.488 196.69 207.661 196.948 207.738C203.112 209.622 208.85 212.717 214.966 214.63C215.564 214.817 215.812 214.011 215.363 213.682C211.444 210.808 202.737 207.39 198.479 206.07C200.239 200.143 201.315 194.033 201.685 187.861C201.719 187.309 200.792 187.167 200.718 187.726Z" fill="#191919"/>
<path d="M142.106 48.108C142.006 48.0137 141.878 47.9542 141.741 47.9384C141.604 47.9227 141.466 47.9515 141.347 48.0206C141.228 48.0897 141.134 48.1953 141.08 48.3219C141.026 48.4484 141.014 48.5891 141.046 48.7229C141.69 51.2826 143.512 53.4762 143.266 58.3297C143.106 61.6077 142.003 64.77 140.091 67.4373C139.673 68.0093 140.617 68.7458 141.079 68.1995C143.474 65.5543 144.948 62.2044 145.281 58.6514C145.551 55.2223 144.803 50.5276 142.106 48.108Z" fill="#191919"/>
<path d="M139.854 56.445C139.878 56.5854 139.951 56.7128 140.06 56.8047C140.169 56.8966 140.307 56.947 140.449 56.947C140.591 56.947 140.729 56.8966 140.838 56.8047C140.947 56.7128 141.02 56.5854 141.044 56.445C141.22 52.6397 140.523 47.5647 137.469 44.8419C137.376 44.755 137.257 44.7003 137.131 44.6862C137.004 44.672 136.876 44.699 136.766 44.7633C136.656 44.8275 136.57 44.9255 136.52 45.0427C136.47 45.16 136.459 45.2901 136.489 45.4139C137.313 48.1638 139.329 50.4104 139.854 56.445Z" fill="#191919"/>
<path d="M136.528 55.4025C136.613 56.1961 137.833 56.2504 137.825 55.4025C137.785 51.5801 136.749 45.7871 133.146 43.6765C133.04 43.6178 132.92 43.5913 132.8 43.6001C132.68 43.609 132.565 43.6528 132.469 43.7263C132.373 43.7997 132.301 43.8995 132.262 44.0134C132.222 44.1273 132.217 44.2502 132.246 44.3671C133.22 46.9655 135.838 49.0575 136.528 55.4025Z" fill="#191919"/>
<path d="M131.77 50.7507C133.797 56.6737 132.497 58.4154 133.619 58.4126C133.757 58.4126 133.889 58.3579 133.986 58.2606C134.084 58.1632 134.138 58.0312 134.138 57.8935C134.431 55.3308 134.202 52.7354 133.468 50.263C132.928 47.8666 131.731 45.668 130.011 43.9138C129.521 43.512 128.474 43.8738 128.777 44.6288C129.632 46.7609 131.017 48.5527 131.77 50.7507Z" fill="#191919"/>
<path d="M131.297 64.819C131.39 65.3009 132.163 65.188 132.155 64.7032C132.058 60.9452 130.922 56.2819 127.453 54.2227C127.324 54.1511 127.176 54.1234 127.03 54.1439C126.885 54.1644 126.75 54.2319 126.646 54.3361C126.542 54.4404 126.475 54.5757 126.456 54.7215C126.436 54.8672 126.464 55.0155 126.536 55.1436C127.72 57.2286 130.306 59.6453 131.297 64.819Z" fill="#191919"/>
<path d="M139.456 69.3822C138.779 71.0434 138.363 72.7992 138.222 74.5874C136.963 80.3843 134.798 85.9463 131.806 91.0682C127.899 98.0752 115.535 108.973 115.535 108.973C115.535 108.973 112.961 104.055 112.575 94.5674C120.852 89.9633 127.339 82.706 130.988 73.9654C132.109 71.6753 132.834 69.2118 133.133 66.6795C133.173 65.8301 131.806 65.3854 131.449 66.2233C130.225 69.1062 128.16 80.9938 115.958 89.9814C109.087 94.9367 100.917 97.7763 92.4534 98.1509C92.5606 97.2272 92.4534 96.2919 92.5378 95.3739C92.6221 94.4558 92.8238 93.4334 92.9739 92.461C100.464 90.9309 101.395 77.732 95.9655 72.1907C95.4307 71.643 94.6599 72.3337 94.9645 72.9658C96.7634 76.7724 98.182 80.3489 97.4141 84.6589C97.208 86.8272 96.1658 88.83 94.5083 90.243C93.4966 90.8708 92.3008 91.1344 91.1189 90.9901C89.9371 90.8457 88.8399 90.3022 88.0089 89.4494C87.65 89.1133 86.9965 89.5566 87.294 89.9971C87.7777 90.7869 88.4554 91.4399 89.2625 91.8941C90.0697 92.3484 90.9795 92.5888 91.9057 92.5925C91.1995 94.3801 91.0607 96.3418 91.5082 98.211C89.9125 98.2611 88.3153 98.2095 86.7262 98.0566C85.934 97.9736 77.3497 98.6514 73.4773 101.095C71.4925 100.854 65.7467 103.159 64.1437 103.955C59.2648 106.373 54.8029 109.553 50.9262 113.376C50.1283 114.167 48.8098 115.171 48.8827 116.436C49.1377 117.552 49.8054 118.53 50.7517 119.173C46.6791 122.773 43.6117 128.388 44.5169 133.801C45.6009 140.28 51.3609 145.901 57.0051 148.849C57.1463 148.926 57.3104 148.95 57.4679 148.917C57.6255 148.884 57.766 148.796 57.8642 148.669C57.9624 148.541 58.0117 148.383 58.0034 148.222C57.9951 148.061 57.9296 147.909 57.8188 147.792C53.6804 143.423 48.2178 140.509 46.7077 134.197C45.3163 128.387 48.9571 124.507 51.9415 120.183C53.4364 121.747 55.0925 123.149 56.8821 124.366C57.0073 124.434 57.1511 124.459 57.292 124.439C57.4329 124.418 57.5634 124.352 57.6638 124.251C57.7643 124.15 57.8293 124.02 57.8493 123.879C57.8692 123.738 57.843 123.594 57.7745 123.469C56.9923 122.085 51.0635 116.492 51.2036 115.909C51.4324 114.952 56.855 110.581 58.1763 109.617C62.118 106.749 66.4526 104.465 71.0463 102.836C67.4652 105.665 64.62 109.318 62.7523 113.482C60.4414 118.69 59.9752 124.444 59.7979 130.08C58.7883 162.112 55.6009 159.672 53.1155 167.587C53.0712 167.693 50.3385 179.119 49.9409 180.781C44.1065 200.505 40.3599 213.272 30.9577 234.027C26.0814 244.789 23.6103 248.836 21.4096 253.915C21.0649 254.709 22.5092 256.811 26.6276 257.991C27.8188 258.332 31.544 257.991 32.6122 256.649C33.6804 255.308 38.7984 248.535 41.7184 244.539C45.2934 239.654 65.2362 209.128 70.2898 198.039C72.8638 192.395 76.3473 180.336 77.0351 179.924C77.2968 179.768 77.6314 180.067 77.723 180.353C77.8145 180.639 76.3587 186.861 75.7067 189.671C75.3077 191.387 74.7428 195.227 75.3091 195.973C76.5892 197.483 77.971 198.904 79.4447 200.226C76.3708 201.345 73.4036 202.739 70.5787 204.389C67.1924 206.85 64.4726 211.681 62.3605 215.226C61.6126 216.481 58.0791 223.377 57.4885 224.75C57.4 224.905 57.3488 225.077 57.3387 225.255C57.3287 225.432 57.3602 225.61 57.4307 225.773C57.5012 225.936 57.6088 226.081 57.7449 226.195C57.8811 226.31 58.042 226.391 58.2149 226.432C63.6661 226.136 69.2659 224.311 74.4525 222.714C80.1451 220.98 85.7023 218.829 91.0792 216.279C95.7324 214.055 100.9 211.41 104.044 207.18C108.13 201.676 95.6166 167.452 90.9919 166.632C90.5944 166.562 85.0017 173.017 62.6908 169.617C60.1168 169.223 58.0676 167.549 55.5909 166.82C59.1659 161.767 59.9352 155.161 60.6502 149.221C62.7952 131.423 59.6492 118.27 68.5753 108.018C73.092 102.882 79.4039 99.6714 86.2143 99.0447C86.3645 99.0447 93.2899 102.83 111.401 95.218C111.232 98.22 111.448 101.231 112.043 104.178C112.376 105.811 114.171 111.806 115.103 112.821C108.84 118.044 104.841 119.256 101.035 121.388C100.883 121.553 100.774 121.752 100.717 121.969C99.8493 127.246 92.1717 159.05 91.5125 162.336C91.4685 162.569 91.5135 162.809 91.6387 163.01C91.7639 163.21 91.96 163.356 92.188 163.419C92.4161 163.482 92.6593 163.456 92.8693 163.347C93.0793 163.239 93.2407 163.055 93.3214 162.833C94.5641 159.514 101.873 125.564 101.654 122.432C107.433 121.431 112.772 117.387 116.615 113.19C116.901 112.874 116.313 110.932 115.971 110.116C116.114 110.226 129.107 99.4236 133.369 92.3838C135.471 88.9072 137.191 85.2135 138.499 81.367C139.156 79.4423 141.256 71.4285 140.729 69.6053C140.693 69.4748 140.62 69.3573 140.52 69.2663C140.42 69.1753 140.296 69.1146 140.163 69.0912C140.03 69.0679 139.892 69.0828 139.767 69.1343C139.642 69.1858 139.534 69.2718 139.456 69.3822Z" fill="#191919"/>
<path d="M93.8453 83.1874C94.689 83.7966 96.9713 84.7733 97.2544 83.0444C97.3788 82.2851 95.6885 78.966 95.1437 78.1466C94.892 77.7705 94.167 78.0036 94.3501 78.477C94.7376 79.478 95.6557 82.3608 95.6371 82.3894C95.6185 82.418 94.8091 82.0391 94.3801 81.9061C93.5764 81.653 93.2361 82.7484 93.8453 83.1874Z" fill="#191919"/>
<path d="M90.8048 79.8969C91.0115 79.2519 91.0115 78.5585 90.8048 77.9135C90.7616 77.7742 90.6749 77.6524 90.5574 77.5659C90.44 77.4793 90.2979 77.4327 90.152 77.4327C90.0062 77.4327 89.8641 77.4793 89.7467 77.5659C89.6292 77.6524 89.5425 77.7742 89.4992 77.9135C89.2926 78.5585 89.2926 79.2519 89.4992 79.8969C89.5662 80.0105 89.6617 80.1046 89.7762 80.17C89.8906 80.2354 90.0202 80.2698 90.152 80.2698C90.2839 80.2698 90.4134 80.2354 90.5279 80.17C90.6424 80.1046 90.7379 80.0105 90.8048 79.8969Z" fill="#191919"/>
<path d="M88.4838 77.1199C89.4419 75.4196 90.7031 75.4339 91.381 74.7547C91.4464 74.6874 91.4933 74.6043 91.5171 74.5135C91.5408 74.4227 91.5407 74.3273 91.5166 74.2366C91.4926 74.1459 91.4455 74.0629 91.3798 73.9958C91.3142 73.9287 91.2323 73.8798 91.1421 73.8538C89.4648 73.5091 88.1134 75.4353 87.5957 76.7509C87.4041 77.2371 88.2307 77.5718 88.4838 77.1199Z" fill="#191919"/>
<path d="M87.9563 83.8652C88.8944 87.3244 92.3621 88.9317 94.0238 87.7748C94.13 87.7071 94.2147 87.6104 94.268 87.4963C94.3213 87.3821 94.341 87.2551 94.3248 87.1302C94.3086 87.0052 94.2572 86.8875 94.1765 86.7907C94.0959 86.6939 93.9893 86.6221 93.8693 86.5836C92.8218 86.5224 91.7999 86.2356 90.8735 85.7428C90.0594 85.0522 89.3125 84.2861 88.6427 83.4548C88.5883 83.3638 88.4999 83.2981 88.3971 83.2722C88.2942 83.2463 88.1853 83.2624 88.0943 83.3168C88.0033 83.3712 87.9376 83.4596 87.9117 83.5624C87.8858 83.6653 87.9019 83.7742 87.9563 83.8652Z" fill="#191919"/>
</svg>
