<svg width="593" height="227" viewBox="0 0 593 227" fill="none" xmlns="http://www.w3.org/2000/svg">
<path d="M0 183.136V226.985C40.1938 226.242 72.519 197.117 72.519 161.297V74.342C72.519 53.6255 87.5469 43.8203 97.1964 43.8203C106.846 43.8203 121.874 53.6255 121.874 74.342V152.658C121.874 189.856 151.067 227 195.968 227C240.868 227 270.062 189.856 270.062 152.658V74.342C270.062 53.6255 285.09 43.8203 294.74 43.8203C304.389 43.8203 319.417 53.6255 319.417 74.342V152.658C319.417 189.856 348.611 227 393.511 227C438.412 227 467.605 189.856 467.605 152.658V74.342C467.605 53.6255 482.633 43.8203 492.283 43.8203C501.932 43.8203 516.96 53.6255 516.96 74.342V152.658C516.96 189.856 546.154 227 591.054 227C591.706 227 592.355 226.992 593 226.977V183.055C592.332 183.138 591.682 183.18 591.054 183.18C581.405 183.18 566.377 173.375 566.377 152.658V74.342C566.377 37.1438 537.183 0 492.283 0C447.382 0 418.188 37.1439 418.188 74.342V152.658C418.188 173.375 403.161 183.18 393.511 183.18C383.862 183.18 368.834 173.375 368.834 152.658V74.342C368.834 37.1439 339.64 0 294.74 0C249.839 0 220.645 37.1439 220.645 74.342V152.658C220.645 173.375 205.617 183.18 195.968 183.18C186.318 183.18 171.29 173.374 171.29 152.658V74.342C171.29 37.1439 142.097 0 97.1964 0C52.2959 0 23.1023 37.1439 23.1023 74.342V161.297C23.1023 172.913 12.895 182.416 0 183.136Z" fill="#9A7ED9"/>
</svg>
