<svg width="88" height="131" viewBox="0 0 88 131" fill="none" xmlns="http://www.w3.org/2000/svg">
<path d="M46.179 93.8732C45.3977 105.403 45.4299 119.466 36.3171 129.051C35.3659 130.05 36.7689 131.693 37.7099 130.684C47.1591 120.556 48.1391 107.814 47.9863 93.9921C47.9938 93.8699 47.978 93.7473 47.9396 93.6314C47.9012 93.5155 47.841 93.4085 47.7624 93.3166C47.6839 93.2246 47.5885 93.1495 47.4818 93.0955C47.3751 93.0415 47.259 93.0097 47.1404 93.0019C47.0217 92.9941 46.9027 93.0104 46.7902 93.05C46.6776 93.0895 46.5738 93.1515 46.4845 93.2324C46.3952 93.3134 46.3223 93.4116 46.2699 93.5215C46.2174 93.6314 46.1866 93.7509 46.179 93.8732Z" fill="#9A7ED9"/>
<path d="M43.9937 10.8135C43.7097 8.11186 43.7016 2.842 43.0626 0.6063C42.8598 -0.0917382 41.4885 -0.26954 41.2491 0.514107C40.8311 4.07388 40.9394 7.66146 41.5717 11.2003C41.7644 12.4252 44.1377 12.2013 43.9937 10.8135Z" fill="#9A7ED9"/>
<path d="M0.68165 47.9936C2.10608 48.0926 8.06896 47.0067 10.243 46.8087C11.3496 46.7097 11.2068 44.9242 10.0509 45.0025C8.33072 45.1159 1.9327 45.7243 0.345094 46.6202C0.213071 46.7071 0.111656 46.829 0.0538494 46.9703C-0.00395748 47.1116 -0.0155337 47.266 0.0206243 47.4135C0.0567823 47.5611 0.139009 47.6951 0.256779 47.7985C0.374549 47.9018 0.522504 47.9698 0.68165 47.9936Z" fill="#9A7ED9"/>
<path d="M11.5179 17.7148C13.9668 19.5396 15.2327 20.372 16.8471 21.6392C17.9999 22.5427 19.6896 21.5875 18.7025 20.5514C16.6767 18.6991 14.4332 17.0313 12.0077 15.5748C10.0392 14.0668 8.92216 15.7882 11.5179 17.7148Z" fill="#9A7ED9"/>
<path d="M70.795 8.10937C69.0269 9.43155 66.2091 14.4156 65.173 16.3186C65.0946 16.4421 65.0412 16.5812 65.0162 16.7272C64.9912 16.8732 64.9951 17.0231 65.0277 17.1674C65.0603 17.3118 65.1208 17.4476 65.2055 17.5664C65.2903 17.6852 65.3974 17.7844 65.5202 17.8579C65.6431 17.9314 65.779 17.9776 65.9196 17.9937C66.0602 18.0097 66.2024 17.9952 66.3374 17.9511C66.4725 17.907 66.5974 17.8343 66.7044 17.7373C66.8115 17.6404 66.8985 17.5214 66.9598 17.3878C68.5513 14.5652 70.3059 11.8371 71.9381 9.03952C72.2472 8.50673 71.3249 7.70666 70.795 8.10937Z" fill="#9A7ED9"/>
<path d="M21.0625 43.9819C21.7582 53.371 28.6258 61.3981 36.05 66.7822C37.0326 67.4949 37.7891 66.2961 36.9456 65.5199C31.3353 60.3024 25.4972 54.8273 23.7094 47.0543C17.4035 19.6394 66.5814 15.7494 66.8649 40.9352C66.9675 50.1388 60.952 57.7332 55.4391 64.6011C54.5817 65.6693 55.8252 66.5572 56.7382 65.5731C62.432 59.4282 68.1675 51.9678 68.9118 43.2194C71.4352 14.02 18.9426 15.6035 21.0625 43.9819Z" fill="#9A7ED9"/>
<path d="M86.9328 36.0057C83.4768 36.39 79.9804 36.8297 76.5771 37.422C75.5855 37.5899 75.9909 39.0649 76.8948 38.9978C80.3713 38.7416 83.8413 38.3679 87.3048 37.8768C88.4808 37.7107 88.035 35.8849 86.9328 36.0057Z" fill="#9A7ED9"/>
<path d="M53.7497 46.6406C62.0467 39.4237 52.2556 32.4605 48.7367 40.7954C47.8728 42.8481 47.1934 44.9721 46.7064 47.1428C44.7874 47.4799 42.8334 47.5777 40.8899 47.4338C40.1402 44.6727 39.1142 40.1583 36.2266 38.9162C30.3204 36.3751 27.2247 47.4924 39.1394 49.4195C40.4817 55.0088 41.5288 60.6635 42.2763 66.3607C42.2997 66.5375 42.3872 66.6999 42.5227 66.8175C42.6582 66.9351 42.8323 67 43.0125 67C43.1928 67 43.3669 66.9351 43.5023 66.8175C43.6378 66.6999 43.7254 66.5375 43.7488 66.3607C43.6518 60.7311 42.8849 55.1324 41.4638 49.6803C43.0677 49.7441 44.6742 49.6698 46.2651 49.4585C45.5002 54.9891 45.81 60.6133 47.1781 66.0289C47.4812 67.4041 49.0165 67.0314 48.7618 65.7059C47.7003 60.1975 47.6759 54.5426 48.69 49.0255C50.5608 48.6895 52.3073 47.8663 53.7497 46.6406ZM53.8106 39.4698C56.6409 41.3118 52.218 45.8581 49.2227 46.5679C50.8782 39.9915 52.765 38.7884 53.8106 39.4698ZM33.5112 43.8688C32.3436 41.6188 34.3631 39.6207 36.2212 41.5194C37.3792 43.1802 38.1554 45.0718 38.4954 47.0612C37.4867 46.8904 36.5233 46.5194 35.6633 45.9704C34.8033 45.4215 34.0645 44.706 33.4914 43.8671L33.5112 43.8688Z" fill="#9A7ED9"/>
<path d="M84.7669 63.5791C81.6723 61.7377 78.4106 60.2137 75.0286 59.029C74.1589 58.7836 73.6126 60.1618 74.3343 60.6735C77.2466 62.7069 80.74 63.7396 83.7748 65.5823C85.6951 66.7585 87.1348 65.2462 84.7669 63.5791Z" fill="#9A7ED9"/>
<path d="M21.0273 67.0204C19.6875 67.2634 15.1418 72.4625 14.4738 73.6656C13.1285 76.1138 15.0326 76.3692 15.4531 75.6452C17.3609 72.3558 20.7451 70.1104 21.7373 68.7166C22.2033 68.0679 22.0977 66.8262 21.0273 67.0204Z" fill="#9A7ED9"/>
<path d="M37.0531 69.6711C36.5699 82.8794 39.3614 90.9861 46.4538 91C55.4875 91.0139 56.4641 80.0009 55.8546 69C49.6205 69.8033 43.3273 70.0279 37.0531 69.6711ZM51.4974 81.702C49.0463 83.3691 46.2346 84.4096 43.302 84.7348C42.2196 84.7539 42.0113 83.5349 43.0408 83.273C45.6951 82.6284 48.2125 81.501 50.4712 79.9454C50.6974 79.8469 50.9512 79.8354 51.1851 79.9129C51.4191 79.9904 51.6173 80.1517 51.7429 80.3666C51.8684 80.5816 51.9128 80.8355 51.8676 81.0812C51.8224 81.3269 51.6909 81.5475 51.4974 81.702ZM51.7876 75.1576C49.6756 76.8674 42.5218 78.6899 41.4871 78.6258C40.7239 78.6258 40.2578 77.7882 41.0141 77.2819C42.3544 76.3836 46.6485 75.6293 50.6761 73.4669C52.0369 72.7386 53.0887 74.1033 51.7945 75.1576H51.7876Z" fill="#9A7ED9"/>
</svg>
