<svg width="360" height="360" viewBox="0 0 360 360" fill="none" xmlns="http://www.w3.org/2000/svg">
<path d="M148.614 171.132C148.161 169.798 144.613 161.09 142.707 157.142C141.933 158.688 138.464 162.315 136.57 162.783C136.75 163.624 137.33 166.144 137.665 167.877C141.375 168.747 145.031 169.834 148.614 171.132Z" fill="#9A7ED9"/>
<path d="M176.648 272.16C170.024 272.368 163.506 273.882 157.469 276.615C152.548 278.595 123.512 291.015 119.057 292.007C118.258 292.187 117.964 291.107 118.603 290.673C125.379 286.533 163.872 271.294 170.624 270.2C170.197 269.187 166.262 252.594 169.916 255.528C171.25 256.581 172.036 268.038 172.278 270.015C179.105 269.266 210.247 270.826 218.957 271.122C217.211 263.506 215.157 254.715 214.29 252.448C211.142 252.074 170.703 251.568 165.355 251.687C155.619 251.914 124.796 265.025 116.166 270.252C113.393 271.933 111.178 271.253 110.539 270.412C91.9563 245.88 57.9453 170.118 60.7065 145.498C60.8127 144.497 62.3877 144.684 62.4273 145.656C63.5883 180.081 95.0073 239.472 112.509 268.956C114.964 266.767 126.981 261.576 130.408 260.136C124.326 258.201 117.07 250.416 115.603 242.719C96.9315 236.515 92.1021 200.779 97.1709 181.487C99.0915 174.136 109.922 168.415 116.749 168.748C116.749 167.616 116.497 162.227 116.749 157.732C113.963 157.912 104.747 157.173 105.374 147.661C104.22 147.642 103.088 147.346 102.073 146.8C101.057 146.254 100.187 145.472 99.5347 144.52C98.8828 143.569 98.468 142.475 98.3252 141.331C98.1823 140.186 98.3154 139.024 98.7135 137.941C93.1515 137.941 64.4775 139.488 60.1683 141.531C55.8591 143.574 47.0283 153.639 45.9105 158.694C44.7927 163.748 47.7915 179.406 68.5905 228.967C89.3895 278.529 98.8197 292.66 107.508 293.515C113.628 294.115 149.306 294.275 161.31 293.515C160.938 291.994 157.775 285.055 156.762 281.257C155.748 277.459 171.927 273.177 173.1 276.59C175.158 282.06 176.816 287.672 178.061 293.382C180.401 293.382 193.28 293.141 200.109 293.008C206.938 292.875 219.313 285.939 221.835 283.032C221.554 282.098 220.674 278.232 219.607 273.523C206.64 273.136 188.931 272.169 176.648 272.16Z" fill="#9A7ED9"/>
<path d="M217.607 176.548C215.408 176.975 213.183 177.26 210.947 177.401C210.015 177.401 182.592 171.461 181.427 171.733C180.263 172.005 177.132 185.523 175.199 192.231C181.962 186.651 182.135 180.495 188.879 184.23C191.747 185.83 194.015 192.445 193.507 195.286C192.999 198.126 187.947 207.063 180.797 213.703C182.624 212.476 194.533 203.661 202.937 198.583C203.096 198.403 208.157 182.673 209.459 180.124C209.529 180.013 209.635 179.929 209.759 179.886C209.884 179.844 210.019 179.845 210.143 179.89C210.266 179.936 210.371 180.022 210.438 180.135C210.506 180.248 210.532 180.381 210.513 180.511C208.832 186.138 206.924 191.7 205.178 197.304L211.512 194.4C213.379 189.18 215.327 184.425 217.26 179.235C217.607 178.303 218.687 178.436 218.354 179.368C216.606 184.25 214.967 189.038 213.167 193.907C216.944 192.741 221.027 193.1 224.543 194.908C225.05 193.88 237 167.125 236.747 166.966C236.493 166.808 218.192 176.307 217.607 176.548Z" fill="#97CC64"/>
<path d="M349.888 335.18C305.594 335.18 35.0988 336.08 10.2282 336.37C8.81523 336.37 8.49482 338.609 9.96182 338.609C54.2418 338.848 324.71 337.955 349.571 337.81C351.235 337.795 351.582 335.18 349.888 335.18Z" fill="#191919"/>
<path d="M103.426 133.974C97.7847 136.415 100.478 147.312 108.147 145.764C106.333 152.064 111.614 157.581 119.271 154.248C118.857 157.327 118.137 167.332 118.731 170.251C117.398 170.611 116.184 170.399 116.224 171.479C116.224 173.027 119.664 172.066 120.225 171.479C120.787 170.892 120.625 165.931 120.665 164.819C120.931 157.27 121.719 153.002 122.573 145.654C122.839 143.413 121.424 144.321 120.359 141.653C119.099 138.478 121.692 135.504 124.693 137.452C125.48 137.958 130.161 135.144 130.869 130.689C135.975 133.717 141.231 136.629 147.339 136.705C146.367 141.439 140.319 161.604 132.521 160.164C129.36 159.592 127.454 155.963 126.106 153.416C126.021 153.302 125.902 153.217 125.766 153.174C125.631 153.131 125.485 153.132 125.35 153.176C125.214 153.22 125.096 153.305 125.012 153.42C124.928 153.535 124.882 153.673 124.88 153.816C125.44 157.63 129.094 162.058 132.881 162.205C134.629 172.114 133.308 170.701 136.604 171.542C138.684 172.062 140.724 172.689 142.832 173.088C143.045 173.127 143.266 173.085 143.45 172.971C143.635 172.857 143.771 172.678 143.832 172.47C143.894 172.262 143.876 172.038 143.782 171.842C143.688 171.646 143.525 171.492 143.325 171.409C140.884 170.647 138.391 170.075 135.909 169.447C135.455 166.966 135.009 164.486 134.575 162.006C139.484 160.578 143.591 152.896 145.512 148.668C146.574 149.021 147.706 149.108 148.81 148.92C149.913 148.732 150.953 148.275 151.838 147.589C152.723 146.903 153.425 146.01 153.882 144.989C154.34 143.967 154.539 142.849 154.461 141.732C159.797 143.226 164.558 137.232 161.276 131.263C167.013 131.69 170.879 121.927 165.278 118.379C171.68 114.378 166.039 106.499 161.498 106.749C164.525 98.4134 157.496 94.9592 150.548 98.9192C148.948 87.716 137.984 89.8238 135.462 94.5308C132.356 87.8708 123.926 90.5312 122.699 96.0518C119.459 91.424 105.734 97.5728 109.442 106.828C101.934 104.308 98.3985 112.309 102.947 117.952C97.4373 118.383 95.7597 132.12 103.426 133.974Z" fill="#191919"/>
<path d="M137.664 150.352C139.117 150.368 140.211 149.125 139.704 148.579C139.196 148.034 138.944 148.964 138.185 149.119C137.298 149.212 136.406 149.005 135.65 148.532C134.477 147.992 134.743 150.32 137.664 150.352Z" fill="#191919"/>
<path d="M131.301 148.165C130.058 147.614 129.208 151.859 132.795 153.365C134.595 154.127 135.771 152.446 134.637 152.167C132.756 151.726 131.769 150.833 131.528 149.499C131.435 148.885 131.701 148.342 131.301 148.165Z" fill="#191919"/>
<path d="M135.702 142.137C135.29 140.895 133.542 143.471 134.489 144.083C135.436 144.695 135.956 142.749 135.702 142.137Z" fill="#191919"/>
<path d="M137.477 136.815C136.583 136.522 135.615 136.545 134.736 136.88C133.858 137.215 133.121 137.842 132.649 138.656C132.208 140.55 134.449 138.116 136.37 138.375C138.78 138.656 137.84 136.941 137.477 136.815Z" fill="#191919"/>
<path d="M143.052 139.99C144.119 140.51 144.386 141.509 144.613 141.61C145.345 141.876 145.333 140.73 145.079 140.276C144.946 139.903 144.732 139.563 144.452 139.283C144.171 139.003 143.832 138.789 143.459 138.656C142.381 138.535 142.571 139.722 143.052 139.99Z" fill="#191919"/>
<path d="M141.732 145.737C142.56 145.998 142.773 144.403 142.652 143.898C142.38 142.389 140.6 145.383 141.732 145.737Z" fill="#191919"/>
<path d="M177.729 195.032C179.623 193.432 184.389 188.284 184.586 186.045C184.588 185.981 184.578 185.918 184.556 185.859C184.534 185.8 184.501 185.746 184.458 185.699C184.415 185.653 184.363 185.616 184.306 185.589C184.248 185.563 184.186 185.548 184.123 185.546C184.004 185.541 183.888 185.58 183.797 185.658C181.664 188.544 179.3 191.253 176.729 193.757C175.754 194.492 174.86 195.328 174.061 196.251C173.782 196.56 173.82 198.337 177.729 195.032Z" fill="#191919"/>
<path d="M175.009 213.66C181.05 210.525 186.797 203.697 190.066 197.656C190.648 196.77 191.064 195.784 191.292 194.748C191.292 194.229 190.653 193.761 190.347 194.254C184.479 203.764 183.599 205.083 174.341 212.728C174.251 212.827 174.198 212.954 174.19 213.088C174.183 213.222 174.221 213.354 174.299 213.463C174.377 213.572 174.49 213.651 174.619 213.687C174.748 213.723 174.886 213.713 175.009 213.66Z" fill="#191919"/>
<path d="M187.02 186.176C186.263 186.487 183.872 190.937 183.433 191.684C182.406 193.39 181.217 194.993 179.883 196.472C179.217 197.219 180.524 199.499 184.7 192.647C185.26 191.725 188.007 187.63 187.886 186.563C187.852 186.136 187.346 186.044 187.02 186.176Z" fill="#191919"/>
<path d="M187.465 195.3C188.17 194.101 190.132 190.672 189.76 189.393C189.533 188.673 188.718 189.006 188.039 190.393C186.591 193.719 184.742 196.853 182.531 199.728C182.169 200.194 182.54 203.661 187.465 195.3Z" fill="#191919"/>
<path d="M166.58 202.795C166.485 202.898 166.426 203.028 166.41 203.167C166.395 203.306 166.424 203.446 166.494 203.566C166.564 203.687 166.671 203.782 166.799 203.838C166.927 203.894 167.07 203.907 167.206 203.875C172.221 202.543 170.127 195.392 171.326 192.697C171.954 191.272 173.407 189.538 173.407 188.363C173.406 188.193 173.339 188.031 173.219 187.911C173.098 187.791 172.936 187.724 172.766 187.724C172.659 187.726 172.554 187.753 172.46 187.803C171.403 188.849 170.552 190.084 169.953 191.445C168.313 194.712 169.607 197.286 168.833 199.822C168.356 200.994 167.579 202.019 166.58 202.795Z" fill="#191919"/>
<path d="M151.548 181.188C150.933 180.726 150.321 181.762 150.814 182.256C156.802 188.196 162.404 189.539 163.644 197.941C164.364 202.754 166.179 201.635 165.54 197.714C164.272 189.9 160.05 187.584 151.548 181.188Z" fill="#191919"/>
<path d="M108.481 235.365C110.761 237.871 113.567 239.843 116.698 241.139C116.698 242.379 122.578 254.639 130.261 257.584C130.426 257.615 130.598 257.593 130.751 257.521C130.904 257.449 131.03 257.331 131.111 257.183C131.193 257.035 131.225 256.865 131.204 256.698C131.184 256.53 131.11 256.373 130.995 256.25C125.71 252.41 121.435 247.345 118.537 241.49C120.495 241.857 122.485 242.022 124.477 241.983C142.537 241.409 158.317 229.286 171.277 217.55C171.743 217.136 171.704 216.616 171.583 215.989C171.583 215.989 170.383 207.812 166.248 204.759C164.835 203.719 164.988 203.933 163.822 204.612C152.377 211.174 141.322 217.95 127.877 218.869C123.543 205.729 123.476 201.024 123.703 192.008C123.703 191.049 122.263 191.367 122.143 192.168C121.302 197.997 122.929 212.668 126.704 218.842C125.104 218.923 123.489 218.963 121.862 219.003C121.115 219.003 120.755 220.23 121.608 220.403C136.107 223.31 153.378 212.895 165.155 205.573C167.97 208.603 169.615 212.536 169.796 216.668C157.793 227.205 143.948 238.009 127.496 239.742C119.626 240.595 115.092 240.05 109.73 233.802C102.289 225.133 100.395 210.402 99.7415 200.299C98.9405 186.682 99.9215 177.387 113.398 173.452C119.399 183.532 140.499 185.152 147.058 174.199C153.846 175.693 161.797 181.975 167.144 187.535C168.478 188.869 171.265 186.39 158.315 177.995C157.154 177.234 146.311 170.698 145.937 173.059C145.937 173.059 137.455 185.557 120.596 177.648C114.221 174.647 114.916 171.245 113.396 171.672C99.7793 175.488 97.1513 183.912 97.6049 197.215C97.9703 208.836 99.6227 225.646 108.481 235.365Z" fill="#191919"/>
<path d="M292.19 234.684C294.013 233.716 311.034 222.84 312.195 223.134C312.569 223.227 312.422 222.973 312.447 223.468C312.472 223.963 297.327 245.207 295.79 247.475C292.402 252.396 290.723 250.143 285.53 247.768C284.29 247.209 283.597 249.102 284.797 249.748C288.518 251.588 292.292 254.229 295.626 250.801C296.027 250.375 313.792 225.673 314.299 223.981C314.408 223.659 314.434 223.315 314.374 222.98C314.315 222.645 314.173 222.33 313.96 222.065C313.748 221.799 313.472 221.591 313.158 221.46C312.844 221.329 312.503 221.278 312.164 221.314C309.391 221.314 293.905 231.504 291.425 233.397C290.708 233.871 291.419 235.093 292.19 234.684Z" fill="#191919"/>
<path d="M246.696 332.887C254.458 332.36 262.702 333.287 270.703 333.047C272.143 333.047 275.145 333.047 274.344 330.646C273.705 328.792 271.385 328.126 269.756 327.512C263.954 325.3 258.513 322.404 252.685 320.246C251.425 319.776 250.458 321.657 251.725 322.125C257.953 324.391 263.809 327.458 270.037 329.685C272.81 330.322 273.34 331.193 269.857 331.271C261.2 331.451 252.598 330.336 243.937 331.177C238.922 331.67 237.134 331.717 236.668 329.762C236.494 327.681 236.602 325.586 236.987 323.534C236.987 322.787 235.946 322.694 235.653 323.253C234.584 325.491 234.294 328.021 234.827 330.443C235.732 334.714 243.202 333.125 246.696 332.887Z" fill="#191919"/>
<path d="M158.871 281.16C159.652 285.952 176.77 320.506 179.958 326.628C185.118 336.539 187.106 334.805 184.386 324.922C180.264 309.942 176.477 293.062 171.246 278.681C170.925 277.814 169.552 278.334 169.752 279.187C172.979 292.698 178.662 309.865 182.609 327.296C176.808 316.211 166.445 294.057 160.176 280.615C159.841 279.938 158.736 280.339 158.871 281.16Z" fill="#191919"/>
<path d="M118.364 297.609C115.337 306.306 112.509 315.069 109.602 323.817C106.067 334.487 106.04 339.048 112.748 326.112C117.817 316.35 125.487 300.771 126.752 298.01C127.22 297.011 125.512 296.142 125.006 297.142C120.559 306.034 116.14 314.926 111.749 323.817C114.575 315.243 117.524 306.706 120.231 298.089C120.512 296.957 118.631 296.64 118.364 297.609Z" fill="#191919"/>
<path d="M35.327 321.925C46.307 295.544 58.5074 269.365 70.751 243.501C71.291 242.394 69.6566 241.366 69.1094 242.485C57.1862 266.92 46.3304 291.462 35.3666 316.323C45.0758 287.46 53.5178 259.332 63.9614 226.269C64.2818 225.268 62.534 224.669 62.1884 225.695C51.4244 257.359 42.3416 289.62 31.286 321.509C25.256 338.915 28.64 337.975 35.327 321.925Z" fill="#191919"/>
<path d="M197.322 94.9879C209.092 96.7771 223.823 97.3621 236 97.9903C239.227 98.1703 239.76 97.7095 240.64 95.0419C243.521 87.3164 243.986 78.8979 241.974 70.9021C239.479 62.0047 232.812 54.3421 223.476 52.6429C224.938 48.9006 226.207 45.0856 227.277 41.2129C228.624 41.267 229.938 40.7877 230.933 39.8791C247.382 52.9955 264.225 65.6097 281.439 77.7043C281.191 78.395 281.081 79.128 281.116 79.8614C281.151 80.5947 281.33 81.3139 281.644 81.9777C281.957 82.6415 282.399 83.237 282.943 83.7299C283.487 84.2228 284.123 84.6036 284.814 84.8503C284.911 84.8845 285.01 84.9169 285.108 84.9457C284.427 130.093 284.654 176.494 286.828 221.639C286.828 221.968 286.959 222.284 287.192 222.516C287.424 222.749 287.74 222.88 288.069 222.88C288.398 222.88 288.713 222.749 288.946 222.516C289.178 222.284 289.309 221.968 289.309 221.639C288.049 175.946 287.149 131.026 287.548 85.2661C288.642 85.2134 289.68 84.7657 290.468 84.0061C294.284 86.6737 298.111 89.2081 301.925 91.8091C303.259 92.7415 304.593 90.5491 303.259 89.6347C299.392 87.1003 295.552 84.5347 291.739 81.9379C291.97 81.2895 292.071 80.6019 292.037 79.9144C292.002 79.2269 291.833 78.5529 291.538 77.9309C291.243 77.309 290.828 76.7512 290.317 76.2895C289.807 75.8278 289.21 75.4712 288.562 75.2401C288.234 75.1242 287.895 75.0405 287.55 74.9899C287.55 72.4429 287.484 69.8941 287.392 67.3345C287.367 67.1409 287.273 66.9629 287.127 66.8339C286.981 66.7049 286.792 66.6337 286.597 66.6337C286.402 66.6337 286.214 66.7049 286.067 66.8339C285.921 66.9629 285.827 67.1409 285.802 67.3345C285.622 69.8545 285.482 72.3889 285.376 74.9107C284.501 75.0086 283.664 75.3174 282.935 75.8107C265.596 63.7147 248.78 50.9707 232.252 37.8793C232.86 36.7286 233.012 35.3914 232.679 34.1337C232.345 32.8759 231.55 31.7898 230.452 31.0915L232.881 23.3515C233.334 21.9115 231.162 20.9233 230.708 22.3903C229.866 25.0579 229.012 27.7255 228.172 30.4741C226.858 30.4196 225.565 30.825 224.518 31.6207C220.225 28.0855 215.901 24.5791 211.327 21.4705C211.183 21.3697 211.005 21.3269 210.83 21.3505C210.655 21.3741 210.496 21.4625 210.383 21.5981C210.27 21.7337 210.212 21.9067 210.22 22.083C210.228 22.2593 210.302 22.4261 210.427 22.5505C214.369 26.4494 218.542 30.1064 222.925 33.5017C222.535 34.0946 222.276 34.7643 222.167 35.4656C222.057 36.167 222.099 36.8836 222.29 37.5673C222.481 38.251 222.816 38.8858 223.273 39.429C223.73 39.9721 224.298 40.411 224.939 40.7161C223.602 44.5638 222.461 48.4765 221.519 52.4395C215.774 51.9863 210.036 53.4059 205.165 56.4859C200.294 59.5658 196.552 64.1404 194.497 69.5251C191.82 76.4779 191.552 84.1282 193.738 91.2511C194.773 93.7225 194.857 94.6135 197.322 94.9879ZM196.188 73.0279C202.272 51.8887 230.505 47.2879 238.867 69.5467C242.003 77.9365 240.64 87.2461 237.679 95.4757C223.903 95.3592 210.143 94.5 196.459 92.9017C195.241 85.6387 193.961 80.7715 196.188 73.0351V73.0279Z" fill="#191919"/>
<path d="M290.683 255.517C290.683 254.731 288.456 254.543 288.469 255.424C288.469 277.857 288.321 297.77 288.321 317.12C284.815 318.722 277.438 324.07 273.372 326.79C277.373 328.685 277.84 331.247 277.373 332.845C279.521 332.98 312.236 333.101 316.545 332.845C320.411 332.62 297.406 319.417 291.124 317.043C290.989 297.437 290.87 276.379 290.683 255.517Z" fill="#191919"/>
<path d="M213.3 244.021C220.43 257.341 230.558 305.221 233.026 320.91C240.085 320.742 247.096 319.715 253.906 317.85C253.559 314.475 245.903 271.102 241.983 242.547C239.128 221.208 234.913 220.648 231.723 220.061C222.892 218.407 204.421 246.161 199.285 249.401C203.287 249.068 207.781 249.655 213.529 249.613C212.956 247.934 212.396 246.253 211.862 244.559C211.816 244.375 211.839 244.18 211.928 244.012C212.016 243.843 212.163 243.714 212.341 243.647C212.519 243.58 212.715 243.581 212.892 243.65C213.069 243.719 213.215 243.85 213.302 244.019L213.3 244.021Z" fill="#191919"/>
<path d="M230.196 217.692C238.546 217.692 241.187 224.694 242.587 234.418C244.735 234.924 268.435 243.942 280.747 249.196C282.389 246.42 286.936 235.685 289.416 232.017C284.916 230.35 228.56 195.806 217.395 195.806C200.057 195.806 147.015 245.421 139.438 255.399C161.551 247.821 169.702 249.075 194.774 249.837C203.722 244.408 218.073 217.692 230.196 217.692Z" fill="#191919"/>
<path d="M186.851 171.213C190.991 171.709 195.311 170.332 199.59 170.786C204.619 171.617 209.474 173.285 213.952 175.72C215.18 176.294 215.18 174.386 218.513 172.332C222.783 169.758 230.678 168.718 233.054 166.117C233.358 165.784 233.054 165.103 232.6 165.345C230.896 166.265 229.11 167.024 227.265 167.611C223.676 168.745 216.407 169.879 214.166 173.853C208.712 171.306 204.669 169.585 199.748 169.211C195.936 168.918 189.587 170.185 185.528 169.812C184.891 169.758 184.211 170.894 186.851 171.213Z" fill="#191919"/>
</svg>
