<svg width="69" height="69" viewBox="0 0 69 69" fill="none" xmlns="http://www.w3.org/2000/svg">
<path d="M22.5629 20.1866L26.7933 20.4971C26.8311 20.4996 26.8686 20.4903 26.9009 20.4705C26.9331 20.4506 26.9583 20.4212 26.973 20.3864L28.5725 16.4534C28.5867 16.4181 28.6118 16.3883 28.6442 16.3683C28.6765 16.3483 28.7144 16.3392 28.7524 16.3423C28.7903 16.3453 28.8262 16.3605 28.8549 16.3854C28.8836 16.4104 28.9036 16.4439 28.9119 16.481L29.9297 20.6006C29.9389 20.6372 29.9591 20.67 29.9875 20.6947C30.016 20.7193 30.0513 20.7347 30.0887 20.7386L34.3195 21.0491C34.3571 21.0524 34.3928 21.0673 34.4215 21.0918C34.4502 21.1163 34.4706 21.1492 34.4797 21.1858C34.4888 21.2225 34.4863 21.2611 34.4724 21.2962C34.4585 21.3313 34.434 21.3612 34.4023 21.3817L30.795 23.6208C30.7626 23.6404 30.7373 23.6696 30.7224 23.7044C30.7076 23.7392 30.704 23.7777 30.7122 23.8147L31.7299 27.9343C31.7392 27.9712 31.7364 28.0101 31.7221 28.0454C31.7078 28.0807 31.6826 28.1105 31.6502 28.1305C31.6178 28.1505 31.5799 28.1597 31.5419 28.1567C31.504 28.1538 31.468 28.1388 31.4391 28.114L28.1919 25.3792C28.1618 25.3553 28.125 25.3411 28.0866 25.3387C28.0482 25.3362 28.01 25.3455 27.977 25.3654L24.37 27.6017C24.3375 27.6208 24.2999 27.6293 24.2623 27.6262C24.2247 27.623 24.189 27.6082 24.1602 27.5839C24.1313 27.5597 24.1107 27.527 24.1011 27.4906C24.0916 27.4541 24.0935 27.4155 24.1068 27.3802L25.7062 23.4472C25.7189 23.4117 25.721 23.3733 25.7124 23.3366C25.7038 23.2998 25.6847 23.2664 25.6576 23.2402L22.4104 20.5054C22.3846 20.4775 22.3677 20.4424 22.362 20.4047C22.3563 20.3671 22.362 20.3286 22.3784 20.2943C22.3949 20.2599 22.4212 20.2313 22.4541 20.2121C22.487 20.1929 22.5249 20.184 22.5629 20.1866Z" fill="#9A7ED9"/>
<path d="M18.7131 32.4969C19.1407 32.3332 19.5474 32.1194 19.9247 31.86C20.6862 31.3167 21.2927 30.5841 21.6842 29.7345C22.0127 29.0045 22.4277 27.4978 21.8295 26.9786C21.7061 26.8748 21.5474 26.8228 21.3865 26.8334C21.2743 26.8542 21.1685 26.9006 21.0772 26.9691C20.9859 27.0376 20.9117 27.1262 20.8604 27.2281C20.6879 27.5327 20.6941 27.7335 20.7148 27.7611C20.7493 27.7956 20.8183 27.6514 21.0125 27.4078C21.4193 26.8944 21.8553 27.206 21.5873 28.3497C21.4108 29.1194 21.0581 29.8378 20.5569 30.4481C20.0557 31.0584 19.4197 31.5441 18.6989 31.8669C18.1525 32.1012 17.8627 32.2326 17.6118 32.8433C17.1288 34.0187 17.3062 35.3528 17.5704 36.6096C17.7119 37.2821 17.8057 37.3504 17.8057 36.6441C17.8057 35.6171 17.6105 34.315 18.0621 33.1893C18.105 33.0291 18.187 32.8821 18.3006 32.7613C18.4141 32.6405 18.5559 32.5496 18.7131 32.4969Z" fill="#191919"/>
<path d="M18.5817 42.7649C18.2622 41.249 18.0624 40.1063 17.9169 39.5039C17.5374 37.928 17.6526 40.5527 18.0138 42.7373C18.4423 45.3269 19.1523 48.407 21.1364 50.2773C21.21 50.36 21.3058 50.4199 21.4124 50.4498C21.0712 49.3261 19.8589 48.8293 18.5817 42.7649Z" fill="#191919"/>
<path d="M16.5392 51.6897C14.8615 47.7929 14.1759 43.2976 13.7833 39.0886C13.6905 38.0912 13.5998 37.9808 13.5549 39.0054C13.3366 44.0031 15.125 53.0014 19.0108 56.2247C19.786 56.8678 19.8971 56.8826 19.2395 56.1278C18.4919 55.4857 17.1419 53.0904 16.5392 51.6897Z" fill="#191919"/>
<path d="M26.4745 45.3613C26.3579 45.4648 26.2413 45.5711 26.1295 45.6798C26.026 45.7784 25.8711 45.8799 25.819 46.0193C25.7897 46.1251 25.7933 46.2373 25.8291 46.3411C25.865 46.4449 25.9315 46.5354 26.0198 46.6006C26.2792 46.8524 26.6839 47.0491 26.5808 46.7041C26.5666 46.6696 26.3738 46.2404 26.3658 46.2404C26.7577 45.9427 27.0596 45.5425 27.2383 45.084C27.2973 44.7314 26.745 45.1191 26.4745 45.3613Z" fill="#191919"/>
<path d="M27.7763 48.1241C27.8109 48.0815 27.8308 48.0289 27.833 47.9741C27.8352 47.9193 27.8197 47.8652 27.7886 47.82C27.7575 47.7748 27.7126 47.7408 27.6606 47.7233C27.6087 47.7057 27.5524 47.7054 27.5003 47.7225C26.2793 48.6285 25.8788 47.2654 25.9077 47.6946C25.9916 49.0307 27.5851 48.438 27.7763 48.1241Z" fill="#191919"/>
<path d="M25.8932 42.9587C27.1055 42.3508 27.2421 43.6925 27.2849 43.291C27.4195 42.0238 25.9298 42.2749 25.7131 42.5295C25.4964 42.7842 25.7824 43.0143 25.8932 42.9587Z" fill="#191919"/>
<path d="M29.916 45.0083C29.9368 45.0549 29.9718 45.0937 30.016 45.1191C30.0602 45.1446 30.1113 45.1554 30.162 45.15C30.2127 45.1446 30.2604 45.1232 30.2983 45.0891C30.3361 45.0549 30.3622 45.0096 30.3727 44.9597C30.4835 44.6492 29.9836 43.2295 28.9534 43.9488C28.6229 44.1797 29.8425 43.6511 29.916 45.0083Z" fill="#191919"/>
<path d="M28.3372 45.3331C28.3165 45.4576 28.4752 45.5908 28.6905 45.6308C28.8841 45.6653 29.0641 45.617 29.1128 45.5131C29.1698 45.5223 29.2277 45.5246 29.2853 45.5201C29.6068 45.4987 29.8332 45.2668 29.6455 45.2499C29.4957 45.2512 29.346 45.2443 29.197 45.2292C29.0503 45.1763 28.8998 45.1346 28.7467 45.1043C28.6025 45.0971 28.3631 45.1788 28.3372 45.3331Z" fill="#191919"/>
<path d="M25.9139 44.4198C26.1899 44.6161 26.4745 44.4685 26.4745 44.3091C26.4686 44.2341 26.4448 44.1616 26.4051 44.0977C26.3653 44.0338 26.3108 43.9804 26.2461 43.942C26.1081 43.8485 26.0046 43.884 25.6993 43.7205C25.6093 43.6649 25.5399 43.5956 25.4578 43.5404C25.2115 43.3555 25.375 43.9051 25.7072 44.0527C25.7037 44.1272 25.7212 44.2011 25.7577 44.266C25.7943 44.331 25.8484 44.3843 25.9139 44.4198Z" fill="#191919"/>
<path d="M41.077 31.0983C41.284 32.0826 41.7346 32.1402 42.1155 32.5593C42.426 32.8502 42.3597 33.2935 42.3163 33.674C41.727 38.8535 39.3896 42.327 36.7911 46.8082C35.6443 48.7861 37.1016 46.8772 38.3629 44.9735C39.8643 42.7791 41.0876 40.407 42.0047 37.9113C42.4583 36.4703 42.7554 34.9847 42.891 33.4801C42.9152 33.2584 42.9058 33.0343 42.8631 32.8153C43.0504 32.9591 43.2728 33.05 43.5072 33.0786C43.6249 33.0717 43.6314 33.0306 43.5555 32.9751C43.472 32.9133 43.3188 32.8177 43.1332 32.6704C42.505 32.1712 41.7063 31.7983 41.52 30.9454C41.3185 30.0246 41.2154 28.6339 42.0741 27.9681C42.2705 27.8666 42.4902 27.819 42.711 27.8301C42.87 27.8194 42.96 27.8232 42.9742 27.8021C42.988 27.7883 42.9397 27.7538 42.8017 27.7193C42.5664 27.654 42.3182 27.6515 42.0817 27.7121C41.1495 27.9553 40.779 29.6927 41.077 31.0983Z" fill="#191919"/>
<path d="M43.7842 30.212C43.8294 30.0519 43.8532 29.7694 43.9294 29.423C44.0136 29.0352 44.1154 28.6471 44.2134 28.2596C44.2653 27.9831 44.3612 27.7166 44.4973 27.4703C44.5456 27.394 44.5805 27.3457 44.5663 27.304C44.5504 27.2239 44.2689 27.2067 44.0057 27.5189C43.5306 28.082 43.139 29.6038 43.5486 30.2189C43.6562 30.3807 43.7393 30.3703 43.7842 30.212Z" fill="#191919"/>
<path d="M44.6702 30.489C44.9079 30.8727 44.9696 30.1937 45.0373 29.7483C45.0911 29.3981 45.1651 29.0512 45.2588 28.7095C45.3795 28.2748 45.6521 27.5589 45.2867 27.7749C45.0551 27.9514 44.8736 28.1853 44.7602 28.4535C44.3714 29.256 44.4432 30.1223 44.6702 30.489Z" fill="#191919"/>
<path d="M46.1796 30.6205C46.2444 30.4016 46.2863 30.1766 46.3045 29.9491C46.372 29.6616 46.4599 29.3793 46.5674 29.1042C46.9144 28.0692 46.6226 27.8639 46.0899 28.8206C45.8891 29.1338 45.7744 29.4943 45.7573 29.866C45.7538 30.1324 45.8207 30.395 45.9512 30.6274C46.0412 30.7523 46.1223 30.7581 46.1796 30.6205Z" fill="#191919"/>
<path d="M46.969 32.4208C46.8085 32.2873 46.9845 35.9398 45.2785 40.8609C43.5159 45.9472 39.6084 53.4285 35.4256 56.5156C35.0972 56.7259 34.7827 56.9572 34.4841 57.208C34.4634 57.2494 34.7898 57.1542 35.4467 56.7788C37.5691 55.5658 39.4069 53.2181 40.7986 51.205C42.8615 48.1414 44.512 44.8194 45.7076 41.3249C46.5844 38.8349 47.0429 36.217 47.0645 33.5772C47.0843 33.1892 47.0521 32.8003 46.969 32.4208Z" fill="#191919"/>
<path d="M21.9257 32.2893C23.6621 32.675 25.4923 33.0686 27.257 33.051C34.7494 32.9751 37.1978 29.2167 39.194 28.9035C39.4568 28.8626 39.7251 28.8743 39.9834 28.938C40.0455 28.9531 40.288 29.076 40.3501 29.0487C40.4264 29.007 39.7964 28.7037 39.7408 28.6816C39.3792 28.5878 38.9991 28.5926 38.6399 28.6954C36.7166 29.1936 35.5077 31.3443 29.7776 32.2682C26.9569 32.7229 24.1279 32.2727 22.0368 32.0812C21.0405 31.9902 20.9287 32.0678 21.9257 32.2893Z" fill="#191919"/>
<path d="M22.6251 38.1815C24.9135 37.6168 27.0738 36.2582 27.3888 33.9301C27.4086 33.8485 27.4109 33.7636 27.3957 33.681C27.3816 33.6672 27.3502 33.7155 27.2988 33.8332C27.0114 34.7524 26.4658 35.5696 25.727 36.1874C23.4055 38.1015 19.5684 38.175 16.5876 37.8907C16.5531 37.8873 12.8157 37.5395 12.7795 37.5236C12.6628 37.4729 12.6949 37.4336 12.6963 37.3021C12.7105 36.2078 12.7139 33.425 12.7174 33.1276C12.7174 33.0448 12.7657 32.8023 12.7036 32.7261C12.6756 32.6847 12.568 32.9551 12.4886 33.5154C12.3368 34.5925 12.2626 36.2878 12.2257 36.9219C12.2112 37.171 12.0732 37.7044 12.2809 37.8983C12.4534 38.0604 16.2829 38.462 16.5182 38.4869C18.5559 38.7452 20.6233 38.6418 22.6251 38.1815Z" fill="#191919"/>
<path d="M27.0562 6.71989C28.4876 4.8386 29.4712 4.03855 31.4115 2.29561C31.5784 2.40744 31.7379 2.52994 31.889 2.66234C32.7192 3.39738 33.5119 4.17381 34.264 4.98868C35.9172 6.74818 37.3979 9.10798 37.7326 11.5319C37.8975 12.8748 37.5785 14.2325 36.8328 15.3614C36.6372 15.6768 36.6924 15.6806 36.8673 15.4994C37.0327 15.3408 37.1854 15.1695 37.3241 14.9871C37.845 14.2462 38.1538 13.3772 38.2173 12.4738C38.2579 11.1718 37.9823 9.8793 37.4142 8.70709C36.2694 6.11338 34.3126 3.86294 32.0691 2.07446C31.7724 1.83779 31.386 1.54351 31.0444 1.87367C29.5585 3.30991 27.9867 4.71371 26.9248 6.50564C26.7425 6.76824 26.6028 7.05791 26.5108 7.364C26.5232 7.4192 26.6916 7.19909 27.0562 6.71989Z" fill="#191919"/>
<path d="M57.0571 26.4732C57.0371 26.193 57.0071 25.9136 56.967 25.6356C56.9639 25.4123 56.9119 25.1924 56.8145 24.9915C56.7833 24.9448 56.7392 24.9082 56.6876 24.8861C56.6359 24.864 56.579 24.8574 56.5237 24.8669C56.2957 24.9232 56.2387 25.2809 56.157 25.4693C55.4241 27.0723 54.1456 28.363 52.5496 29.1111C51.1451 29.7987 49.7244 30.1016 48.2913 29.6307C48.1457 29.5827 47.8828 29.3892 47.7393 29.4237C47.7117 29.4302 47.7759 29.4896 47.9539 29.6103C49.0396 30.3469 50.3913 30.2475 51.5888 29.9012C52.6488 29.5997 53.6407 29.0965 54.5099 28.419C55.2506 27.8346 56.4764 26.3897 56.4488 26.1341C56.5488 27.1453 56.5114 28.1654 56.3377 29.1667C55.8108 31.62 54.8318 33.9537 53.4508 36.0487C53.1465 36.4782 52.1508 37.7292 51.6437 37.8772C51.6215 37.715 51.6333 37.5499 51.6782 37.3925C51.948 35.407 51.1372 32.9075 49.2342 31.9781C48.8943 31.816 48.5363 31.695 48.1678 31.6179C48.045 31.5794 47.9169 31.5607 47.7883 31.5627C47.6848 31.6148 48.8281 31.9135 49.464 32.4279C50.3264 33.2204 50.9114 34.269 51.1327 35.4191C51.2211 35.8564 51.2583 36.3025 51.2435 36.7484C51.23 37.1572 51.0051 37.712 51.1534 38.0987C51.1817 38.1798 51.2303 38.2523 51.2945 38.3093C51.3588 38.3662 51.4366 38.4057 51.5205 38.424C51.84 38.481 52.1784 38.1753 52.4134 37.9949C54.8063 36.1532 57.3489 30.5184 57.0571 26.4732Z" fill="#191919"/>
<path d="M13.0771 29.1597C13.3617 29.2497 13.6356 29.3704 13.8941 29.5196C14.493 29.7666 14.906 29.8935 14.8497 29.8935C14.4823 30.4435 14.2064 31.0494 14.0328 31.6875C13.599 33.2316 13.4882 34.8484 13.7071 36.4372C13.7761 36.7973 13.8596 36.8387 13.9358 36.4717C14.088 35.7375 14.1546 33.6751 14.5451 31.9087C14.8453 30.5518 14.9874 30.3586 15.0505 29.9494C15.3828 30.0253 15.7157 30.1544 16.0476 30.2403C17.3172 30.5687 17.9713 30.6018 17.5221 30.2955C16.8507 29.8373 14.6362 29.157 13.8458 28.9731C13.9635 28.912 14.0768 28.8428 14.1849 28.7661C14.7418 28.3546 15.2362 27.8648 15.6529 27.3119C18.0389 24.3915 20.0544 19.349 20.0285 19.0926C19.9978 18.9232 18.8738 21.6194 17.1485 24.4032C16.405 25.6024 14.9843 27.7401 13.7281 28.4604C12.9001 28.9358 12.5959 28.4314 12.5027 27.491C12.138 23.8236 15.8492 13.545 19.7032 8.90064C20.3649 8.10334 21.6214 6.73818 22.2997 7.52305C22.5001 7.83219 22.606 8.19308 22.6043 8.5615C22.6558 9.70974 22.5557 10.8598 22.3066 11.9818C21.9418 13.7554 21.456 15.502 20.8527 17.2093C20.4474 18.4168 20.1879 19.0723 20.2086 19.1478C20.2528 19.5898 24.4701 9.67826 22.6736 7.16287C23.818 7.41221 24.9356 7.77165 26.0108 8.23616C27.4105 8.8131 28.7244 9.57924 29.9159 10.5132C31.3119 11.6546 32.6389 12.8779 33.8899 14.1767C35.8586 16.0822 37.3977 18.3861 38.4043 20.9342C39.2412 23.086 39.0718 23.5669 39.4638 24.7837C39.5856 25.2221 39.7978 25.6301 40.0868 25.9816C40.2744 26.1959 40.5124 26.3601 40.7792 26.4594C40.8771 26.5009 40.9844 26.5152 41.0897 26.5008C41.1104 26.4801 41.0411 26.4594 40.9028 26.3901C40.6852 26.2738 40.4923 26.1163 40.3349 25.9264C39.5524 25.0294 39.7415 23.2143 38.9156 20.8997C38.0144 18.3641 36.5711 16.0556 34.6862 14.135C33.3752 12.7484 31.971 11.453 30.4834 10.2579C29.1998 9.2467 27.7652 8.44341 26.2323 7.87737C25.0323 7.38652 23.764 7.08295 22.4718 6.97726C22.3402 6.86985 22.1847 6.79556 22.0184 6.76063C21.8521 6.72569 21.6799 6.73112 21.5162 6.77647C18.2083 7.54375 12.56 19.5118 11.9683 25.8722C11.8696 26.9345 11.803 28.7475 12.8063 29.1125C12.8937 29.1417 12.985 29.1576 13.0771 29.1597Z" fill="#191919"/>
<path d="M17.5363 14.156C18.1072 13.1007 19.747 10.0771 20.4719 9.13628C20.7972 8.714 21.0118 8.49907 21.0187 8.46457C21.0187 8.45077 20.9773 8.47837 20.8807 8.56151C20.7283 8.69496 20.585 8.83834 20.4515 8.99069C19.6518 9.88769 18.603 11.721 17.4048 13.8304C16.0456 16.1996 14.9413 18.7062 14.1104 21.3082C13.6494 22.8641 13.3155 24.4548 13.112 26.0647C13.0605 26.3646 13.077 26.6722 13.1603 26.9648C13.2317 27.1856 13.4856 27.6849 13.7902 27.5534C13.804 27.5465 13.7557 27.5327 13.6522 27.4844C13.4975 27.3922 13.3781 27.2509 13.3131 27.0828C13.2112 26.7259 13.2063 26.3483 13.299 25.9888C13.9579 21.7188 15.4956 17.9258 17.5363 14.156Z" fill="#191919"/>
<path d="M33.7517 40.5286C31.7731 38.3599 28.2265 37.4267 25.63 39.5039C23.0335 41.5812 21.39 43.6032 21.0049 45.0981C20.6196 46.6012 20.9014 48.466 23.6566 49.4741C24.3031 49.6594 24.9596 49.8073 25.6231 49.917C25.2829 50.5559 25.0491 51.2458 24.9307 51.9598C24.7092 51.9111 24.487 51.8456 24.259 51.8142C24.1689 51.8018 23.6073 51.7738 23.8298 51.9805C24.0779 52.2103 24.7437 52.6098 25.097 52.5325C25.6228 52.4207 25.6949 51.2939 25.7963 50.8848C25.8888 50.5115 25.9484 50.1993 25.9833 49.9778C26.1285 49.9985 26.2669 50.0054 26.4056 50.0123C26.6685 50.0257 28.4411 50.0261 28.4966 49.6328C28.5114 49.5293 27.7721 49.749 26.4887 49.5983C25.7549 49.512 25.0487 49.3568 24.7437 48.6081C24.4187 47.8119 24.5429 46.898 24.633 46.0672C24.9041 43.5666 25.3575 42.6517 25.9622 41.5877C26.4286 41.6478 26.8719 41.8259 27.2501 42.1052C27.5393 41.5653 27.961 41.1077 28.4756 40.7756C28.4756 40.7756 28.4204 41.8213 27.8387 42.3336C27.8387 42.3336 29.0365 42.4026 29.4312 42.8511C29.4312 42.8511 30.0474 42.3943 30.0474 41.8127C30.2145 42.2006 30.2812 42.6244 30.2413 43.045C30.611 43.2126 30.9449 43.4501 31.2245 43.7443C31.6095 44.169 29.8925 49.3581 28.2748 50.6612C28.2433 50.6858 28.2197 50.7189 28.2066 50.7566C28.1935 50.7943 28.1917 50.835 28.2012 50.8737C28.2107 50.9125 28.2312 50.9476 28.2602 50.975C28.2893 51.0023 28.3256 51.0207 28.3648 51.0279C28.4825 51.0504 28.6143 51.0697 28.7595 51.0904C28.7278 51.1542 28.5777 51.6255 28.5035 51.8935C28.4475 52.0445 28.4035 52.1997 28.3717 52.3576C28.2813 53.2039 29.8628 52.4493 30.1029 52.1568C30.2496 51.9777 30.2213 51.9046 30.006 51.9498C29.6971 52.0335 29.3822 52.0936 29.0641 52.1295C29.2108 51.6362 29.2577 51.3633 29.3056 51.1673C30.7319 51.3195 32.8698 51.276 34.3806 49.5679C35.9452 47.8036 35.7337 42.701 33.7517 40.5286ZM33.6961 47.5355C33.4394 48.2203 33.4374 47.708 33.5236 46.9883C33.7832 45.0567 33.298 43.0987 32.1664 41.5118C31.2197 40.2184 30.0619 39.636 30.1171 39.5246C30.1447 39.4901 30.2275 39.5115 30.2623 39.5177C30.5015 39.5673 30.7309 39.6563 30.9409 39.7809C33.5819 41.262 34.7722 44.6637 33.6961 47.5355Z" fill="#191919"/>
<path d="M32.7404 51.5164C32.7341 51.506 32.7247 51.4978 32.7136 51.4928C32.7024 51.4879 32.69 51.4865 32.678 51.4888L30.8084 51.8628C30.8002 51.8646 30.7925 51.8679 30.7856 51.8727C30.7787 51.8775 30.7728 51.8836 30.7683 51.8906C30.7638 51.8977 30.7607 51.9056 30.7592 51.9138C30.7578 51.9221 30.758 51.9305 30.7598 51.9387C30.9323 52.4859 31.9504 56.0363 27.2356 56.6956C22.6382 57.3383 23.0014 52.6774 23.1301 51.8004C23.1348 51.7587 23.1267 51.7166 23.1069 51.6797C23.0872 51.6427 23.0566 51.6126 23.0194 51.5934L22.1193 51.0879C22.0292 51.0324 21.9102 50.9827 21.8433 51.0672C21.1139 51.9753 17.9448 57.7623 21.6911 67.2757H31.6399C31.6399 67.2681 36.7355 57.8441 32.7404 51.5164ZM21.9744 65.461C20.5716 62.6796 20.3743 59.1451 20.8942 56.1415C20.9647 55.6241 21.1116 55.1201 21.3303 54.6459C21.3932 54.9726 21.3979 55.3078 21.3441 55.6361C21.0528 58.5882 21.2636 61.5684 21.9675 64.4501C22.1092 64.9249 22.1904 65.4157 22.209 65.9109C22.1334 65.7656 22.051 65.6131 21.9744 65.461Z" fill="#9A7ED9"/>
</svg>
