<svg width="184" height="184" viewBox="0 0 184 184" fill="none" xmlns="http://www.w3.org/2000/svg">
<path d="M146.438 103.693C147.175 103.654 147.887 103.411 148.494 102.991C149.101 102.571 149.58 101.991 149.877 101.316C150.129 100.456 149.219 100.153 148.915 101.113C148.661 101.639 148.277 102.092 147.799 102.428C147.322 102.764 146.766 102.974 146.185 103.036C145.983 103.086 145.579 103.71 146.438 103.693Z" fill="#191919"/>
<path d="M147.955 96.411C147.657 95.2967 146.134 96.3098 147.045 97.3717C147.298 97.6751 148.265 97.5721 147.955 96.411Z" fill="#191919"/>
<path d="M145.781 91.7085C145.072 91.908 145.073 92.7198 145.982 92.7198C146.999 92.6448 148.019 92.802 148.966 93.1795C149.032 93.2014 149.102 93.2003 149.167 93.1765C149.231 93.1526 149.286 93.1074 149.321 93.0484C149.357 92.9894 149.371 92.92 149.361 92.8519C149.352 92.7837 149.319 92.7209 149.269 92.6738C148.792 92.2709 148.233 91.976 147.631 91.8094C147.028 91.6427 146.398 91.6083 145.781 91.7085Z" fill="#191919"/>
<path d="M143.05 94.2331C142.375 93.8511 141.578 93.7426 140.825 93.9297C140.366 94.0814 140.421 94.587 140.876 94.6376C141.47 94.6582 142.054 94.7956 142.595 95.0421C143.201 95.2986 143.35 94.4932 143.05 94.2331Z" fill="#191919"/>
<path d="M143.858 97.7266C143.715 98.8507 143.698 99.9874 143.808 101.115C144.011 102.43 146.993 101.469 146.539 100.761C146.286 100.357 145.275 101.221 144.617 100.913C144.441 99.8605 144.374 98.7928 144.415 97.7266C144.415 97.6527 144.386 97.5818 144.334 97.5296C144.282 97.4773 144.211 97.448 144.137 97.448C144.063 97.448 143.992 97.4773 143.94 97.5296C143.888 97.5818 143.858 97.6527 143.858 97.7266Z" fill="#191919"/>
<path d="M142.847 98.0796C143.604 97.6199 142.899 96.0571 142.241 96.5627C141.735 96.8661 141.934 98.6321 142.847 98.0796Z" fill="#191919"/>
<path d="M137.74 102.176C138.448 104.502 140.167 107.536 142.139 108.952C143.049 109.609 143.504 108.952 142.599 108.092C140.655 106.454 139.188 104.323 138.351 101.922C138.318 101.841 138.253 101.777 138.172 101.743C138.091 101.71 138 101.71 137.919 101.744C137.838 101.777 137.773 101.842 137.74 101.923C137.706 102.004 137.706 102.095 137.74 102.176Z" fill="#191919"/>
<path d="M154.174 104.603C154.422 104.395 154.225 103.997 153.921 104.144C151.09 105.357 149.118 109.756 150.483 112.892C150.685 113.297 151.242 113.145 151.14 112.689C150.382 108.8 151.381 106.959 154.174 104.603Z" fill="#191919"/>
<path d="M137.285 105.564C137.682 106.828 138.33 107.999 139.19 109.007C140.05 110.015 141.105 110.839 142.291 111.429C142.948 111.733 143.606 111.227 142.594 110.57C140.513 109.377 138.866 107.553 137.892 105.362C137.639 104.957 137.173 105.112 137.285 105.564Z" fill="#191919"/>
<path d="M139.459 102.075C140.597 104.428 142.507 106.319 144.87 107.435C148.156 108.901 148.815 106.626 151.646 104.755C151.95 104.553 151.797 104.148 151.443 104.249C148.915 104.856 148.662 108.193 145.122 106.474C143.058 105.327 141.318 103.674 140.066 101.671C140.007 101.603 139.926 101.56 139.838 101.548C139.749 101.536 139.659 101.557 139.585 101.607C139.511 101.656 139.457 101.731 139.434 101.817C139.411 101.903 139.42 101.995 139.459 102.075Z" fill="#191919"/>
<path d="M143.858 115.378C144.112 115.782 144.769 115.429 144.566 115.024C143.606 112.444 139.763 111.888 138.397 109.613C138.145 109.208 137.69 109.613 137.846 110.017C139.257 112.694 142.144 112.64 143.858 115.378Z" fill="#191919"/>
<path d="M139.105 94.1862C139.291 96.6649 139.784 99.111 140.572 101.468C140.673 101.822 141.33 101.671 141.229 101.266C140.163 97.8493 139.734 94.2655 139.965 90.6936C140.323 90.8237 140.704 90.8779 141.084 90.8529C141.463 90.8278 141.834 90.724 142.172 90.5481C142.509 90.3722 142.807 90.1279 143.045 89.8309C143.283 89.5338 143.457 89.1905 143.555 88.8227C144.921 90.8453 148.966 90.643 150.23 88.8227C149.876 91.6037 153.113 96.5085 153.77 95.5983C154.073 95.1386 154.377 94.6376 154.933 94.4859C157.006 93.8286 157.36 97.7726 156.096 98.3288C155.544 98.5816 154.427 97.8691 155.085 99.6434C155.958 101.96 156.7 104.323 157.309 106.722C157.41 107.177 157.967 106.975 157.967 106.52C157.522 104.068 156.844 101.663 155.944 99.3391C156.414 99.2791 156.85 99.0614 157.181 98.7216C157.512 98.3818 157.717 97.94 157.764 97.4683C158.356 97.2533 158.884 96.8938 159.301 96.4223C159.718 95.9509 160.01 95.3826 160.151 94.7692C160.292 94.1559 160.277 93.5171 160.107 92.911C159.938 92.3049 159.62 91.7509 159.181 91.2994C161.912 88.569 161.406 84.0679 157.208 84.1184C157.469 83.2903 157.472 82.4028 157.219 81.5725C156.965 80.7423 156.467 80.0081 155.788 79.4665C155.11 78.925 154.283 78.6013 153.418 78.5382C152.552 78.475 151.687 78.6752 150.937 79.1126C149.42 75.0169 143.201 76.2304 143.049 79.8711C139.105 76.635 133.997 81.6914 137.031 85.5848C133.594 85.64 133.291 93.8322 139.105 94.1862Z" fill="#191919"/>
<path d="M146.034 118.206C146.336 118.545 146.735 118.783 147.177 118.889C147.619 118.995 148.083 118.963 148.507 118.798C148.93 118.633 149.293 118.343 149.547 117.966C149.801 117.589 149.933 117.143 149.927 116.689C150.764 116.362 151.575 115.973 152.354 115.526C152.241 114.839 151.982 114.184 151.596 113.605C150.808 113.808 150.045 114.097 149.32 114.464C149.028 114.102 148.628 113.842 148.178 113.723C147.728 113.603 147.252 113.629 146.818 113.798C146.384 113.967 146.016 114.27 145.765 114.662C145.515 115.055 145.396 115.517 145.426 115.981C144.92 116.285 144.364 116.638 144.162 116.79C144.137 117.489 144.329 118.178 144.713 118.762C145.122 118.61 145.624 118.412 146.034 118.206ZM146.488 115.981C146.648 114.211 148.97 114.414 148.764 116.638C148.612 118.459 146.296 118.106 146.488 115.981Z" fill="#191919"/>
<path d="M134.96 135.298C134.808 132.769 134.707 126.802 135.365 124.577C135.466 124.173 135.971 124.071 135.916 124.931C135.746 128.369 135.78 131.813 136.017 135.247C139.836 135.124 143.657 135.31 147.446 135.803C145.827 131.556 143.551 118.358 143.299 116.638C143.046 114.919 139.607 113.755 137.782 111.986C133.535 113.503 127.618 118.257 123.017 124.729C124.709 128.418 126.096 132.241 127.163 136.157C129.744 135.726 132.347 135.439 134.96 135.298Z" fill="#191919"/>
<path d="M158.776 107.637C156.703 109.811 154.933 110.873 151.798 110.924C152.455 115.429 156.4 121.998 159.839 126.803C160.376 125.66 160.766 124.453 161.001 123.212C161.103 122.504 161.552 122.757 161.552 123.161C161.47 124.757 161.128 126.328 160.541 127.814C164.688 133.477 170.102 138.938 172.125 145.816C174.4 142.934 183.3 127.153 177.132 116.689C173.492 110.368 165.552 107.132 158.776 107.637Z" fill="#191919"/>
<path d="M166.21 153.347C169.8 153.398 171.468 153.398 174.502 153.398C176.07 149.504 177.688 141.869 178.245 135.547C175.008 146.018 170.103 150.973 166.21 153.347Z" fill="#191919"/>
<path d="M152.404 150.215C146.696 150.755 141.046 151.787 135.515 153.299C138.802 153.249 150.635 153.148 154.781 153.249C153.708 152.493 152.881 151.438 152.404 150.215Z" fill="#191919"/>
<path d="M151.6 148.951C152.208 148.859 152.106 147.939 151.499 148.04C136.871 150.093 134.442 151.846 128.187 152.389C127.328 152.44 126.624 153.35 127.783 153.35C131.525 153.35 137.694 151.428 141.739 150.67C145.275 149.962 148.062 149.498 151.6 148.951Z" fill="#191919"/>
<path d="M128.992 136.814C126.765 137.259 127.323 137.977 128.132 137.775C133.897 136.562 141.684 136.814 147.449 137.775C148.006 137.876 148.258 137.017 147.702 136.916C141.987 135.955 134.701 135.675 128.992 136.814Z" fill="#191919"/>
<path d="M164.592 135.5C164.843 135.705 165.35 135.399 165.143 135.04C160.365 129.355 156.117 123.244 152.451 116.786C152.248 116.432 151.642 116.786 151.793 117.14C153.719 120.986 161.279 132.8 164.592 135.5Z" fill="#191919"/>
<path d="M170.862 146.22C171.064 145.715 170.402 145.31 170.154 145.761C168.637 148.44 166.816 151.12 163.884 152.435C160.9 153.8 157.613 153.396 155.439 150.817C150.736 145.255 147.298 127.557 146.033 119.516C145.932 119.01 145.224 119.213 145.325 119.718C146.387 127.404 149.83 145.508 154.832 151.424C158.663 155.989 166.748 154.86 170.862 146.22Z" fill="#191919"/>
<path d="M95.466 126.042C95.82 125.842 95.5671 125.436 95.1626 125.491C93.3423 125.845 92.1288 126.35 91.5717 128.172C91.0098 129.83 90.8707 131.603 91.1671 133.329C91.2683 133.789 91.9256 133.683 91.9762 133.228C92.0267 131.256 91.7233 130.852 92.3807 128.677C92.9369 126.65 93.8507 126.962 95.466 126.042Z" fill="#191919"/>
<path d="M96.1231 118.307C96.0677 119.404 96.1015 120.503 96.2243 121.594C96.2748 121.998 96.9827 121.948 97.0333 121.594C97.0562 120.496 97.0055 119.398 96.8816 118.307C96.8301 117.952 96.1314 117.952 96.1231 118.307Z" fill="#191919"/>
<path d="M99.9662 117.903C101.317 117.167 103.46 115.728 104.365 113.958C104.618 113.452 104.568 113.3 104.214 112.845C103.767 112.34 103.238 111.913 102.651 111.581C102.045 111.278 101.993 111.48 101.539 111.783C98.555 113.857 94.0006 113.452 90.8684 111.834C90.6156 111.682 89.9077 112.087 90.565 112.441C94.4594 114.414 98.6553 114.768 102.246 112.238C102.825 112.605 103.352 113.048 103.815 113.553C102.617 115.255 100.996 116.615 99.1113 117.498C98.4034 116.638 97.6955 115.829 96.9876 114.97C95.9202 113.785 95.4826 115.918 93.7505 117.65C91.998 116.784 90.3232 115.769 88.7447 114.616C89.2504 114.109 89.7054 113.605 90.2111 113.098C90.5145 112.845 90.1099 112.34 89.7514 112.546C89.2183 112.933 88.7269 113.373 88.285 113.861C88.1038 114.07 88.0127 114.342 88.0317 114.618C88.0507 114.893 88.1781 115.15 88.3862 115.332C89.1952 116.091 93.2909 118.72 93.9491 118.416C95.0615 117.865 95.6683 116.394 96.4268 115.484C97.1347 116.192 98.0954 117.607 98.6516 118.164C99.0055 118.56 99.6086 118.097 99.9662 117.903Z" fill="#191919"/>
<path d="M105.327 97.574C105.51 96.796 105.578 95.9953 105.528 95.1975C105.427 94.3379 104.619 94.2873 104.669 95.2481C104.77 96.5122 104.315 97.9785 104.467 98.2819C104.821 99.1424 106.085 97.7303 106.691 98.6368C107.551 100.053 105.68 102.732 104.517 102.025C104.214 101.822 103.965 101.974 103.758 102.631C103.449 103.517 103.042 104.365 102.545 105.16C99.8144 109.154 94.3029 110.165 91.269 106.722C90.1994 105.337 89.503 103.701 89.2465 101.969C89.2386 101.856 89.2011 101.746 89.1377 101.651C89.0744 101.556 88.9873 101.479 88.8852 101.428C88.7831 101.377 88.6694 101.353 88.5554 101.36C88.4415 101.366 88.3311 101.402 88.2352 101.464C87.1734 102.273 86.2126 101.059 86.1115 99.5423C85.9598 97.4683 87.2239 97.3166 88.1341 98.0245C88.1907 98.0704 88.2603 98.0974 88.3331 98.1016C88.4059 98.1058 88.4782 98.087 88.5397 98.0479C88.6012 98.0087 88.6488 97.9512 88.6759 97.8835C88.7029 97.8158 88.7079 97.7413 88.6903 97.6705C88.6397 97.2109 88.3869 94.6367 88.3869 94.0805C88.3363 93.5749 87.7296 93.7771 87.7296 94.2322C87.7801 95.1423 87.8307 96.1031 87.9318 96.9626C87.6529 96.8273 87.3452 96.7621 87.0354 96.7727C86.7256 96.7832 86.423 96.8692 86.154 97.0232C85.8849 97.1772 85.6575 97.3945 85.4915 97.6563C85.3255 97.9181 85.2259 98.2165 85.2014 98.5255C84.7969 101.257 86.7183 103.381 88.488 102.369C88.9937 104.594 89.8533 106.87 91.725 108.235C91.623 109.145 91.5734 110.055 91.4722 110.965C91.4217 111.774 91.9779 111.875 92.1801 111.471C92.3168 110.549 92.4012 109.621 92.4329 108.69C93.6723 109.336 95.0616 109.639 96.4572 109.567C97.8529 109.496 99.2042 109.054 100.371 108.285C100.422 109.195 100.371 110.156 100.473 111.066C100.474 111.124 100.487 111.181 100.511 111.233C100.535 111.285 100.57 111.331 100.614 111.369C100.657 111.407 100.708 111.435 100.763 111.452C100.818 111.468 100.876 111.473 100.933 111.466C100.991 111.459 101.046 111.44 101.095 111.41C101.144 111.38 101.186 111.341 101.219 111.293C101.252 111.246 101.275 111.192 101.285 111.136C101.296 111.079 101.295 111.021 101.282 110.965C101.13 109.448 101.231 108.488 101.181 107.729C102.712 106.515 103.826 104.854 104.367 102.976C104.673 103.049 104.992 103.05 105.299 102.98C105.606 102.91 105.893 102.77 106.137 102.572C108.512 100.963 108.309 96.6639 105.327 97.574Z" fill="#191919"/>
<path d="M92.7355 93.1243C92.224 93.1144 91.7161 93.213 91.2453 93.4134C90.7746 93.6138 90.3516 93.9117 90.0042 94.2873C89.7008 94.5907 89.903 95.248 90.5098 94.9446C91.1633 94.4756 91.9334 94.1956 92.7355 94.1356C93.6457 94.0345 93.4977 93.1786 92.7355 93.1243Z" fill="#191919"/>
<path d="M105.023 124.83C104.881 123.601 104.418 122.431 103.682 121.437C102.945 120.443 101.96 119.66 100.826 119.167C100.274 118.964 100.219 119.521 100.624 119.718C103.202 121.083 104.214 123.713 104.316 126.495C104.416 128.77 103.354 132.31 106.034 133.574C106.494 133.776 106.844 133.022 106.388 132.815C104.112 131.758 105.558 128.272 105.023 124.83Z" fill="#191919"/>
<path d="M93.392 120.026C93.6393 119.718 93.3414 119.318 92.9875 119.566C91.0228 121.248 89.5835 123.46 88.8412 125.938C88.4873 127.253 88.5884 128.618 88.285 129.882C87.9311 131.349 86.667 131.905 85.504 132.714C85.0995 132.967 85.4534 133.675 85.9085 133.473C87.0422 133.009 88.0109 132.217 88.6895 131.197C89.7514 129.377 88.6895 127.101 90.8638 123.308C91.6233 122.153 92.4684 121.055 93.392 120.026Z" fill="#191919"/>
<path d="M90.358 130.999C90.5317 129.437 90.4085 127.813 91.2681 126.397C91.6553 125.812 92.162 125.316 92.7548 124.942C93.3476 124.567 94.0131 124.322 94.7074 124.223C95.3142 124.122 95.259 123.515 94.7074 123.515C93.9057 123.542 93.1215 123.757 92.4186 124.143C91.7157 124.53 91.114 125.077 90.6623 125.74C89.7899 127.328 89.453 129.154 89.7016 130.949C89.7006 131.303 90.3129 131.404 90.358 130.999Z" fill="#191919"/>
<path d="M96.5314 130.547C96.3476 131.865 96.6326 151.431 96.6831 152.493C96.6831 153.049 97.5933 152.999 97.5933 152.442C97.5933 146.834 97.3404 136.716 97.2393 130.598C97.1851 130.292 96.5838 130.14 96.5314 130.547Z" fill="#191919"/>
<path d="M101.938 139.848C101.358 139.63 100.842 139.271 100.436 138.803C100.03 138.335 99.7466 137.773 99.6122 137.168C99.056 134.488 101.837 131.91 100.421 129.129C100.174 128.609 99.763 128.184 99.2518 127.918C98.7406 127.653 98.1567 127.561 97.5888 127.658C97.515 127.658 97.4443 127.687 97.3921 127.739C97.34 127.791 97.3107 127.862 97.3107 127.936C97.3107 128.01 97.34 128.08 97.3921 128.133C97.4443 128.185 97.515 128.214 97.5888 128.214C97.9168 128.226 98.239 128.305 98.5357 128.446C98.8324 128.586 99.0975 128.785 99.3151 129.031C99.5326 129.277 99.698 129.564 99.8012 129.876C99.9044 130.188 99.9433 130.517 99.9156 130.844C99.9156 132.311 99.1066 133.676 98.8032 135.092C98.4946 136.205 98.6142 137.393 99.1383 138.423C99.6624 139.452 100.553 140.248 101.635 140.654C102.191 140.91 102.493 140.058 101.938 139.848Z" fill="#191919"/>
<path d="M85.0992 133.932C85.0459 133.528 85.0992 132.163 84.3913 132.369C83.7709 132.484 83.1617 132.653 82.571 132.875C81.762 133.229 81.3575 134.139 82.4699 133.836C82.9755 133.684 83.5317 133.532 84.0328 133.376C84.2903 136.653 85.6032 139.758 87.7745 142.226C84.8122 144.756 81.61 146.992 78.2133 148.9C77.2526 149.456 77.5054 150.316 78.3144 149.861C81.9896 147.943 85.4052 145.564 88.4787 142.782C88.6304 142.63 88.8327 142.428 88.6304 142.125C86.8184 139.292 85.5322 137.222 85.0992 133.932Z" fill="#191919"/>
<path d="M128.132 145.209C127.572 139.9 123.784 129.533 121.66 124.931C118.423 118.004 113.316 115.475 106.136 113.907C106.042 113.887 105.944 113.905 105.863 113.957C105.782 114.009 105.725 114.091 105.705 114.185C105.685 114.279 105.703 114.377 105.755 114.458C105.807 114.539 105.889 114.596 105.983 114.616C112.204 116.79 116.805 117.599 120.194 124.021C122.621 128.623 127.98 142.731 127.222 148.142C126.615 152.338 124.39 152.136 121.458 152.338C116.198 152.692 107.198 145.664 103.455 142.226C105.983 140.455 107.602 136.41 108.057 133.578C112.083 134.683 115.969 136.244 119.641 138.23C120.148 138.483 120.552 137.826 120.046 137.573C117.708 136.261 115.274 135.129 112.764 134.185C112.546 132.978 112.024 131.847 111.247 130.898C110.843 130.544 110.641 130.999 110.792 131.252C111.286 132.053 111.661 132.922 111.905 133.831C110.707 133.372 109.472 133.017 108.214 132.769C107.253 132.618 107.253 132.769 107.101 133.578C105.432 141.619 101.639 141.416 102.701 142.58C106.444 146.776 115.444 153.097 121.311 153.198C126.817 153.347 128.735 150.924 128.132 145.209Z" fill="#191919"/>
<path d="M102.444 129.129C102.381 128.39 102.104 127.685 101.647 127.101C101.19 126.517 100.572 126.079 99.8696 125.841C99.0038 125.673 98.1216 125.606 97.2403 125.639C96.8348 125.639 96.8348 126.145 97.1897 126.247C98.6561 126.651 99.8696 126.094 100.931 127.612C102.094 129.23 101.437 130.797 101.639 131.758C101.667 131.834 101.716 131.9 101.78 131.948C101.845 131.996 101.922 132.025 102.002 132.03C102.082 132.036 102.163 132.018 102.233 131.978C102.303 131.939 102.36 131.88 102.398 131.809C102.568 130.925 102.584 130.018 102.444 129.129Z" fill="#191919"/>
<path d="M95.9208 127.359C95.3379 127.544 94.8015 127.852 94.3478 128.262C93.8941 128.672 93.5335 129.174 93.2906 129.736C91.1669 134.185 96.9827 137.472 88.5881 140.557C88.4851 140.588 88.398 140.657 88.3448 140.75C88.2916 140.844 88.2764 140.954 88.3025 141.058C88.3286 141.163 88.3938 141.253 88.4847 141.31C88.5756 141.367 88.6851 141.387 88.7904 141.366C90.1292 141.051 91.3758 140.427 92.431 139.545C97.1343 135.601 90.4084 131.809 96.1736 127.915C96.477 127.662 96.3262 127.263 95.9208 127.359Z" fill="#191919"/>
<path d="M91.5211 97.6245C92.172 98.189 92.9921 96.411 92.1288 95.9559C91.3694 95.5514 91.0615 97.2255 91.5211 97.6245Z" fill="#191919"/>
<path d="M101.736 125.538C103.039 126.766 102.949 128.572 103 130.241C103 130.646 103.607 130.595 103.708 130.241C103.961 128.421 103.758 126.246 102.343 124.88C100.826 123.465 98.4997 123.262 96.5783 123.566C96.5345 123.568 96.4916 123.579 96.4525 123.599C96.4134 123.618 96.3789 123.646 96.3513 123.68C96.3237 123.714 96.3037 123.754 96.2925 123.796C96.2813 123.839 96.2793 123.883 96.2865 123.926C96.2937 123.969 96.31 124.011 96.3343 124.047C96.3586 124.084 96.3904 124.115 96.4275 124.138C96.4647 124.161 96.5063 124.176 96.5497 124.182C96.5932 124.188 96.6374 124.185 96.6794 124.173C98.3986 124.173 100.357 124.238 101.736 125.538Z" fill="#191919"/>
<path d="M84.442 96.3604C84.8962 96.7658 85.4028 96.057 84.9982 95.6525C82.0655 92.7198 82.0655 88.2692 84.0881 84.8309C89.9029 74.8183 107.198 76.8418 110.788 87.1568C111.41 88.8059 111.475 90.6134 110.973 92.3028C110.471 93.9923 109.429 95.4708 108.007 96.5121C107.703 96.7649 107.956 97.3211 108.361 97.1189C112.406 95.0963 113.114 89.7871 111.445 85.9948C106.49 74.7181 87.2231 74.1113 82.5206 85.9948C81.1048 89.4837 81.5553 93.7862 84.442 96.3604Z" fill="#191919"/>
<path d="M86.0095 93.3266C89.0902 93.6705 92.8871 91.5063 94.404 88.877C94.4501 88.803 94.4665 88.7143 94.4498 88.6288C94.4332 88.5432 94.3847 88.4671 94.3142 88.4159C94.2437 88.3646 94.1564 88.3419 94.0699 88.3524C93.9833 88.3629 93.904 88.4058 93.8478 88.4725C91.5724 91.2535 89.4984 92.1637 86.0095 92.5682C85.9195 92.5829 85.8377 92.6291 85.7787 92.6986C85.7197 92.7681 85.6873 92.8562 85.6873 92.9474C85.6873 93.0385 85.7197 93.1267 85.7787 93.1962C85.8377 93.2657 85.9195 93.3119 86.0095 93.3266Z" fill="#191919"/>
<path d="M95.7185 101.114C96.0734 100.862 96.0725 100.508 95.7185 100.356C95.4657 100.255 94.1005 100.609 93.9994 100.356C93.7971 99.8502 94.5556 97.675 94.7073 96.6132C94.8084 95.8547 94.4544 95.8547 94.1005 96.4615C93.7465 97.0683 92.6295 100.154 93.1389 101.064C93.6454 101.822 95.2147 101.47 95.7185 101.114Z" fill="#191919"/>
<path d="M75.2385 122.302C78.3183 118 81.7116 116.234 86.768 114.666C87.2737 114.515 87.122 113.706 86.6163 113.857C80.8015 115.577 77.8173 117.195 74.2778 122.099C73.7722 122.706 74.7319 123.009 75.2385 122.302Z" fill="#191919"/>
<path d="M106.644 93.7816C106.718 93.7595 106.782 93.7128 106.825 93.6493C106.869 93.5858 106.889 93.5094 106.883 93.4326C106.878 93.3559 106.846 93.2834 106.793 93.2273C106.74 93.1713 106.67 93.1349 106.594 93.1243C103.458 93.0737 99.6654 92.6187 97.2888 90.3433C95.064 88.2196 93.9516 84.5275 93.7953 81.5442C93.7448 81.0386 92.9863 80.9926 93.0369 81.4937C93.0874 84.6286 94.5078 88.7252 96.7786 90.8995C99.0494 93.0737 103.551 94.256 106.644 93.7816Z" fill="#191919"/>
<path d="M94.3533 103.997C95.9925 104.867 98.0445 104.35 98.6007 102.783C98.7018 102.429 98.2973 102.126 98.0445 102.429C96.5736 104.148 95.3141 103.44 94.551 103.491C94.1511 103.44 94.0536 103.837 94.3533 103.997Z" fill="#191919"/>
<path d="M100.876 95.4503C100.494 94.3471 98.3482 93.1244 97.3369 93.4783C96.9324 93.63 96.7807 94.439 97.3369 94.5402C98.4606 94.6864 99.5161 95.1614 100.371 95.9054C100.624 96.1076 101.018 95.8585 100.876 95.4503Z" fill="#191919"/>
<path d="M97.6402 97.9785C98.6028 97.7872 98.5504 96.0065 97.7919 96.2087C97.0831 96.3604 96.8321 98.1394 97.6402 97.9785Z" fill="#191919"/>
<path d="M125.554 66.0202C126.06 65.8713 126.565 65.7168 127.07 65.5606C126.767 66.8247 126.413 68.0888 126.11 69.3529C125.604 71.1732 126.312 71.3249 126.716 70.6675C127.981 68.6955 129.295 66.673 130.66 64.7515C132.532 62.0716 132.986 62.3245 129.548 62.4256C130.155 61.2617 130.762 60.0987 131.318 58.9321C131.874 57.7654 128.132 59.0838 127.778 59.3872C127.707 59.4325 127.656 59.5026 127.633 59.5838C127.611 59.665 127.619 59.7517 127.657 59.8271C127.695 59.9024 127.759 59.9612 127.837 59.992C127.916 60.0228 128.003 60.0235 128.082 59.9939C128.486 59.8928 129.346 59.4883 130.307 59.286L128.638 62.6242C128.537 62.877 128.638 63.1804 128.941 63.1804C129.599 63.1804 130.307 63.1298 130.964 63.1298C129.7 64.9501 128.436 66.821 127.172 68.6413L128.233 65.0007C128.26 64.9279 128.266 64.8493 128.252 64.7732C128.237 64.6971 128.201 64.6266 128.149 64.5692C128.097 64.5119 128.03 64.4699 127.956 64.4479C127.882 64.4259 127.803 64.4247 127.728 64.4445C127.222 64.5962 126.666 64.7984 126.165 64.9501C126.468 63.4838 126.873 62.0174 127.227 60.4996C127.328 60.0951 126.721 59.9939 126.569 60.3479C125.981 61.9985 125.508 63.6881 125.154 65.4043C124.997 65.7168 125.2 66.1232 125.554 66.0202Z" fill="#191919"/>
<path d="M64.4674 104.254C64.7211 104.456 65.1256 104.254 64.9739 103.95C64.6191 102.939 64.3157 101.928 65.075 100.866C65.3858 100.45 65.8043 100.126 66.2855 99.9297C66.7666 99.7335 67.2922 99.6723 67.8055 99.7527C67.8885 99.7524 67.9691 99.725 68.0353 99.6749C68.1014 99.6248 68.1495 99.5545 68.1723 99.4747C68.1951 99.3949 68.1914 99.3099 68.1617 99.2323C68.1321 99.1548 68.078 99.089 68.0078 99.0449C66.592 98.3875 63.81 99.6011 63.81 102.282C63.7705 102.639 63.8089 103 63.9223 103.34C64.0358 103.68 64.2218 103.992 64.4674 104.254Z" fill="#191919"/>
<path d="M62.5459 110.216C62.551 110.327 62.5985 110.431 62.6786 110.507C62.7586 110.584 62.865 110.626 62.9757 110.626C63.0863 110.626 63.1928 110.584 63.2728 110.507C63.3528 110.431 63.4004 110.327 63.4055 110.216C63.5147 109.285 63.4461 108.341 63.2032 107.435C62.6976 105.665 61.029 105.008 61.0795 103.238C61.1301 102.176 61.3323 101.114 61.3829 100.103C61.3818 100.021 61.3499 99.9412 61.2934 99.881C61.2368 99.8207 61.1598 99.7837 61.0774 99.7774C60.9949 99.7711 60.9132 99.7958 60.8481 99.8467C60.783 99.8976 60.7393 99.9711 60.7256 100.053C60.5233 101.064 60.3211 102.075 60.2199 103.086C60.0177 105.311 61.5346 105.918 62.1414 107.334C62.5496 108.236 62.6901 109.236 62.5459 110.216Z" fill="#191919"/>
<path d="M63.1022 91.3546L63.8606 98.7876C63.9112 99.0909 64.4674 99.0909 64.518 98.737C64.7708 96.8661 64.1134 93.1749 63.7089 91.1983C63.6584 90.8996 63.0516 91.0007 63.1022 91.3546Z" fill="#191919"/>
<path d="M68.2098 105.008C68.4066 105.415 68.9177 105.109 68.8166 104.755C68.6649 103.895 68.311 102.884 69.9796 102.884C71.3448 102.884 71.5425 104.098 71.4965 105.21C71.3954 107.283 69.6256 109.053 69.6256 110.924C69.6274 111.03 69.6675 111.131 69.7384 111.209C69.8093 111.288 69.9063 111.338 70.0112 111.35C70.1162 111.362 70.2221 111.336 70.3092 111.276C70.3964 111.217 70.4589 111.127 70.4852 111.025C70.9908 108.952 71.1931 109.154 71.901 107.435C72.5126 106.154 72.6032 104.686 72.1538 103.339C71.1425 101.064 66.601 101.69 68.2098 105.008Z" fill="#191919"/>
<path d="M65.9348 102.378C65.8372 103.128 65.9788 103.889 66.3393 104.553C66.3804 104.612 66.4413 104.656 66.5112 104.675C66.5811 104.694 66.6555 104.688 66.7214 104.658C66.7873 104.628 66.8404 104.575 66.8715 104.51C66.9025 104.444 66.9094 104.37 66.891 104.3C66.6887 103.238 66.4864 101.974 67.4977 101.418C67.9428 101.145 68.449 100.989 68.9701 100.962C69.4912 100.936 70.0106 101.04 70.481 101.266C70.835 101.468 71.1383 100.912 70.8855 100.659C70.0305 99.5974 66.2382 100.002 65.9348 102.378Z" fill="#191919"/>
<path d="M43.0778 93.8829C42.7744 93.9334 42.4711 93.984 42.2182 94.0345C41.7632 92.6188 40.3979 91.1524 38.7293 91.7592C36.9596 92.4165 36.9081 94.3379 37.0101 95.1975C35.5392 95.3492 34.0259 95.5515 32.5596 95.7032C32.4765 95.7228 32.4031 95.7713 32.3525 95.8401C32.3019 95.9089 32.2775 95.9935 32.2836 96.0786C32.2897 96.1638 32.3259 96.244 32.3857 96.3049C32.4455 96.3658 32.5251 96.4035 32.6102 96.4111C34.1271 96.3099 35.644 96.2088 37.1618 96.1582C38.0518 100.708 43.1918 99.4734 42.471 94.9447C42.7239 94.8941 42.9767 94.8941 43.1789 94.8436C43.7407 98.7784 48.3153 98.8997 47.8814 94.2368C48.2859 94.2368 49.1455 94.0345 48.741 93.4278C48.5387 93.1244 48.0837 93.3267 47.7803 93.3772C46.9712 90.04 43.2295 90.4445 43.0778 93.8829ZM37.8192 95.602C37.6675 94.4391 37.9203 93.2255 38.6787 92.7704C39.9428 91.9614 41.207 93.2255 41.6115 94.8436C42.4481 98.7149 38.3101 99.535 37.8192 95.602ZM46.0611 96.9167C44.204 97.5602 42.9565 93.3414 44.5947 92.1131C46.7708 90.4096 48.1958 96.1729 46.0593 96.9167H46.0611Z" fill="#191919"/>
<path d="M43.179 99.5974C42.0161 99.6986 42.1172 100.204 42.8756 100.305C43.3813 100.356 44.1903 100.255 44.4385 99.7997C44.843 99.0918 44.2868 97.9279 43.5789 97.2706C43.0733 96.7649 42.8205 97.22 43.0273 97.4728C43.4852 98.1807 44.5948 99.3446 43.179 99.5974Z" fill="#191919"/>
<path d="M46.8702 98.2313C46.8224 97.7256 46.3186 97.7256 46.3186 98.2313C46.4198 101.671 46.0658 107.182 41.1611 107.587C39.2387 107.738 37.1656 106.828 35.497 105.867C35.1936 105.665 34.7891 106.171 35.1431 106.424C36.8138 107.626 38.8008 108.312 40.8577 108.396C40.9588 109.205 41.1611 110.064 41.2622 110.873C41.515 112.441 42.1218 111.682 42.0207 111.177C41.9142 110.229 41.7793 109.285 41.6162 108.345C46.3646 107.587 47.2444 102.174 46.8702 98.2313Z" fill="#191919"/>
<path d="M39.9429 104.148C40.2228 104.282 40.5276 104.355 40.8377 104.363C41.1477 104.371 41.4559 104.313 41.7422 104.194C42.0284 104.074 42.2863 103.896 42.4991 103.671C42.7118 103.445 42.8746 103.177 42.9767 102.884C43.3307 102.126 43.1284 101.974 42.4711 101.974C41.8318 102.022 41.19 101.924 40.5942 101.687C39.9984 101.451 39.4641 101.082 39.0318 100.609C38.1989 99.9137 37.9948 103.406 39.9429 104.148ZM42.37 102.732C41.5609 104.295 39.133 103.541 39.0833 101.721C40.0424 102.401 41.1944 102.756 42.37 102.732Z" fill="#191919"/>
<path d="M39.7914 95.4503C39.6857 95.7528 39.841 96.5627 40.3476 96.4616C40.7521 96.411 40.7521 95.8548 40.6004 95.5009C40.3982 94.9952 39.9854 94.8913 39.7914 95.4503Z" fill="#191919"/>
<path d="M45.4036 94.5402C45.2951 94.8923 45.4542 95.8043 45.9552 95.602C46.2081 95.5009 46.3092 95.2481 46.2586 94.793C46.1621 94.2331 45.593 93.9297 45.4036 94.5402Z" fill="#191919"/>
<path d="M36.6046 92.467C37.3709 91.5845 38.4311 91.0096 39.5888 90.849C39.7089 90.8246 39.8162 90.7579 39.8913 90.6612C39.9664 90.5644 40.0043 90.4439 39.9982 90.3216C39.9921 90.1993 39.9423 90.0832 39.8579 89.9944C39.7735 89.9056 39.6601 89.85 39.5383 89.8377C38.9532 89.8427 38.3758 89.9714 37.8441 90.2154C37.3123 90.4594 36.8382 90.8132 36.4529 91.2535C35.3405 92.467 36.293 92.8127 36.6046 92.467Z" fill="#191919"/>
<path d="M23.1538 91.8097C23.0708 93.3789 23.4356 94.9394 24.2057 96.3091C24.9758 97.6789 26.1194 98.8015 27.5032 99.546C27.756 101.012 28.7167 102.732 30.537 102.732C31.0808 105.435 31.4356 108.172 31.5989 110.924C31.5954 110.972 31.6019 111.021 31.6181 111.067C31.6343 111.113 31.6598 111.155 31.693 111.191C31.7262 111.227 31.7664 111.255 31.8111 111.275C31.8558 111.294 31.9041 111.304 31.9528 111.304C32.0016 111.304 32.0498 111.294 32.0945 111.275C32.1392 111.255 32.1794 111.227 32.2126 111.191C32.2458 111.155 32.2713 111.113 32.2875 111.067C32.3037 111.021 32.3103 110.972 32.3068 110.924C32.2545 108.291 31.9668 105.668 31.4472 103.086C31.3461 102.631 31.3461 101.72 30.8404 101.771C29.8291 101.872 28.8179 101.012 28.5145 99.3943C28.1605 97.6751 29.1212 96.2593 30.4865 96.9121C30.6887 97.0132 30.8404 96.8615 30.9415 96.7604C32.9135 94.839 35.3912 91.2995 35.3912 87.4051C38.0205 88.569 44.3419 89.0241 47.2241 88.0625C47.0218 84.2196 43.3306 78.3036 35.1384 79.1126C25.9863 80.0274 23.2439 87.0052 23.1538 91.8097Z" fill="#191919"/>
<path d="M44.1903 90.2422C44.8331 90.0463 45.5196 90.0463 46.1623 90.2422C46.668 90.3938 46.6174 89.8882 46.2129 89.5343C45.8661 89.351 45.4863 89.2387 45.0956 89.204C44.7049 89.1692 44.3112 89.2128 43.9375 89.332C43.1791 89.686 43.4392 90.563 44.1903 90.2422Z" fill="#191919"/>
<path d="M24.8729 83.314C25.4434 82.0586 26.4497 81.0526 27.7054 80.4824C26.6435 72.5935 15.6196 71.6834 12.2273 79.5235C8.83487 87.3637 15.6665 91.1073 17.0823 93.9858C18.4475 96.8679 19.2566 101.318 18.3464 103.087C17.4363 104.806 18.5487 104.908 19.8128 102.536C20.8241 100.614 22.6444 94.9971 21.178 90.3488C19.6142 85.5388 23.5076 82.9601 24.8729 83.314Z" fill="#191919"/>
<path d="M77.0081 123.515C70.5865 123.418 59.9671 123.161 54.1523 123.667C49.6006 124.071 48.4882 125.487 47.4263 129.432C45.9094 135.196 43.4824 144.855 42.6733 150.366C36.5631 150.276 30.4523 150.512 24.3673 151.074C22.0919 151.378 21.9402 153.046 22.6481 153.754C23.0021 154.108 23.4572 153.603 23.1997 153.249C23.1497 153.159 23.1178 153.06 23.1059 152.958C23.094 152.857 23.1025 152.753 23.1306 152.655C23.1588 152.556 23.2063 152.464 23.2702 152.383C23.3341 152.303 23.4133 152.236 23.5031 152.187C24.7672 151.327 40.09 151.175 42.2642 151.175C43.0732 151.175 43.3261 151.074 43.5283 150.215C45.0452 143.085 47.0218 134.893 48.8375 128.168C49.3891 125.993 51.0624 124.83 53.7432 124.628C60.5187 124.071 70.0763 124.375 77.2563 124.476C79.7855 124.526 81.3015 125.538 81.1001 128.37C80.8473 132.162 77.5092 143.793 76.2956 148.091C75.911 149.777 75.3164 151.408 74.5259 152.945C74.2225 153.451 74.981 154.008 75.2844 153.497C76.1928 151.597 76.9207 149.617 77.4586 147.581C79.0767 141.918 81.353 133.725 82.0609 128.72C82.3734 125.285 80.4474 123.568 77.0081 123.515Z" fill="#191919"/>
<path d="M63.2031 135.652C62.998 135.953 63.3547 136.41 63.7087 136.157C64.0641 135.868 64.5062 135.705 64.9645 135.696C65.4229 135.687 65.8711 135.831 66.2378 136.107C66.8952 136.713 67.0468 137.977 65.8333 140.152C64.3155 142.934 62.2423 143.338 61.3285 142.226C60.2161 140.861 61.2779 138.079 62.3398 136.966C62.5926 136.663 62.1375 136.208 61.8801 136.461C59.6553 138.483 59.2508 141.467 60.5149 142.833C62.5374 145.057 65.4711 143.237 66.5826 140.861C67.2399 139.444 68.2512 137.522 67.341 136.056C67.1529 135.687 66.8749 135.371 66.5327 135.138C66.1905 134.905 65.795 134.761 65.3828 134.721C64.9706 134.681 64.5548 134.745 64.1739 134.907C63.7929 135.07 63.4591 135.326 63.2031 135.652Z" fill="#191919"/>
<path d="M69.2717 73.5045C70.4402 72.7544 68.9177 70.7732 67.7088 71.9867C66.6929 72.9483 68.3156 74.1177 69.2717 73.5045Z" fill="#191919"/>
<path d="M56.9333 74.3633C58.2517 74.8588 59.2593 73.4026 58.4502 72.6441C57.3378 71.5822 55.421 73.7951 56.9333 74.3633Z" fill="#191919"/>
<path d="M62.5461 74.0608C64.3167 74.6124 64.9731 72.3416 63.254 71.9371C62.1415 71.6843 61.0806 73.6029 62.5461 74.0608Z" fill="#191919"/>
<path d="M129.699 83.0612C129.452 82.5528 128.841 82.7072 128.89 83.1623C129.094 84.7252 132.228 84.9826 133.139 83.2634C134.756 80.1284 129.645 79.2183 128.992 81.2409C128.74 81.9993 129.396 81.9487 129.751 81.3925C130.205 80.6341 133.188 80.9329 132.38 82.7578C132.026 83.6679 130.114 83.9162 129.699 83.0612Z" fill="black"/>
<path d="M121.053 72.4933C121.003 75.2743 123.935 76.2856 126.16 76.7407C134.302 78.4093 137.993 74.0608 136.982 71.026C136.976 70.9852 136.962 70.946 136.94 70.9111C136.918 70.8762 136.889 70.8464 136.855 70.8236C136.821 70.8009 136.782 70.7858 136.741 70.7793C136.7 70.7728 136.659 70.7751 136.619 70.786C136.579 70.797 136.542 70.8163 136.511 70.8426C136.479 70.869 136.453 70.9019 136.436 70.939C136.418 70.9761 136.408 71.0166 136.407 71.0577C136.406 71.0989 136.414 71.1398 136.43 71.1777C136.733 74.8698 132.435 76.2341 129.451 76.2856C127.125 76.3362 120.704 75.1226 122.069 71.5822C122.322 70.9755 121.867 70.6215 121.517 70.9755C119.444 73.1506 116.308 72.5439 114.791 69.9136C113.173 67.082 114.033 63.0875 117.572 63.5426C117.68 63.5487 117.786 63.5153 117.87 63.4485C117.955 63.3817 118.012 63.2862 118.031 63.1802C118.049 63.0742 118.028 62.965 117.972 62.8733C117.915 62.7817 117.827 62.7139 117.724 62.683C114.741 61.4694 114.231 56.8166 117.825 54.6424C121.265 52.5693 124.147 53.7322 126.473 56.4627C126.877 56.9683 127.383 56.8672 127.433 55.8559C127.686 53.2266 131.023 51.7097 133.401 52.3164C134.032 52.5209 134.615 52.8488 135.118 53.2812C135.62 53.7135 136.032 54.2415 136.329 54.8345C136.625 55.4275 136.801 56.0736 136.845 56.7351C136.889 57.3966 136.801 58.0603 136.586 58.6875C136.435 59.1472 136.89 59.2952 137.244 59.1941C140.379 58.3841 143.716 61.8234 144.019 64.8067C144.525 69.6608 140.176 69.8125 137.547 69.2563C137.041 69.1552 137.143 69.716 137.547 69.8631C141.339 71.1272 145.283 69.3574 144.828 64.8067C144.525 61.4694 141.036 57.8279 137.497 58.3841C137.743 57.2782 137.669 56.1251 137.284 55.0595C136.899 53.994 136.219 53.0601 135.322 52.367C132.085 49.9905 127.282 52.0636 126.624 55.3503C125.602 54.0811 124.167 53.2096 122.57 52.8864C120.972 52.5632 119.312 52.8087 117.876 53.5805C114.438 55.3503 112.819 59.9525 116.056 62.5818C113.679 63.138 112.617 65.5146 112.921 67.9416C113.67 72.2911 118.069 74.5664 121.053 72.4933Z" fill="black"/>
<path d="M175.871 155.07C132.667 154.626 61.397 153.783 7.07925 156.233C6.7253 156.233 6.77586 157.345 7.12981 157.345C59.3606 156.024 107.102 155.009 175.922 156.536C176.374 156.536 176.323 155.074 175.871 155.07Z" fill="black"/>
<path d="M58.7031 122.457C61.2313 122.457 66.1875 122.457 69.5753 122.406C70.3159 118.953 70.8379 115.457 71.1382 111.939C68.4583 112.293 63.4009 112.04 61.1761 111.18C60.6522 114.999 59.8252 118.77 58.7031 122.457Z" fill="black"/>
<path d="M21.2368 153.347C21.0926 152.723 21.164 152.068 21.4394 151.49C21.7149 150.911 22.1782 150.443 22.7538 150.161C24.119 149.504 38.1271 149.403 41.4165 149.251C41.5682 148.442 42.0232 146.268 42.6806 143.436C34.403 141.775 25.9902 140.878 17.5484 140.757C16.79 140.757 17.0934 140.048 17.5484 140.048C18.762 139.997 19.9755 139.997 21.189 139.997C22.1242 136.299 23.5173 132.732 25.3362 129.379C25.5385 129.025 25.9935 129.227 25.8418 129.581C24.2751 132.947 23.0222 136.451 22.0992 140.048C29.0938 140.315 36.0584 141.11 42.9334 142.425C44.0458 137.621 45.5627 131.452 46.9785 127.306C48.1921 123.614 50.1135 122.703 52.6932 122.552C54.3776 122.479 56.064 122.462 57.7496 122.501C57.9518 121.894 58.1541 121.288 58.3563 120.529C55.8787 116.484 50.5686 112.893 43.3379 112.337C40.8603 115.27 33.9321 114.967 30.1398 111.376C27.915 111.629 20.5786 113.247 16.1832 118.203C10.0135 125.282 1.61984 141.515 5.66496 150.06C7.68017 154.413 18.9569 153.603 21.2368 153.347Z" fill="black"/>
<path d="M90.9142 34.9215C91.0696 33.6574 90.2063 27.2349 89.549 26.6281C89.5103 26.5875 89.4622 26.5572 89.4089 26.5399C89.3556 26.5225 89.2988 26.5187 89.2436 26.5287C89.1885 26.5387 89.1367 26.5623 89.0929 26.5973C89.0491 26.6323 89.0147 26.6776 88.9928 26.7292C88.7905 27.1843 90.0041 34.1116 90.1558 34.9215C90.1753 35.0075 90.2235 35.0843 90.2924 35.1393C90.3613 35.1943 90.4468 35.2243 90.535 35.2243C90.6232 35.2243 90.7087 35.1943 90.7776 35.1393C90.8465 35.0843 90.8947 35.0075 90.9142 34.9215Z" fill="black"/>
<path d="M98.0447 60.71C98.0821 60.6336 98.0991 60.5489 98.094 60.464C98.0888 60.3792 98.0618 60.2971 98.0155 60.2258C97.9692 60.1544 97.9052 60.0964 97.8298 60.0572C97.7543 60.018 97.67 59.999 97.585 60.0021C96.7254 60.0021 95.5625 61.6716 91.3142 61.0639C90.8545 61.0134 90.5557 61.6716 91.0108 61.8739C93.6962 62.8833 97.6347 61.6698 98.0447 60.71Z" fill="black"/>
<path d="M103.202 51.8109C105.025 52.8696 106.937 53.7663 108.917 54.4908C109.004 54.5043 109.093 54.4897 109.171 54.4493C109.249 54.4089 109.313 54.3447 109.352 54.266C109.391 54.1872 109.405 54.098 109.39 54.0112C109.376 53.9244 109.334 53.8444 109.271 53.7829C107.455 52.7239 105.541 51.8433 103.556 51.1536C103.469 51.1066 103.367 51.0962 103.272 51.1247C103.177 51.1531 103.097 51.2181 103.05 51.3053C103.004 51.3924 102.993 51.4947 103.022 51.5895C103.05 51.6843 103.115 51.764 103.202 51.8109Z" fill="black"/>
<path d="M93.5446 62.9863C93.4409 62.9642 93.3327 62.9817 93.2412 63.0352C93.1497 63.0887 93.0814 63.1745 93.0498 63.2757C93.0182 63.3769 93.0255 63.4862 93.0702 63.5823C93.115 63.6784 93.194 63.7544 93.2918 63.7953C94.5559 64.5032 96.7853 63.6942 95.9211 62.9357C95.5203 62.5818 94.908 63.251 93.5446 62.9863Z" fill="black"/>
<path d="M102.09 39.9273C102.845 39.6147 106.894 34.8709 107.552 33.9608C107.804 33.6068 107.248 33.2529 106.945 33.5057C105.27 35.1218 103.683 36.8266 102.191 38.6127C101.23 39.6745 101.734 40.0744 102.09 39.9273Z" fill="black"/>
<path d="M89.3465 55.9064C89.3874 55.9968 89.4588 56.07 89.5481 56.1132C89.6375 56.1564 89.7391 56.1669 89.8354 56.1428C89.9317 56.1187 90.0165 56.0616 90.075 55.9815C90.1335 55.9013 90.162 55.8032 90.1555 55.7042C89.8016 53.4793 87.779 52.2106 86.662 50.3949C84.3361 46.6017 87.4205 42.2532 91.3645 41.2419C94.6015 40.3823 98.2421 41.5453 99.1017 45.4387C99.8602 48.7769 98.3432 51.204 97.2814 54.2378C97.0791 54.8951 97.7411 55.0974 98.0399 54.4906C99.4051 51.9165 100.72 48.8275 100.315 45.8938C99.6073 41.1914 95.6633 39.1182 91.2634 40.1801C87.4205 41.1408 84.1338 44.478 84.7912 48.6758C85.352 52.1141 88.3656 53.0638 89.3465 55.9064Z" fill="black"/>
<path d="M90.4639 59.7493C91.6274 60.1631 92.8701 60.3053 94.0971 60.1651C95.324 60.0249 96.5026 59.6059 97.5428 58.9403C97.9979 58.5863 97.7956 57.8279 97.1383 58.0807C94.4584 59.0414 93.3966 59.2942 90.7663 58.9403C90.3076 58.8897 90.0042 59.5517 90.4639 59.7493Z" fill="black"/>
<path d="M76.553 56.0582C76.2009 56.5178 76.553 57.12 77.5643 56.4121C78.969 55.5379 80.3047 54.5574 81.5598 53.4794C81.627 53.4207 81.6705 53.3395 81.6823 53.251C81.6941 53.1625 81.6733 53.0728 81.6237 52.9985C81.5742 52.9243 81.4994 52.8705 81.4132 52.8474C81.327 52.8242 81.2353 52.8332 81.1553 52.8726C79.5302 53.7966 77.9901 54.8626 76.553 56.0582Z" fill="black"/>
<path d="M80.3509 42.5566C80.4344 42.5784 80.5229 42.5701 80.6009 42.5332C80.6789 42.4964 80.7415 42.4332 80.7777 42.3549C80.8138 42.2765 80.8213 42.188 80.7987 42.1047C80.7762 42.0214 80.7251 41.9487 80.6543 41.8993C78.6318 40.5878 76.5194 39.4204 74.3329 38.4057C74.242 38.3773 74.1439 38.3821 74.0563 38.4193C73.9686 38.4565 73.8971 38.5238 73.8545 38.609C73.8119 38.6942 73.801 38.7917 73.8238 38.8842C73.8466 38.9767 73.9016 39.058 73.9789 39.1136C76.0189 40.4105 78.1482 41.5611 80.3509 42.5566Z" fill="black"/>
<path d="M90.4637 57.827C92.1425 58.3538 96.3806 57.5236 97.2908 56.8157C97.8976 56.3101 97.3414 55.6022 96.5829 55.9056C94.6957 56.6221 92.6829 56.9489 90.666 56.8663C89.7512 56.8157 89.6041 57.5604 90.4637 57.827Z" fill="black"/>
<path d="M94.5555 54.8951C94.4907 52.2304 94.7282 49.5669 95.2634 46.9557C95.2761 46.8714 95.2565 46.7855 95.2086 46.7151C95.1607 46.6446 95.088 46.5948 95.005 46.5757C94.9219 46.5565 94.8348 46.5694 94.7608 46.6117C94.6869 46.654 94.6316 46.7227 94.6061 46.804C93.9409 49.4458 93.7019 52.177 93.8982 54.8942C93.8958 54.9388 93.9025 54.9835 93.9179 55.0254C93.9333 55.0674 93.957 55.1058 93.9877 55.1382C94.0184 55.1707 94.0554 55.1966 94.0965 55.2143C94.1375 55.232 94.1817 55.2411 94.2264 55.2412C94.2711 55.2412 94.3153 55.2322 94.3564 55.2146C94.3975 55.197 94.4345 55.1713 94.4653 55.1389C94.4961 55.1065 94.52 55.0682 94.5355 55.0263C94.551 54.9844 94.5578 54.9398 94.5555 54.8951Z" fill="black"/>
<path d="M93.342 46.5015C92.0054 46.8584 90.6288 47.0437 89.2454 47.0531C89.1691 47.0537 89.0943 47.0748 89.0289 47.1141C88.9635 47.1535 88.9099 47.2098 88.8738 47.277C88.8376 47.3442 88.8201 47.4199 88.8232 47.4961C88.8263 47.5724 88.8499 47.6464 88.8915 47.7104C89.9281 50.0539 90.8398 52.4506 91.6228 54.8905C91.7745 55.3502 92.2296 55.2445 92.1285 54.7894C91.6559 52.4023 90.909 50.0778 89.9027 47.8621C91.1608 47.8027 92.404 47.5644 93.5948 47.1542C93.6718 47.1143 93.7313 47.0473 93.7619 46.9662C93.7925 46.885 93.7921 46.7955 93.7608 46.7146C93.7295 46.6338 93.6694 46.5673 93.5922 46.528C93.5149 46.4887 93.4258 46.4792 93.342 46.5015Z" fill="black"/>
<path d="M56.6807 81.7466C56.8056 84.1655 56.4249 86.5838 55.563 88.8474C54.7011 91.1109 53.3769 93.17 51.6748 94.8932C50.7141 95.8539 51.5231 96.0562 52.4838 95.7022C57.0346 93.9325 61.1257 88.7244 62.2933 84.0716C62.4955 83.2626 61.7876 83.3131 61.6865 83.8188C61.0658 86.1062 59.9828 88.2422 58.5043 90.0948C57.0259 91.9473 55.1834 93.4772 53.0906 94.5898C56.1861 91.1061 57.8021 86.5531 57.5954 81.8974C57.5448 81.1389 57.4437 81.0883 56.5336 80.9366C48.7458 79.7231 45.8636 68.5475 58.1516 64.0473C69.1249 60.0519 77.57 67.4857 75.6477 74.9701C74.2319 80.5827 68.2653 81.4423 63.3597 81.4423C62.7024 81.4423 62.7529 82.2513 63.4103 82.2513C68.4667 82.3524 74.2319 81.6445 76.1028 76.5881C80.1479 65.8171 68.8215 59.948 59.264 62.6315C43.7859 67.0821 47.6793 81.3926 56.6807 81.7466Z" fill="black"/>
</svg>
