<svg width="283" height="158" viewBox="0 0 283 158" fill="none" xmlns="http://www.w3.org/2000/svg">
<g clip-path="url(#clip0_208_679)">
<path d="M113.779 70.3307H283L272.795 128.021H107.229" fill="#785ABE"/>
<path d="M95.6527 61.5385H260.761L255.278 93.0471H87.5801" fill="#97CC64"/>
<path d="M34.2701 49.3189C37.3164 46.579 37.621 41.8603 34.8794 38.816L25.8928 28.6175C23.1512 25.5732 18.4294 25.2688 15.3831 28.0087C12.3369 30.7485 12.0322 35.4672 14.7739 38.5116L23.7604 48.5578C26.5021 51.7543 31.2238 52.0588 34.2701 49.3189Z" fill="#605FB7"/>
<path d="M73.1979 7.76072L54.6602 9.03909L56.5685 36.6759L75.1062 35.3975L73.1979 7.76072Z" fill="#605FB7"/>
<path d="M78.594 11.2645L49.6543 13.2433C47.3695 13.3955 45.5418 11.7212 45.3895 9.43792L45.2371 6.24139C45.0848 3.95815 46.7603 2.13156 49.045 1.97935L67.932 0.609405L77.8324 0.00054165C80.1171 -0.151674 81.9449 1.5227 82.0972 3.80594L82.2495 7.00247C82.5542 9.13349 80.8787 11.1123 78.594 11.2645Z" fill="#605FB7"/>
<path d="M98.6991 44.9043C95.1958 42.6211 94.2819 37.9024 96.719 34.5536L104.182 23.4419C106.467 19.9409 111.189 19.0276 114.54 21.4631C118.043 23.7463 118.957 28.465 116.52 31.8138L109.056 42.9255C106.772 46.2743 102.202 47.1875 98.6991 44.9043Z" fill="#6F6FC9"/>
<path d="M138.285 97.2316C143.088 59.2001 116.131 24.4788 78.0746 19.6794C40.0185 14.8799 5.27474 41.8198 0.472173 79.8513C-4.33039 117.883 22.6269 152.604 60.683 157.403C98.7391 162.203 133.483 135.263 138.285 97.2316Z" fill="#605FB7"/>
<path d="M95.1964 24.2029L55.4424 156.478C61.535 157.696 67.7798 158.153 74.177 157.696C112.408 155.108 141.195 121.925 138.606 83.7192C136.778 56.4726 119.11 33.7924 95.1964 24.2029Z" fill="#6F6FC9"/>
<path d="M79.7931 150.429C113.976 144.721 137.057 112.401 131.345 78.2401C125.634 44.0793 93.2926 21.0136 59.1096 26.7215C24.9266 32.4294 1.84599 64.7494 7.5576 98.9103C13.2692 133.071 45.6102 156.137 79.7931 150.429Z" fill="#97CC64"/>
<path d="M93.368 30.5961L57.2695 150.238C62.6005 151.303 68.0839 151.608 73.7195 151.303C108.295 148.868 134.493 118.881 132.056 84.3282C130.38 59.6693 114.692 39.4246 93.368 30.5961Z" fill="#FFCD50"/>
<path d="M98.7445 135.6C124.741 119.428 132.696 85.2574 116.514 59.2778C100.331 33.2982 66.1382 25.3478 40.1419 41.52C14.1455 57.6922 6.18993 91.863 22.3726 117.843C38.5553 143.822 72.7481 151.773 98.7445 135.6Z" fill="#F2F2F2"/>
<path d="M91.236 37.5976L59.4023 143.083C63.8195 143.844 68.5412 144.149 73.1106 143.844C103.726 141.713 126.725 115.228 124.593 84.7845C123.222 63.3221 109.666 45.5128 91.236 37.5976Z" fill="white"/>
<path d="M69.1499 38.8159C69.3023 40.6425 67.9314 42.1647 66.1037 42.3169C64.2759 42.4691 62.7527 41.0992 62.6004 39.2726C62.4481 37.446 63.8189 35.9238 65.6467 35.7716C67.4745 35.6194 68.9976 36.9894 69.1499 38.8159Z" fill="#97CC64"/>
<path d="M102.05 54.3411C103.817 54.3411 105.249 52.91 105.249 51.1446C105.249 49.3792 103.817 47.9481 102.05 47.9481C100.284 47.9481 98.8516 49.3792 98.8516 51.1446C98.8516 52.91 100.284 54.3411 102.05 54.3411Z" fill="#FFCD50"/>
<path d="M119.262 88.438C117.434 88.5902 115.911 87.2203 115.759 85.3937C115.606 83.5671 116.977 82.045 118.805 81.8927C120.633 81.7405 122.156 83.1105 122.308 84.9371C122.308 86.7637 120.937 88.2858 119.262 88.438Z" fill="#FFCD50"/>
<path d="M104.792 123.752C103.421 122.534 103.269 120.555 104.487 119.185C105.706 117.815 107.686 117.663 109.057 118.881C110.428 120.098 110.58 122.077 109.361 123.447C108.143 124.665 106.163 124.817 104.792 123.752Z" fill="#FFCD50"/>
<path d="M69.6073 138.365C69.4549 136.538 70.8258 135.016 72.6536 134.864C74.4813 134.711 76.0045 136.081 76.1568 137.908C76.3091 139.735 74.9383 141.257 73.1105 141.409C71.2827 141.561 69.7596 140.191 69.6073 138.365Z" fill="#FFCD50"/>
<path d="M34.2706 123.904C35.4891 122.534 37.4692 122.382 38.84 123.6C40.2108 124.818 40.3631 126.796 39.1446 128.166C37.9261 129.536 35.946 129.689 34.5752 128.471C33.2044 127.405 33.0521 125.274 34.2706 123.904Z" fill="#97CC64"/>
<path d="M19.4955 88.7425C21.3233 88.5903 22.8464 89.9603 22.9987 91.7868C23.151 93.6134 21.7802 95.1356 19.9524 95.2878C18.1247 95.44 16.6015 94.0701 16.4492 92.2435C16.4492 90.4169 17.82 88.8947 19.4955 88.7425Z" fill="#97CC64"/>
<path d="M33.966 53.5807C35.3368 54.7985 35.4891 56.7773 34.2706 58.1472C33.0521 59.5172 31.072 59.6694 29.7012 58.4516C28.3303 57.2339 28.178 55.2551 29.3965 53.8852C30.6151 52.5152 32.5952 52.363 33.966 53.5807Z" fill="#97CC64"/>
<path d="M69.7594 93.0042C68.0839 93.1564 66.5608 92.3953 65.6469 90.8732L48.1308 61.1911C46.9122 59.0601 47.6738 56.4724 49.6539 55.2547C51.7863 54.037 54.3756 54.798 55.5942 56.7768L73.1103 86.4589C74.3288 88.5899 73.5672 91.1776 71.5872 92.3953C70.9779 92.6998 70.3686 93.0042 69.7594 93.0042Z" fill="#605FB7"/>
<path d="M113.627 105.639C113.17 105.639 112.56 105.639 112.103 105.486L68.2369 92.8525C65.9522 92.2436 64.5814 89.8082 65.1906 87.3727C65.7999 85.0895 68.2369 83.7195 70.674 84.3284L114.54 96.9623C116.825 97.5712 118.196 100.007 117.587 102.442C116.978 104.269 115.454 105.486 113.627 105.639Z" fill="#2CACC6"/>
<path d="M71.4347 88.4383C71.5871 89.656 70.6732 90.5693 69.4546 90.7215C68.2361 90.8737 67.3222 89.9604 67.1699 88.7427C67.0176 87.525 67.9315 86.6117 69.15 86.4595C70.3685 86.4595 71.4347 87.2205 71.4347 88.4383Z" fill="white"/>
<path d="M114.54 96.9621L76.6138 86.1548L74.0244 94.5267L112.103 105.486C112.56 105.638 113.169 105.638 113.626 105.638C115.454 105.486 116.977 104.269 117.586 102.442C118.196 100.159 116.825 97.7232 114.54 96.9621Z" fill="#34C3D6"/>
<path d="M272.795 128.02L215.677 151.309L238.676 128.02H272.795Z" fill="#9A7ED9"/>
<path d="M260.761 61.5382L223.901 49.8176L238.828 61.5382H260.761Z" fill="#E2AA20"/>
<path d="M161.722 65.1818V68.0227H150.415V65.1818H161.722ZM153.71 59.9545H157.063V80.75C157.063 81.697 157.2 82.4072 157.475 82.8807C157.759 83.3447 158.118 83.6572 158.554 83.8182C158.999 83.9697 159.468 84.0455 159.96 84.0455C160.33 84.0455 160.633 84.0265 160.869 83.9886C161.106 83.9413 161.296 83.9034 161.438 83.875L162.119 86.8864C161.892 86.9716 161.575 87.0568 161.168 87.142C160.76 87.2367 160.244 87.2841 159.619 87.2841C158.672 87.2841 157.744 87.0805 156.835 86.6733C155.936 86.2661 155.188 85.6458 154.591 84.8125C154.004 83.9792 153.71 82.928 153.71 81.6591V59.9545ZM166.964 87V65.1818H170.317V87H166.964ZM168.669 61.5455C168.015 61.5455 167.452 61.3229 166.978 60.8778C166.514 60.4328 166.282 59.8977 166.282 59.2727C166.282 58.6477 166.514 58.1127 166.978 57.6676C167.452 57.2225 168.015 57 168.669 57C169.322 57 169.881 57.2225 170.345 57.6676C170.818 58.1127 171.055 58.6477 171.055 59.2727C171.055 59.8977 170.818 60.4328 170.345 60.8778C169.881 61.3229 169.322 61.5455 168.669 61.5455ZM176.656 87V65.1818H179.895V68.5909H180.179C180.634 67.4261 181.368 66.5218 182.381 65.8778C183.394 65.2244 184.611 64.8977 186.031 64.8977C187.471 64.8977 188.669 65.2244 189.625 65.8778C190.591 66.5218 191.344 67.4261 191.884 68.5909H192.111C192.67 67.464 193.508 66.5691 194.625 65.9062C195.743 65.2339 197.083 64.8977 198.645 64.8977C200.596 64.8977 202.192 65.5085 203.432 66.7301C204.673 67.9422 205.293 69.8314 205.293 72.3977V87H201.941V72.3977C201.941 70.7879 201.5 69.6373 200.62 68.946C199.739 68.2547 198.702 67.9091 197.509 67.9091C195.975 67.9091 194.786 68.3731 193.943 69.3011C193.101 70.2197 192.679 71.3845 192.679 72.7955V87H189.27V72.0568C189.27 70.8163 188.868 69.8172 188.063 69.0597C187.258 68.2926 186.221 67.9091 184.952 67.9091C184.081 67.9091 183.266 68.1411 182.509 68.6051C181.761 69.0691 181.155 69.7131 180.691 70.5369C180.236 71.3513 180.009 72.2936 180.009 73.3636V87H176.656ZM220.77 87.4545C218.668 87.4545 216.854 86.9905 215.329 86.0625C213.814 85.125 212.645 83.8182 211.821 82.142C211.007 80.4564 210.599 78.4962 210.599 76.2614C210.599 74.0265 211.007 72.0568 211.821 70.3523C212.645 68.6383 213.791 67.303 215.258 66.3466C216.736 65.3807 218.459 64.8977 220.429 64.8977C221.565 64.8977 222.687 65.0871 223.795 65.4659C224.903 65.8447 225.912 66.4602 226.821 67.3125C227.73 68.1553 228.454 69.2727 228.994 70.6648C229.534 72.0568 229.804 73.7708 229.804 75.8068V77.2273H212.986V74.3295H226.395C226.395 73.0985 226.149 72 225.656 71.0341C225.173 70.0682 224.482 69.3059 223.582 68.7472C222.692 68.1884 221.641 67.9091 220.429 67.9091C219.094 67.9091 217.938 68.2405 216.963 68.9034C215.997 69.5568 215.254 70.4091 214.733 71.4602C214.212 72.5114 213.952 73.6383 213.952 74.8409V76.7727C213.952 78.4205 214.236 79.8172 214.804 80.9631C215.382 82.0994 216.182 82.9659 217.204 83.5625C218.227 84.1496 219.416 84.4432 220.77 84.4432C221.65 84.4432 222.446 84.3201 223.156 84.0739C223.876 83.8182 224.496 83.4394 225.017 82.9375C225.538 82.4261 225.94 81.7917 226.224 81.0341L229.463 81.9432C229.122 83.0417 228.549 84.0076 227.744 84.8409C226.939 85.6648 225.945 86.3087 224.761 86.7727C223.578 87.2273 222.247 87.4545 220.77 87.4545Z" fill="black"/>
<path d="M159.464 117.199C158.394 117.199 157.483 116.908 156.73 116.325C155.977 115.738 155.402 114.888 155.004 113.776C154.607 112.658 154.408 111.309 154.408 109.727C154.408 108.155 154.607 106.813 155.004 105.7C155.407 104.583 155.984 103.731 156.737 103.143C157.495 102.552 158.404 102.256 159.464 102.256C160.525 102.256 161.432 102.552 162.185 103.143C162.942 103.731 163.52 104.583 163.918 105.7C164.32 106.813 164.521 108.155 164.521 109.727C164.521 111.309 164.322 112.658 163.925 113.776C163.527 114.888 162.952 115.738 162.199 116.325C161.446 116.908 160.535 117.199 159.464 117.199ZM159.464 115.636C160.525 115.636 161.349 115.125 161.936 114.102C162.523 113.08 162.817 111.621 162.817 109.727C162.817 108.468 162.682 107.395 162.412 106.51C162.147 105.625 161.763 104.95 161.261 104.486C160.764 104.022 160.165 103.79 159.464 103.79C158.413 103.79 157.592 104.308 157 105.345C156.408 106.377 156.112 107.838 156.112 109.727C156.112 110.987 156.245 112.057 156.51 112.938C156.775 113.818 157.156 114.488 157.653 114.947C158.155 115.407 158.759 115.636 159.464 115.636ZM172.064 117.199C170.994 117.199 170.083 116.908 169.33 116.325C168.577 115.738 168.002 114.888 167.604 113.776C167.207 112.658 167.008 111.309 167.008 109.727C167.008 108.155 167.207 106.813 167.604 105.7C168.007 104.583 168.584 103.731 169.337 103.143C170.095 102.552 171.004 102.256 172.064 102.256C173.125 102.256 174.032 102.552 174.785 103.143C175.542 103.731 176.12 104.583 176.518 105.7C176.92 106.813 177.121 108.155 177.121 109.727C177.121 111.309 176.922 112.658 176.525 113.776C176.127 114.888 175.552 115.738 174.799 116.325C174.046 116.908 173.135 117.199 172.064 117.199ZM172.064 115.636C173.125 115.636 173.949 115.125 174.536 114.102C175.123 113.08 175.417 111.621 175.417 109.727C175.417 108.468 175.282 107.395 175.012 106.51C174.747 105.625 174.363 104.95 173.861 104.486C173.364 104.022 172.765 103.79 172.064 103.79C171.013 103.79 170.192 104.308 169.6 105.345C169.008 106.377 168.712 107.838 168.712 109.727C168.712 110.987 168.845 112.057 169.11 112.938C169.375 113.818 169.756 114.488 170.253 114.947C170.755 115.407 171.359 115.636 172.064 115.636ZM181.17 115.139C180.82 115.139 180.519 115.014 180.268 114.763C180.017 114.512 179.892 114.211 179.892 113.861C179.892 113.51 180.017 113.21 180.268 112.959C180.519 112.708 180.82 112.582 181.17 112.582C181.521 112.582 181.821 112.708 182.072 112.959C182.323 113.21 182.449 113.51 182.449 113.861C182.449 114.093 182.389 114.306 182.271 114.5C182.157 114.694 182.003 114.85 181.809 114.969C181.62 115.082 181.407 115.139 181.17 115.139ZM181.17 107.781C180.82 107.781 180.519 107.656 180.268 107.405C180.017 107.154 179.892 106.853 179.892 106.503C179.892 106.152 180.017 105.852 180.268 105.601C180.519 105.35 180.82 105.224 181.17 105.224C181.521 105.224 181.821 105.35 182.072 105.601C182.323 105.852 182.449 106.152 182.449 106.503C182.449 106.735 182.389 106.948 182.271 107.142C182.157 107.336 182.003 107.492 181.809 107.611C181.62 107.724 181.407 107.781 181.17 107.781ZM190.443 117.199C189.505 117.199 188.67 117.038 187.936 116.716C187.206 116.394 186.626 115.946 186.196 115.374C185.769 114.796 185.537 114.126 185.5 113.364H187.289C187.327 113.832 187.488 114.237 187.772 114.578C188.056 114.914 188.428 115.175 188.887 115.359C189.347 115.544 189.856 115.636 190.414 115.636C191.039 115.636 191.593 115.527 192.076 115.31C192.559 115.092 192.938 114.789 193.213 114.401C193.487 114.012 193.625 113.562 193.625 113.051C193.625 112.516 193.492 112.045 193.227 111.638C192.962 111.226 192.573 110.904 192.062 110.672C191.551 110.44 190.926 110.324 190.187 110.324H189.022V108.761H190.187C190.765 108.761 191.271 108.657 191.707 108.449C192.147 108.241 192.491 107.947 192.737 107.568C192.988 107.189 193.113 106.744 193.113 106.233C193.113 105.741 193.004 105.312 192.786 104.947C192.569 104.583 192.261 104.299 191.863 104.095C191.47 103.892 191.006 103.79 190.471 103.79C189.969 103.79 189.496 103.882 189.051 104.067C188.61 104.247 188.25 104.509 187.971 104.855C187.692 105.196 187.54 105.608 187.517 106.091H185.812C185.84 105.329 186.07 104.661 186.501 104.088C186.932 103.51 187.495 103.061 188.191 102.739C188.892 102.417 189.661 102.256 190.5 102.256C191.399 102.256 192.171 102.438 192.815 102.803C193.459 103.162 193.954 103.638 194.299 104.23C194.645 104.822 194.818 105.461 194.818 106.148C194.818 106.967 194.602 107.665 194.171 108.243C193.745 108.821 193.165 109.221 192.431 109.443V109.557C193.35 109.708 194.067 110.099 194.583 110.729C195.099 111.354 195.357 112.128 195.357 113.051C195.357 113.842 195.142 114.552 194.711 115.182C194.285 115.807 193.703 116.299 192.964 116.659C192.225 117.019 191.385 117.199 190.443 117.199ZM203.021 117.199C202.046 117.199 201.184 117.026 200.436 116.68C199.693 116.33 199.113 115.849 198.696 115.239C198.279 114.623 198.073 113.922 198.078 113.136C198.073 112.521 198.194 111.953 198.44 111.432C198.687 110.906 199.023 110.468 199.449 110.118C199.88 109.763 200.36 109.538 200.891 109.443V109.358C200.195 109.178 199.641 108.787 199.229 108.186C198.817 107.58 198.613 106.891 198.618 106.119C198.613 105.381 198.8 104.72 199.179 104.138C199.558 103.555 200.079 103.096 200.742 102.76C201.409 102.424 202.169 102.256 203.021 102.256C203.864 102.256 204.617 102.424 205.28 102.76C205.943 103.096 206.464 103.555 206.842 104.138C207.226 104.72 207.42 105.381 207.425 106.119C207.42 106.891 207.209 107.58 206.793 108.186C206.381 108.787 205.834 109.178 205.152 109.358V109.443C205.678 109.538 206.151 109.763 206.573 110.118C206.994 110.468 207.33 110.906 207.581 111.432C207.832 111.953 207.96 112.521 207.965 113.136C207.96 113.922 207.747 114.623 207.325 115.239C206.909 115.849 206.329 116.33 205.585 116.68C204.847 117.026 203.992 117.199 203.021 117.199ZM203.021 115.636C203.68 115.636 204.248 115.53 204.726 115.317C205.204 115.104 205.574 114.803 205.834 114.415C206.094 114.027 206.227 113.572 206.232 113.051C206.227 112.502 206.085 112.017 205.806 111.595C205.526 111.174 205.145 110.842 204.662 110.601C204.184 110.359 203.637 110.239 203.021 110.239C202.401 110.239 201.847 110.359 201.359 110.601C200.877 110.842 200.495 111.174 200.216 111.595C199.941 112.017 199.806 112.502 199.811 113.051C199.806 113.572 199.932 114.027 200.188 114.415C200.448 114.803 200.82 115.104 201.303 115.317C201.786 115.53 202.359 115.636 203.021 115.636ZM203.021 108.733C203.542 108.733 204.004 108.629 204.406 108.42C204.814 108.212 205.133 107.921 205.365 107.547C205.597 107.173 205.716 106.735 205.72 106.233C205.716 105.741 205.6 105.312 205.372 104.947C205.145 104.578 204.83 104.294 204.428 104.095C204.025 103.892 203.556 103.79 203.021 103.79C202.477 103.79 202.001 103.892 201.594 104.095C201.187 104.294 200.872 104.578 200.649 104.947C200.427 105.312 200.318 105.741 200.323 106.233C200.318 106.735 200.429 107.173 200.656 107.547C200.888 107.921 201.208 108.212 201.615 108.42C202.022 108.629 202.491 108.733 203.021 108.733ZM212.037 115.139C211.686 115.139 211.386 115.014 211.135 114.763C210.884 114.512 210.758 114.211 210.758 113.861C210.758 113.51 210.884 113.21 211.135 112.959C211.386 112.708 211.686 112.582 212.037 112.582C212.387 112.582 212.688 112.708 212.939 112.959C213.189 113.21 213.315 113.51 213.315 113.861C213.315 114.093 213.256 114.306 213.137 114.5C213.024 114.694 212.87 114.85 212.676 114.969C212.486 115.082 212.273 115.139 212.037 115.139ZM212.037 107.781C211.686 107.781 211.386 107.656 211.135 107.405C210.884 107.154 210.758 106.853 210.758 106.503C210.758 106.152 210.884 105.852 211.135 105.601C211.386 105.35 211.686 105.224 212.037 105.224C212.387 105.224 212.688 105.35 212.939 105.601C213.189 105.852 213.315 106.152 213.315 106.503C213.315 106.735 213.256 106.948 213.137 107.142C213.024 107.336 212.87 107.492 212.676 107.611C212.486 107.724 212.273 107.781 212.037 107.781ZM221.508 102.455V117H219.747V104.301H219.661L216.11 106.659V104.869L219.747 102.455H221.508ZM230.536 117.199C229.465 117.199 228.554 116.908 227.801 116.325C227.048 115.738 226.473 114.888 226.075 113.776C225.678 112.658 225.479 111.309 225.479 109.727C225.479 108.155 225.678 106.813 226.075 105.7C226.478 104.583 227.055 103.731 227.808 103.143C228.566 102.552 229.475 102.256 230.536 102.256C231.596 102.256 232.503 102.552 233.256 103.143C234.013 103.731 234.591 104.583 234.989 105.7C235.391 106.813 235.592 108.155 235.592 109.727C235.592 111.309 235.394 112.658 234.996 113.776C234.598 114.888 234.023 115.738 233.27 116.325C232.517 116.908 231.606 117.199 230.536 117.199ZM230.536 115.636C231.596 115.636 232.42 115.125 233.007 114.102C233.594 113.08 233.888 111.621 233.888 109.727C233.888 108.468 233.753 107.395 233.483 106.51C233.218 105.625 232.834 104.95 232.332 104.486C231.835 104.022 231.236 103.79 230.536 103.79C229.484 103.79 228.663 104.308 228.071 105.345C227.479 106.377 227.183 107.838 227.183 109.727C227.183 110.987 227.316 112.057 227.581 112.938C227.846 113.818 228.227 114.488 228.724 114.947C229.226 115.407 229.83 115.636 230.536 115.636Z" fill="black"/>
</g>
<defs>
<clipPath id="clip0_208_679">
<rect width="283" height="158" fill="white"/>
</clipPath>
</defs>
</svg>
